%TF.GenerationSoftware,Altium Limited,Altium Designer,23.5.1 (21)*%
G04 Layer_Color=16711935*
%FSLAX45Y45*%
%MOMM*%
%TF.SameCoordinates,184668B5-E9FD-47B0-B020-163135FE076F*%
%TF.FilePolarity,Negative*%
%TF.FileFunction,Soldermask,Bot*%
%TF.Part,Single*%
G01*
G75*
%TA.AperFunction,ComponentPad*%
G04:AMPARAMS|DCode=51|XSize=2.1mm|YSize=1.4mm|CornerRadius=0.7mm|HoleSize=0mm|Usage=FLASHONLY|Rotation=90.000|XOffset=0mm|YOffset=0mm|HoleType=Round|Shape=RoundedRectangle|*
%AMROUNDEDRECTD51*
21,1,2.10000,0.00000,0,0,90.0*
21,1,0.70000,1.40000,0,0,90.0*
1,1,1.40000,0.00000,0.35000*
1,1,1.40000,0.00000,-0.35000*
1,1,1.40000,0.00000,-0.35000*
1,1,1.40000,0.00000,0.35000*
%
%ADD51ROUNDEDRECTD51*%
%ADD93C,3.82600*%
%ADD94C,1.72600*%
%ADD95R,1.72600X1.72600*%
%ADD96R,1.57600X1.57600*%
%ADD97C,1.57600*%
%ADD98R,1.72600X1.72600*%
%ADD99C,6.07600*%
D51*
X3905450Y152400D02*
D03*
X4695450D02*
D03*
D93*
X495300Y2611500D02*
D03*
Y3111500D02*
D03*
Y3721100D02*
D03*
Y4221100D02*
D03*
X2468500Y5016500D02*
D03*
X1968500D02*
D03*
D94*
X197650Y1023150D02*
D03*
Y1785150D02*
D03*
Y1531150D02*
D03*
Y1277150D02*
D03*
X6062980Y5232400D02*
D03*
X5808980D02*
D03*
X5300980D02*
D03*
X5554980D02*
D03*
D95*
X197650Y2039150D02*
D03*
D96*
X8789610Y5303520D02*
D03*
D97*
X8535610D02*
D03*
X8281610D02*
D03*
X8027610D02*
D03*
X7773610D02*
D03*
X7519610D02*
D03*
D98*
X6316980Y5232400D02*
D03*
D99*
X8500000Y500000D02*
D03*
X500000D02*
D03*
Y5000000D02*
D03*
%TF.MD5,ee761e51107c4047ad6c56546c4529dc*%
M02*
