%TF.GenerationSoftware,Altium Limited,Altium Designer,23.5.1 (21)*%
G04 Layer_Physical_Order=3*
G04 Layer_Color=16440176*
%FSLAX45Y45*%
%MOMM*%
%TF.SameCoordinates,A45302B9-DC87-4458-812D-9FFDCF7A8BA5*%
%TF.FilePolarity,Positive*%
%TF.FileFunction,Copper,L3,Inr,Signal*%
%TF.Part,Single*%
G01*
G75*
%TA.AperFunction,ComponentPad*%
%ADD45C,0.46000*%
%ADD46C,1.65000*%
%ADD47R,1.65000X1.65000*%
G04:AMPARAMS|DCode=48|XSize=2.1mm|YSize=1.4mm|CornerRadius=0.7mm|HoleSize=0mm|Usage=FLASHONLY|Rotation=90.000|XOffset=0mm|YOffset=0mm|HoleType=Round|Shape=RoundedRectangle|*
%AMROUNDEDRECTD48*
21,1,2.10000,0.00000,0,0,90.0*
21,1,0.70000,1.40000,0,0,90.0*
1,1,1.40000,0.00000,0.35000*
1,1,1.40000,0.00000,-0.35000*
1,1,1.40000,0.00000,-0.35000*
1,1,1.40000,0.00000,0.35000*
%
%ADD48ROUNDEDRECTD48*%
%ADD49C,6.00000*%
%ADD50C,1.50000*%
%ADD51R,1.50000X1.50000*%
%ADD52C,3.75000*%
%ADD53R,1.65000X1.65000*%
%TA.AperFunction,ViaPad*%
%ADD54C,0.45000*%
%TA.AperFunction,Conductor*%
%ADD56R,0.50800X1.77800*%
%ADD57R,1.77800X1.77800*%
G36*
X8969414Y2029720D02*
X8949329Y2018701D01*
X8930640Y2022418D01*
X8911950Y2018701D01*
X8896106Y2008114D01*
X8885519Y1992270D01*
X8881802Y1973580D01*
X8885519Y1954890D01*
X8896106Y1939046D01*
X8911950Y1928459D01*
X8930640Y1924742D01*
X8949329Y1928459D01*
X8969414Y1917440D01*
Y30586D01*
X7263298D01*
Y354747D01*
X7261326Y364657D01*
X7255712Y373059D01*
X7247311Y378673D01*
X7237400Y380644D01*
X5436099D01*
Y728980D01*
X5434128Y738891D01*
X5428514Y747292D01*
X5420112Y752906D01*
X5410201Y754878D01*
X2172198D01*
X2172198Y1442752D01*
X2611277Y1881831D01*
X2615907Y1881304D01*
X2632010Y1873827D01*
X2634579Y1860910D01*
X2645166Y1845066D01*
X2661010Y1834479D01*
X2679700Y1830762D01*
X2698390Y1834479D01*
X2711049Y1842938D01*
X2724069Y1845066D01*
X2724231D01*
X2737251Y1842938D01*
X2749910Y1834479D01*
X2768600Y1830762D01*
X2787290Y1834479D01*
X2803134Y1845066D01*
X2813721Y1860910D01*
X2817438Y1879600D01*
X2813721Y1898290D01*
X2803134Y1914134D01*
X2787290Y1924721D01*
X2768600Y1928438D01*
X2749910Y1924721D01*
X2737251Y1916262D01*
X2724231Y1914134D01*
X2724069D01*
X2711049Y1916262D01*
X2698390Y1924721D01*
X2685473Y1927290D01*
X2677996Y1943393D01*
X2677469Y1948023D01*
X2872947Y2143502D01*
X2872948Y2143502D01*
X2878562Y2151904D01*
X2895600Y2160962D01*
X2914290Y2164679D01*
X2930134Y2175266D01*
X2940721Y2191110D01*
X2944438Y2209800D01*
X2946436Y2219778D01*
X2949599Y2221892D01*
X2952954Y2223685D01*
X2953769Y2224678D01*
X2954838Y2225392D01*
X3396511Y2667066D01*
X3402125Y2675467D01*
X3404096Y2685378D01*
Y3098799D01*
X3404097Y3395485D01*
X3403846Y3396745D01*
X3403972Y3398023D01*
X3402868Y3401663D01*
X3402126Y3405396D01*
X3401412Y3406464D01*
X3401039Y3407693D01*
X3400987Y3407756D01*
X3396601Y3417328D01*
X3397007Y3433341D01*
X3399001Y3436325D01*
X3399466Y3436507D01*
X3419457Y3437009D01*
X3421580Y3436325D01*
X3427486Y3427486D01*
X3443330Y3416899D01*
X3462020Y3413182D01*
X3466798Y3414132D01*
X3469423Y3412666D01*
X3482437Y3396525D01*
X3480308Y3385820D01*
X3484025Y3367130D01*
X3494612Y3351286D01*
X3510457Y3340699D01*
X3529146Y3336982D01*
X3547836Y3340699D01*
X3563680Y3351286D01*
X3574267Y3367130D01*
X3577984Y3385820D01*
X3574267Y3404510D01*
X3563680Y3420354D01*
X3547836Y3430941D01*
X3529146Y3434658D01*
X3524368Y3433708D01*
X3521743Y3435174D01*
X3508729Y3451315D01*
X3510858Y3462020D01*
X3507141Y3480710D01*
X3496554Y3496554D01*
X3480710Y3507141D01*
X3462020Y3510858D01*
X3443330Y3507141D01*
X3427486Y3496554D01*
X3423020Y3489870D01*
X3402491Y3490380D01*
X3397317Y3503348D01*
X3396943Y3505418D01*
X3400987Y3514244D01*
X3401039Y3514307D01*
X3401412Y3515536D01*
X3402126Y3516604D01*
X3402868Y3520337D01*
X3403972Y3523977D01*
X3403846Y3525255D01*
X3404097Y3526515D01*
X3404097Y3590381D01*
Y3684947D01*
Y3757913D01*
X3404079Y3758008D01*
X3409590Y3759104D01*
X3422249Y3767563D01*
X3435269Y3769691D01*
X3435431D01*
X3448451Y3767563D01*
X3461110Y3759104D01*
X3479800Y3755387D01*
X3498490Y3759104D01*
X3511149Y3767563D01*
X3524169Y3769691D01*
X3524331D01*
X3537351Y3767563D01*
X3550010Y3759104D01*
X3568700Y3755387D01*
X3587390Y3759104D01*
X3603234Y3769691D01*
X3613821Y3785535D01*
X3617538Y3804225D01*
X3613821Y3822915D01*
X3603234Y3838759D01*
X3587390Y3849346D01*
X3568700Y3853063D01*
X3550010Y3849346D01*
X3537351Y3840887D01*
X3524331Y3838759D01*
X3524169D01*
X3511149Y3840887D01*
X3498490Y3849346D01*
X3479800Y3853063D01*
X3461110Y3849346D01*
X3448451Y3840887D01*
X3435431Y3838759D01*
X3435269D01*
X3422249Y3840887D01*
X3409590Y3849346D01*
X3404079Y3850442D01*
X3404097Y3850537D01*
X3404098Y4825502D01*
X3759200D01*
X3769110Y4827474D01*
X3772739Y4825971D01*
X3773508Y4822107D01*
X3784095Y4806263D01*
X3799939Y4795676D01*
X3818628Y4791958D01*
X3837318Y4795676D01*
X3853162Y4806263D01*
X3863749Y4822107D01*
X3867467Y4840797D01*
X3863749Y4859486D01*
X3853162Y4875331D01*
X3837318Y4885918D01*
X3818628Y4889635D01*
X3805418Y4887007D01*
X3785098Y4898579D01*
X3785097Y5449093D01*
X3805417Y5469413D01*
X4343400D01*
Y5359400D01*
X4467898D01*
X4470400Y5358902D01*
X4648200D01*
X4650702Y5359400D01*
X4724400D01*
Y5469413D01*
X8969414D01*
Y2029720D01*
D02*
G37*
G36*
X3759199Y5469413D02*
X3759200Y4851400D01*
X3378200D01*
X3378200Y3850537D01*
X3372210Y3849346D01*
X3356366Y3838759D01*
X3345779Y3822915D01*
X3342062Y3804225D01*
X3345779Y3785535D01*
X3356366Y3769691D01*
X3372210Y3759104D01*
X3378200Y3757913D01*
Y3684947D01*
Y3590381D01*
X3378199Y3526515D01*
X3357880Y3509839D01*
X3339190Y3506121D01*
X3323346Y3495534D01*
X3312759Y3479690D01*
X3309042Y3461000D01*
X3312759Y3442311D01*
X3323346Y3426466D01*
X3339190Y3415879D01*
X3357880Y3412162D01*
X3378199Y3395485D01*
X3378199Y3098799D01*
Y2685378D01*
X2936525Y2243704D01*
X2930134Y2244334D01*
X2914290Y2254921D01*
X2895600Y2258638D01*
X2876910Y2254921D01*
X2861066Y2244334D01*
X2856477Y2237465D01*
X2833123D01*
X2828534Y2244334D01*
X2812690Y2254921D01*
X2794000Y2258638D01*
X2775310Y2254921D01*
X2759466Y2244334D01*
X2748879Y2228490D01*
X2745162Y2209800D01*
X2748879Y2191110D01*
X2759466Y2175266D01*
X2775310Y2164679D01*
X2794000Y2160962D01*
X2812690Y2164679D01*
X2827445Y2174539D01*
X2829143Y2175182D01*
X2850303Y2172275D01*
X2854636Y2161815D01*
X2146300Y1453479D01*
X2146300Y728980D01*
X5410201D01*
Y354747D01*
X7237400D01*
Y30586D01*
X4772403D01*
X4765949Y44181D01*
X4764677Y50906D01*
X4778782Y69288D01*
X4788395Y92495D01*
X4791673Y117400D01*
Y187400D01*
X4788395Y212305D01*
X4778782Y235512D01*
X4763490Y255440D01*
X4743562Y270732D01*
X4720355Y280345D01*
X4695450Y283623D01*
X4670546Y280345D01*
X4647338Y270732D01*
X4627410Y255440D01*
X4612119Y235512D01*
X4602506Y212305D01*
X4599227Y187400D01*
Y117400D01*
X4602506Y92495D01*
X4612119Y69288D01*
X4626223Y50906D01*
X4624951Y44181D01*
X4618497Y30586D01*
X3982404D01*
X3975949Y44181D01*
X3974677Y50906D01*
X3988782Y69288D01*
X3998395Y92495D01*
X4001673Y117400D01*
Y187400D01*
X3998395Y212305D01*
X3988782Y235512D01*
X3973490Y255440D01*
X3953562Y270732D01*
X3930355Y280345D01*
X3905450Y283623D01*
X3880546Y280345D01*
X3857338Y270732D01*
X3837410Y255440D01*
X3822119Y235512D01*
X3812506Y212305D01*
X3809227Y187400D01*
Y117400D01*
X3812506Y92495D01*
X3822119Y69288D01*
X3836223Y50906D01*
X3834951Y44181D01*
X3828497Y30586D01*
X30586D01*
Y2044202D01*
X89750D01*
Y1931250D01*
X305550D01*
Y2044202D01*
X1202871D01*
X1219397Y2033177D01*
X1222142Y2027073D01*
X1224879Y2013310D01*
X1235466Y1997466D01*
X1251310Y1986879D01*
X1270000Y1983162D01*
X1288690Y1986879D01*
X1304534Y1997466D01*
X1315121Y2013310D01*
X1318838Y2032000D01*
X1315121Y2050690D01*
X1304534Y2066534D01*
X1288690Y2077121D01*
X1278184Y2079210D01*
X1270270Y2100033D01*
X2235199Y3064963D01*
X2235200Y4990010D01*
X2244863Y5006328D01*
X2244866Y5006328D01*
Y5006328D01*
X2255520Y5006851D01*
X2255581Y5006232D01*
X2258681Y4974764D01*
X2270854Y4934632D01*
X2290624Y4897647D01*
X2317229Y4865229D01*
X2349647Y4838624D01*
X2386633Y4818854D01*
X2426764Y4806681D01*
X2455800Y4803821D01*
Y5016500D01*
X2468500D01*
D01*
X2455800D01*
Y5229179D01*
X2426764Y5226319D01*
X2386633Y5214146D01*
X2349647Y5194376D01*
X2317229Y5167771D01*
X2290624Y5135353D01*
X2270854Y5098368D01*
X2258681Y5058236D01*
X2255581Y5026768D01*
X2255520Y5026149D01*
X2244866Y5026672D01*
Y5026672D01*
X2244863Y5026672D01*
X2235200Y5042990D01*
X2235200Y5469413D01*
X3759199Y5469413D01*
D02*
G37*
G36*
X2209303Y5449093D02*
X2209302Y5042990D01*
X2209663Y5041175D01*
X2209563Y5039326D01*
X2209800Y5038652D01*
Y4994347D01*
X2209563Y4993674D01*
X2209664Y4991826D01*
X2209302Y4990010D01*
X2209302Y4000548D01*
X2188982Y3984927D01*
X2184400Y3985838D01*
X2165710Y3982121D01*
X2149866Y3971534D01*
X2139279Y3955690D01*
X2135562Y3937000D01*
X2139279Y3918310D01*
X2149866Y3902466D01*
X2147266Y3880034D01*
X2136679Y3864190D01*
X2132962Y3845500D01*
X2136679Y3826810D01*
X2147266Y3810966D01*
X2163110Y3800379D01*
X2181800Y3796662D01*
X2188982Y3798090D01*
X2209302Y3783689D01*
X2209302Y3075690D01*
X2096667Y2963055D01*
X2074254Y2969379D01*
X2066534Y2980934D01*
X2050690Y2991521D01*
X2032000Y2995238D01*
X2013310Y2991521D01*
X1997466Y2980934D01*
X1986879Y2965090D01*
X1983162Y2946400D01*
X1986879Y2927710D01*
X1997466Y2911866D01*
X2009021Y2904146D01*
X2015345Y2881733D01*
X1251958Y2118346D01*
X1249360Y2114459D01*
X1246646Y2110645D01*
X1246559Y2110266D01*
X1246344Y2109944D01*
X1206500Y2070100D01*
X305550D01*
Y2147050D01*
X89750D01*
Y2070100D01*
X30586D01*
Y5469413D01*
X2188983D01*
X2209303Y5449093D01*
D02*
G37*
%LPC*%
G36*
X8890010Y5403920D02*
X8689210D01*
Y5203120D01*
X8890010D01*
Y5403920D01*
D02*
G37*
G36*
X8535610Y5404786D02*
X8509401Y5401336D01*
X8484977Y5391219D01*
X8464004Y5375126D01*
X8447911Y5354153D01*
X8437795Y5329730D01*
X8434344Y5303520D01*
X8437795Y5277310D01*
X8447911Y5252887D01*
X8464004Y5231914D01*
X8484977Y5215821D01*
X8509401Y5205704D01*
X8535610Y5202254D01*
X8561820Y5205704D01*
X8586243Y5215821D01*
X8607216Y5231914D01*
X8623309Y5252887D01*
X8633426Y5277310D01*
X8636877Y5303520D01*
X8633426Y5329730D01*
X8623309Y5354153D01*
X8607216Y5375126D01*
X8586243Y5391219D01*
X8561820Y5401336D01*
X8535610Y5404786D01*
D02*
G37*
G36*
X8281610D02*
X8255401Y5401336D01*
X8230977Y5391219D01*
X8210004Y5375126D01*
X8193911Y5354153D01*
X8183795Y5329730D01*
X8180344Y5303520D01*
X8183795Y5277310D01*
X8193911Y5252887D01*
X8210004Y5231914D01*
X8230977Y5215821D01*
X8255401Y5205704D01*
X8281610Y5202254D01*
X8307820Y5205704D01*
X8332243Y5215821D01*
X8353216Y5231914D01*
X8369309Y5252887D01*
X8379426Y5277310D01*
X8382877Y5303520D01*
X8379426Y5329730D01*
X8369309Y5354153D01*
X8353216Y5375126D01*
X8332243Y5391219D01*
X8307820Y5401336D01*
X8281610Y5404786D01*
D02*
G37*
G36*
X8027610D02*
X8001401Y5401336D01*
X7976977Y5391219D01*
X7956004Y5375126D01*
X7939911Y5354153D01*
X7929795Y5329730D01*
X7926344Y5303520D01*
X7929795Y5277310D01*
X7939911Y5252887D01*
X7956004Y5231914D01*
X7976977Y5215821D01*
X8001401Y5205704D01*
X8027610Y5202254D01*
X8053820Y5205704D01*
X8078243Y5215821D01*
X8099216Y5231914D01*
X8115309Y5252887D01*
X8125426Y5277310D01*
X8128877Y5303520D01*
X8125426Y5329730D01*
X8115309Y5354153D01*
X8099216Y5375126D01*
X8078243Y5391219D01*
X8053820Y5401336D01*
X8027610Y5404786D01*
D02*
G37*
G36*
X7773610D02*
X7747401Y5401336D01*
X7722977Y5391219D01*
X7702004Y5375126D01*
X7685911Y5354153D01*
X7675795Y5329730D01*
X7672344Y5303520D01*
X7675795Y5277310D01*
X7685911Y5252887D01*
X7702004Y5231914D01*
X7722977Y5215821D01*
X7747401Y5205704D01*
X7773610Y5202254D01*
X7799820Y5205704D01*
X7824243Y5215821D01*
X7845216Y5231914D01*
X7861309Y5252887D01*
X7871426Y5277310D01*
X7874877Y5303520D01*
X7871426Y5329730D01*
X7861309Y5354153D01*
X7845216Y5375126D01*
X7824243Y5391219D01*
X7799820Y5401336D01*
X7773610Y5404786D01*
D02*
G37*
G36*
X7519610D02*
X7493401Y5401336D01*
X7468977Y5391219D01*
X7448004Y5375126D01*
X7431911Y5354153D01*
X7421795Y5329730D01*
X7418344Y5303520D01*
X7421795Y5277310D01*
X7431911Y5252887D01*
X7448004Y5231914D01*
X7468977Y5215821D01*
X7493401Y5205704D01*
X7519610Y5202254D01*
X7545820Y5205704D01*
X7570243Y5215821D01*
X7591216Y5231914D01*
X7607309Y5252887D01*
X7617426Y5277310D01*
X7620877Y5303520D01*
X7617426Y5329730D01*
X7607309Y5354153D01*
X7591216Y5375126D01*
X7570243Y5391219D01*
X7545820Y5401336D01*
X7519610Y5404786D01*
D02*
G37*
G36*
X6424880Y5340300D02*
X6209080D01*
Y5124500D01*
X6424880D01*
Y5340300D01*
D02*
G37*
G36*
X6062980Y5341231D02*
X6034812Y5337523D01*
X6008565Y5326651D01*
X5986025Y5309355D01*
X5968729Y5286815D01*
X5957857Y5260568D01*
X5954149Y5232400D01*
X5957857Y5204232D01*
X5968729Y5177985D01*
X5986025Y5155445D01*
X6008565Y5138149D01*
X6034812Y5127277D01*
X6062980Y5123569D01*
X6091148Y5127277D01*
X6117395Y5138149D01*
X6139935Y5155445D01*
X6157231Y5177985D01*
X6168103Y5204232D01*
X6171811Y5232400D01*
X6168103Y5260568D01*
X6157231Y5286815D01*
X6139935Y5309355D01*
X6117395Y5326651D01*
X6091148Y5337523D01*
X6062980Y5341231D01*
D02*
G37*
G36*
X5808980D02*
X5780812Y5337523D01*
X5754565Y5326651D01*
X5732025Y5309355D01*
X5714729Y5286815D01*
X5703857Y5260568D01*
X5700149Y5232400D01*
X5703857Y5204232D01*
X5714729Y5177985D01*
X5732025Y5155445D01*
X5754565Y5138149D01*
X5780812Y5127277D01*
X5808980Y5123569D01*
X5837148Y5127277D01*
X5863395Y5138149D01*
X5885935Y5155445D01*
X5903231Y5177985D01*
X5914103Y5204232D01*
X5917811Y5232400D01*
X5914103Y5260568D01*
X5903231Y5286815D01*
X5885935Y5309355D01*
X5863395Y5326651D01*
X5837148Y5337523D01*
X5808980Y5341231D01*
D02*
G37*
G36*
X5554980D02*
X5526812Y5337523D01*
X5500565Y5326651D01*
X5478025Y5309355D01*
X5460729Y5286815D01*
X5449857Y5260568D01*
X5446149Y5232400D01*
X5449857Y5204232D01*
X5460729Y5177985D01*
X5478025Y5155445D01*
X5500565Y5138149D01*
X5526812Y5127277D01*
X5554980Y5123569D01*
X5583148Y5127277D01*
X5609395Y5138149D01*
X5631935Y5155445D01*
X5649231Y5177985D01*
X5660103Y5204232D01*
X5663811Y5232400D01*
X5660103Y5260568D01*
X5649231Y5286815D01*
X5631935Y5309355D01*
X5609395Y5326651D01*
X5583148Y5337523D01*
X5554980Y5341231D01*
D02*
G37*
G36*
X5300980D02*
X5272812Y5337523D01*
X5246565Y5326651D01*
X5224025Y5309355D01*
X5206729Y5286815D01*
X5195857Y5260568D01*
X5192149Y5232400D01*
X5195857Y5204232D01*
X5206729Y5177985D01*
X5224025Y5155445D01*
X5246565Y5138149D01*
X5272812Y5127277D01*
X5300980Y5123569D01*
X5329148Y5127277D01*
X5355395Y5138149D01*
X5377935Y5155445D01*
X5395231Y5177985D01*
X5406103Y5204232D01*
X5409811Y5232400D01*
X5406103Y5260568D01*
X5395231Y5286815D01*
X5377935Y5309355D01*
X5355395Y5326651D01*
X5329148Y5337523D01*
X5300980Y5341231D01*
D02*
G37*
G36*
X6477000Y5042478D02*
X6458310Y5038761D01*
X6442466Y5028174D01*
X6431879Y5012330D01*
X6428162Y4993640D01*
X6431879Y4974950D01*
X6442466Y4959106D01*
X6458310Y4948519D01*
X6477000Y4944802D01*
X6495690Y4948519D01*
X6511534Y4959106D01*
X6522121Y4974950D01*
X6525838Y4993640D01*
X6522121Y5012330D01*
X6511534Y5028174D01*
X6495690Y5038761D01*
X6477000Y5042478D01*
D02*
G37*
G36*
X6197600D02*
X6178910Y5038761D01*
X6163066Y5028174D01*
X6152479Y5012330D01*
X6148762Y4993640D01*
X6152479Y4974950D01*
X6163066Y4959106D01*
X6178910Y4948519D01*
X6197600Y4944802D01*
X6216290Y4948519D01*
X6232134Y4959106D01*
X6242721Y4974950D01*
X6246438Y4993640D01*
X6242721Y5012330D01*
X6232134Y5028174D01*
X6216290Y5038761D01*
X6197600Y5042478D01*
D02*
G37*
G36*
X5943600D02*
X5924910Y5038761D01*
X5909066Y5028174D01*
X5898479Y5012330D01*
X5894762Y4993640D01*
X5898479Y4974950D01*
X5909066Y4959106D01*
X5924910Y4948519D01*
X5943600Y4944802D01*
X5962290Y4948519D01*
X5978134Y4959106D01*
X5988721Y4974950D01*
X5992438Y4993640D01*
X5988721Y5012330D01*
X5978134Y5028174D01*
X5962290Y5038761D01*
X5943600Y5042478D01*
D02*
G37*
G36*
X5696310D02*
X5677621Y5038761D01*
X5661777Y5028174D01*
X5651190Y5012330D01*
X5647472Y4993640D01*
X5651190Y4974950D01*
X5661777Y4959106D01*
X5677621Y4948519D01*
X5696310Y4944802D01*
X5715000Y4948519D01*
X5730844Y4959106D01*
X5741431Y4974950D01*
X5745149Y4993640D01*
X5741431Y5012330D01*
X5730844Y5028174D01*
X5715000Y5038761D01*
X5696310Y5042478D01*
D02*
G37*
G36*
X8722360Y4892618D02*
X8703670Y4888901D01*
X8687826Y4878314D01*
X8677239Y4862470D01*
X8673522Y4843780D01*
X8677239Y4825090D01*
X8687826Y4809246D01*
X8703670Y4798659D01*
X8722360Y4794942D01*
X8741050Y4798659D01*
X8756894Y4809246D01*
X8767481Y4825090D01*
X8771198Y4843780D01*
X8767481Y4862470D01*
X8756894Y4878314D01*
X8741050Y4888901D01*
X8722360Y4892618D01*
D02*
G37*
G36*
X4292600Y4887462D02*
X4273910Y4883744D01*
X4258066Y4873157D01*
X4247479Y4857313D01*
X4243762Y4838624D01*
X4247479Y4819934D01*
X4258066Y4804090D01*
X4273910Y4793503D01*
X4292600Y4789785D01*
X4311290Y4793503D01*
X4327134Y4804090D01*
X4337721Y4819934D01*
X4341438Y4838624D01*
X4337721Y4857313D01*
X4327134Y4873157D01*
X4311290Y4883744D01*
X4292600Y4887462D01*
D02*
G37*
G36*
X8201660Y4874838D02*
X8182970Y4871121D01*
X8167126Y4860534D01*
X8156539Y4844690D01*
X8152822Y4826000D01*
X8156539Y4807310D01*
X8167126Y4791466D01*
X8182970Y4780879D01*
X8201660Y4777162D01*
X8220350Y4780879D01*
X8236194Y4791466D01*
X8246781Y4807310D01*
X8250498Y4826000D01*
X8246781Y4844690D01*
X8236194Y4860534D01*
X8220350Y4871121D01*
X8201660Y4874838D01*
D02*
G37*
G36*
X7962900D02*
X7944210Y4871121D01*
X7928366Y4860534D01*
X7917779Y4844690D01*
X7914062Y4826000D01*
X7917779Y4807310D01*
X7928366Y4791466D01*
X7944210Y4780879D01*
X7962900Y4777162D01*
X7981590Y4780879D01*
X7997434Y4791466D01*
X8008021Y4807310D01*
X8011738Y4826000D01*
X8008021Y4844690D01*
X7997434Y4860534D01*
X7981590Y4871121D01*
X7962900Y4874838D01*
D02*
G37*
G36*
X6883400Y4519238D02*
X6864710Y4515521D01*
X6848866Y4504934D01*
X6838279Y4489090D01*
X6834562Y4470400D01*
X6838279Y4451710D01*
X6848866Y4435866D01*
X6864710Y4425279D01*
X6883400Y4421562D01*
X6902090Y4425279D01*
X6917934Y4435866D01*
X6928521Y4451710D01*
X6932238Y4470400D01*
X6928521Y4489090D01*
X6917934Y4504934D01*
X6902090Y4515521D01*
X6883400Y4519238D01*
D02*
G37*
G36*
X6680200D02*
X6661510Y4515521D01*
X6645666Y4504934D01*
X6635079Y4489090D01*
X6631362Y4470400D01*
X6635079Y4451710D01*
X6645666Y4435866D01*
X6661510Y4425279D01*
X6680200Y4421562D01*
X6698890Y4425279D01*
X6714734Y4435866D01*
X6725321Y4451710D01*
X6729038Y4470400D01*
X6725321Y4489090D01*
X6714734Y4504934D01*
X6698890Y4515521D01*
X6680200Y4519238D01*
D02*
G37*
G36*
X6426200D02*
X6407510Y4515521D01*
X6391666Y4504934D01*
X6381079Y4489090D01*
X6377362Y4470400D01*
X6381079Y4451710D01*
X6391666Y4435866D01*
X6407510Y4425279D01*
X6426200Y4421562D01*
X6444890Y4425279D01*
X6460734Y4435866D01*
X6471321Y4451710D01*
X6475038Y4470400D01*
X6471321Y4489090D01*
X6460734Y4504934D01*
X6444890Y4515521D01*
X6426200Y4519238D01*
D02*
G37*
G36*
X6146800D02*
X6128110Y4515521D01*
X6112266Y4504934D01*
X6101679Y4489090D01*
X6097962Y4470400D01*
X6101679Y4451710D01*
X6112266Y4435866D01*
X6128110Y4425279D01*
X6146800Y4421562D01*
X6165490Y4425279D01*
X6181334Y4435866D01*
X6191921Y4451710D01*
X6195638Y4470400D01*
X6191921Y4489090D01*
X6181334Y4504934D01*
X6165490Y4515521D01*
X6146800Y4519238D01*
D02*
G37*
G36*
X3733800Y4461877D02*
X3715110Y4458159D01*
X3699266Y4447573D01*
X3688679Y4431728D01*
X3684962Y4413039D01*
X3688679Y4394349D01*
X3699266Y4378505D01*
X3715110Y4367918D01*
X3733800Y4364200D01*
X3752490Y4367918D01*
X3768334Y4378505D01*
X3778921Y4394349D01*
X3782638Y4413039D01*
X3778921Y4431728D01*
X3768334Y4447573D01*
X3752490Y4458159D01*
X3733800Y4461877D01*
D02*
G37*
G36*
X5696310Y4328738D02*
X5677621Y4325021D01*
X5661777Y4314434D01*
X5651190Y4298590D01*
X5647472Y4279900D01*
X5651190Y4261210D01*
X5661777Y4245366D01*
X5677621Y4234779D01*
X5696310Y4231062D01*
X5715000Y4234779D01*
X5730844Y4245366D01*
X5741431Y4261210D01*
X5745149Y4279900D01*
X5741431Y4298590D01*
X5730844Y4314434D01*
X5715000Y4325021D01*
X5696310Y4328738D01*
D02*
G37*
G36*
X7962900Y4133138D02*
X7944210Y4129421D01*
X7928366Y4118834D01*
X7917779Y4102990D01*
X7914062Y4084300D01*
X7917779Y4065610D01*
X7928366Y4049766D01*
X7944210Y4039179D01*
X7962900Y4035462D01*
X7981590Y4039179D01*
X7997434Y4049766D01*
X8008021Y4065610D01*
X8011738Y4084300D01*
X8008021Y4102990D01*
X7997434Y4118834D01*
X7981590Y4129421D01*
X7962900Y4133138D01*
D02*
G37*
G36*
X7835900D02*
X7817210Y4129421D01*
X7801366Y4118834D01*
X7790779Y4102990D01*
X7787062Y4084300D01*
X7790779Y4065610D01*
X7801366Y4049766D01*
X7817210Y4039179D01*
X7835900Y4035462D01*
X7854590Y4039179D01*
X7870434Y4049766D01*
X7881021Y4065610D01*
X7884738Y4084300D01*
X7881021Y4102990D01*
X7870434Y4118834D01*
X7854590Y4129421D01*
X7835900Y4133138D01*
D02*
G37*
G36*
X7707333Y4133431D02*
X7688644Y4129713D01*
X7672799Y4119126D01*
X7662213Y4103282D01*
X7659967Y4091995D01*
X7645400Y4074174D01*
X7626710Y4070457D01*
X7610866Y4059870D01*
X7600279Y4044026D01*
X7596562Y4025336D01*
X7600279Y4006647D01*
X7610866Y3990802D01*
X7626710Y3980215D01*
X7645400Y3976498D01*
X7664090Y3980215D01*
X7679934Y3990802D01*
X7690521Y4006647D01*
X7692766Y4017933D01*
X7707334Y4035754D01*
X7726023Y4039471D01*
X7741867Y4050058D01*
X7752454Y4065903D01*
X7756172Y4084592D01*
X7752454Y4103282D01*
X7741867Y4119126D01*
X7726023Y4129713D01*
X7707333Y4133431D01*
D02*
G37*
G36*
X7442200Y4133138D02*
X7423510Y4129421D01*
X7407666Y4118834D01*
X7397079Y4102990D01*
X7393362Y4084300D01*
X7397079Y4065610D01*
X7407666Y4049766D01*
X7423510Y4039179D01*
X7442200Y4035462D01*
X7451214Y4037255D01*
X7467746Y4026515D01*
X7470245Y4021899D01*
X7473279Y4006647D01*
X7483866Y3990802D01*
X7499710Y3980215D01*
X7518400Y3976498D01*
X7537090Y3980215D01*
X7552934Y3990802D01*
X7563521Y4006647D01*
X7567238Y4025336D01*
X7563521Y4044026D01*
X7552934Y4059870D01*
X7537090Y4070457D01*
X7518400Y4074174D01*
X7509386Y4072381D01*
X7492854Y4083121D01*
X7490355Y4087737D01*
X7487321Y4102990D01*
X7476734Y4118834D01*
X7460890Y4129421D01*
X7442200Y4133138D01*
D02*
G37*
G36*
X5577840Y4055391D02*
X5559150Y4051674D01*
X5543306Y4041087D01*
X5532719Y4025242D01*
X5529002Y4006553D01*
X5532719Y3987863D01*
X5543306Y3972019D01*
X5559150Y3961432D01*
X5577840Y3957714D01*
X5596530Y3961432D01*
X5612374Y3972019D01*
X5622961Y3987863D01*
X5626678Y4006553D01*
X5622961Y4025242D01*
X5612374Y4041087D01*
X5596530Y4051674D01*
X5577840Y4055391D01*
D02*
G37*
G36*
X5278120Y4041718D02*
X5259430Y4038001D01*
X5243586Y4027414D01*
X5232999Y4011570D01*
X5229282Y3992880D01*
X5232999Y3974190D01*
X5243586Y3958346D01*
X5259430Y3947759D01*
X5278120Y3944042D01*
X5296810Y3947759D01*
X5312654Y3958346D01*
X5323241Y3974190D01*
X5326958Y3992880D01*
X5323241Y4011570D01*
X5312654Y4027414D01*
X5296810Y4038001D01*
X5278120Y4041718D01*
D02*
G37*
G36*
X8384166Y4037639D02*
X8365476Y4033921D01*
X8349632Y4023334D01*
X8339045Y4007490D01*
X8335327Y3988800D01*
X8339045Y3970111D01*
X8349632Y3954266D01*
X8365476Y3943679D01*
X8384166Y3939962D01*
X8402855Y3943679D01*
X8418700Y3954266D01*
X8429287Y3970111D01*
X8433004Y3988800D01*
X8429287Y4007490D01*
X8418700Y4023334D01*
X8402855Y4033921D01*
X8384166Y4037639D01*
D02*
G37*
G36*
X8201660D02*
X8182970Y4033921D01*
X8167126Y4023334D01*
X8156539Y4007490D01*
X8152822Y3988800D01*
X8156539Y3970111D01*
X8167126Y3954266D01*
X8182970Y3943679D01*
X8201660Y3939962D01*
X8220350Y3943679D01*
X8236194Y3954266D01*
X8246781Y3970111D01*
X8250498Y3988800D01*
X8246781Y4007490D01*
X8236194Y4023334D01*
X8220350Y4033921D01*
X8201660Y4037639D01*
D02*
G37*
G36*
X6379300Y3821236D02*
X6360610Y3817518D01*
X6344766Y3806931D01*
X6334179Y3791087D01*
X6330462Y3772398D01*
X6334179Y3753708D01*
X6344766Y3737864D01*
X6360610Y3727277D01*
X6379300Y3723559D01*
X6397989Y3727277D01*
X6413834Y3737864D01*
X6424421Y3753708D01*
X6428138Y3772398D01*
X6424421Y3791087D01*
X6413834Y3806931D01*
X6397989Y3817518D01*
X6379300Y3821236D01*
D02*
G37*
G36*
X8661400Y3693738D02*
X8642710Y3690021D01*
X8630051Y3681562D01*
X8617031Y3679434D01*
X8616869D01*
X8603849Y3681562D01*
X8591190Y3690021D01*
X8572500Y3693738D01*
X8553810Y3690021D01*
X8537966Y3679434D01*
X8527379Y3663590D01*
X8523662Y3644900D01*
X8527379Y3626210D01*
X8537966Y3610366D01*
X8553810Y3599779D01*
X8572500Y3596062D01*
X8591190Y3599779D01*
X8603849Y3608238D01*
X8616869Y3610366D01*
X8617031D01*
X8630051Y3608238D01*
X8642710Y3599779D01*
X8661400Y3596062D01*
X8680090Y3599779D01*
X8695934Y3610366D01*
X8706521Y3626210D01*
X8710238Y3644900D01*
X8706521Y3663590D01*
X8695934Y3679434D01*
X8680090Y3690021D01*
X8661400Y3693738D01*
D02*
G37*
G36*
X5664100Y3911135D02*
X5645410Y3907418D01*
X5629566Y3896831D01*
X5618979Y3880987D01*
X5615262Y3862297D01*
X5618979Y3843608D01*
X5629566Y3827763D01*
X5645410Y3817176D01*
X5657641Y3814743D01*
X5667794Y3799595D01*
X5669342Y3793783D01*
X5666162Y3777794D01*
X5669879Y3759104D01*
X5680466Y3743260D01*
X5693812Y3734342D01*
X5695164Y3723397D01*
X5693812Y3712452D01*
X5680466Y3703534D01*
X5669879Y3687690D01*
X5666162Y3669000D01*
X5669879Y3650310D01*
X5680466Y3634466D01*
X5696310Y3623879D01*
X5715000Y3620162D01*
X5733690Y3623879D01*
X5749534Y3634466D01*
X5760121Y3650310D01*
X5763838Y3669000D01*
X5760121Y3687690D01*
X5749534Y3703534D01*
X5736188Y3712452D01*
X5734836Y3723397D01*
X5736188Y3734342D01*
X5749534Y3743260D01*
X5760121Y3759104D01*
X5763838Y3777794D01*
X5760121Y3796483D01*
X5749534Y3812328D01*
X5733690Y3822915D01*
X5721458Y3825347D01*
X5711306Y3840496D01*
X5709758Y3846308D01*
X5712938Y3862297D01*
X5709221Y3880987D01*
X5698634Y3896831D01*
X5682789Y3907418D01*
X5664100Y3911135D01*
D02*
G37*
G36*
X6997700Y3693738D02*
X6979010Y3690021D01*
X6963166Y3679434D01*
X6952579Y3663590D01*
X6948862Y3644900D01*
X6952579Y3626210D01*
X6963166Y3610366D01*
X6979010Y3599779D01*
X6997700Y3596062D01*
X7016390Y3599779D01*
X7032234Y3610366D01*
X7042821Y3626210D01*
X7046538Y3644900D01*
X7042821Y3663590D01*
X7032234Y3679434D01*
X7016390Y3690021D01*
X6997700Y3693738D01*
D02*
G37*
G36*
X7287260Y3670878D02*
X7268570Y3667161D01*
X7252726Y3656574D01*
X7242139Y3640730D01*
X7238422Y3622040D01*
X7242139Y3603350D01*
X7252726Y3587506D01*
X7268570Y3576919D01*
X7287260Y3573202D01*
X7305950Y3576919D01*
X7321794Y3587506D01*
X7332381Y3603350D01*
X7336098Y3622040D01*
X7332381Y3640730D01*
X7321794Y3656574D01*
X7305950Y3667161D01*
X7287260Y3670878D01*
D02*
G37*
G36*
X6385560Y3635318D02*
X6366870Y3631601D01*
X6351026Y3621014D01*
X6340439Y3605170D01*
X6336722Y3586480D01*
X6340439Y3567790D01*
X6351026Y3551946D01*
X6366870Y3541359D01*
X6385560Y3537642D01*
X6404250Y3541359D01*
X6420094Y3551946D01*
X6430681Y3567790D01*
X6434398Y3586480D01*
X6430681Y3605170D01*
X6420094Y3621014D01*
X6404250Y3631601D01*
X6385560Y3635318D01*
D02*
G37*
G36*
X5392420Y3442278D02*
X5373730Y3438561D01*
X5357886Y3427974D01*
X5347299Y3412130D01*
X5343582Y3393440D01*
X5347299Y3374750D01*
X5357886Y3358906D01*
X5373730Y3348319D01*
X5392420Y3344602D01*
X5411110Y3348319D01*
X5426954Y3358906D01*
X5437541Y3374750D01*
X5441258Y3393440D01*
X5437541Y3412130D01*
X5426954Y3427974D01*
X5411110Y3438561D01*
X5392420Y3442278D01*
D02*
G37*
G36*
X3644900Y3413641D02*
X3626210Y3409923D01*
X3610366Y3399336D01*
X3599779Y3383492D01*
X3596062Y3364803D01*
X3599779Y3346113D01*
X3610366Y3330269D01*
X3626210Y3319682D01*
X3644900Y3315964D01*
X3663590Y3319682D01*
X3679434Y3330269D01*
X3690021Y3346113D01*
X3693738Y3364803D01*
X3690021Y3383492D01*
X3679434Y3399336D01*
X3663590Y3409923D01*
X3644900Y3413641D01*
D02*
G37*
G36*
X4206240Y3404178D02*
X4187550Y3400461D01*
X4171706Y3389874D01*
X4161119Y3374030D01*
X4157402Y3355340D01*
X4161119Y3336650D01*
X4171706Y3320806D01*
X4187550Y3310219D01*
X4206240Y3306502D01*
X4224930Y3310219D01*
X4240774Y3320806D01*
X4251361Y3336650D01*
X4255078Y3355340D01*
X4251361Y3374030D01*
X4240774Y3389874D01*
X4224930Y3400461D01*
X4206240Y3404178D01*
D02*
G37*
G36*
X5974351Y3387365D02*
X5955661Y3383647D01*
X5939817Y3373060D01*
X5929230Y3357216D01*
X5925512Y3338526D01*
X5929230Y3319837D01*
X5939817Y3303992D01*
X5955661Y3293405D01*
X5974351Y3289688D01*
X5993040Y3293405D01*
X6008884Y3303992D01*
X6019471Y3319837D01*
X6023189Y3338526D01*
X6019471Y3357216D01*
X6008884Y3373060D01*
X5993040Y3383647D01*
X5974351Y3387365D01*
D02*
G37*
G36*
X8214140Y3383068D02*
X8195255Y3379312D01*
X8179246Y3368615D01*
X8168548Y3352605D01*
X8164792Y3333720D01*
X8168548Y3314835D01*
X8179246Y3298826D01*
X8195255Y3288128D01*
X8214140Y3284372D01*
X8233025Y3288128D01*
X8249035Y3298826D01*
X8259732Y3314835D01*
X8263488Y3333720D01*
X8259732Y3352605D01*
X8249035Y3368615D01*
X8233025Y3379312D01*
X8214140Y3383068D01*
D02*
G37*
G36*
X8074440D02*
X8055555Y3379312D01*
X8039546Y3368615D01*
X8028848Y3352605D01*
X8025092Y3333720D01*
X8028848Y3314835D01*
X8039546Y3298826D01*
X8055555Y3288128D01*
X8074440Y3284372D01*
X8093325Y3288128D01*
X8109335Y3298826D01*
X8120032Y3314835D01*
X8123788Y3333720D01*
X8120032Y3352605D01*
X8109335Y3368615D01*
X8093325Y3379312D01*
X8074440Y3383068D01*
D02*
G37*
G36*
X3665220Y3298218D02*
X3646530Y3294501D01*
X3630686Y3283914D01*
X3620099Y3268070D01*
X3616382Y3249380D01*
X3620099Y3230691D01*
X3630686Y3214846D01*
X3646530Y3204259D01*
X3665220Y3200542D01*
X3683910Y3204259D01*
X3699754Y3214846D01*
X3710341Y3230691D01*
X3714058Y3249380D01*
X3710341Y3268070D01*
X3699754Y3283914D01*
X3683910Y3294501D01*
X3665220Y3298218D01*
D02*
G37*
G36*
X3802380Y3292418D02*
X3783690Y3288701D01*
X3767846Y3278114D01*
X3757259Y3262270D01*
X3753542Y3243580D01*
X3757259Y3224890D01*
X3767846Y3209046D01*
X3783690Y3198459D01*
X3802380Y3194742D01*
X3821070Y3198459D01*
X3836914Y3209046D01*
X3847501Y3224890D01*
X3851218Y3243580D01*
X3847501Y3262270D01*
X3836914Y3278114D01*
X3821070Y3288701D01*
X3802380Y3292418D01*
D02*
G37*
G36*
X4059498Y3287338D02*
X4040809Y3283621D01*
X4024965Y3273034D01*
X4014378Y3257190D01*
X4010660Y3238500D01*
X4014378Y3219810D01*
X4024965Y3203966D01*
X4040809Y3193379D01*
X4059498Y3189662D01*
X4078188Y3193379D01*
X4094032Y3203966D01*
X4104619Y3219810D01*
X4108337Y3238500D01*
X4104619Y3257190D01*
X4094032Y3273034D01*
X4078188Y3283621D01*
X4059498Y3287338D01*
D02*
G37*
G36*
X3931920D02*
X3913230Y3283621D01*
X3897386Y3273034D01*
X3886799Y3257190D01*
X3883082Y3238500D01*
X3886799Y3219810D01*
X3897386Y3203966D01*
X3913230Y3193379D01*
X3931920Y3189662D01*
X3950610Y3193379D01*
X3966454Y3203966D01*
X3977041Y3219810D01*
X3980758Y3238500D01*
X3977041Y3257190D01*
X3966454Y3273034D01*
X3950610Y3283621D01*
X3931920Y3287338D01*
D02*
G37*
G36*
X4203700Y3282258D02*
X4185010Y3278541D01*
X4169166Y3267954D01*
X4158579Y3252110D01*
X4154862Y3233420D01*
X4158579Y3214730D01*
X4169166Y3198886D01*
X4185010Y3188299D01*
X4203700Y3184582D01*
X4222390Y3188299D01*
X4238234Y3198886D01*
X4248821Y3214730D01*
X4252538Y3233420D01*
X4248821Y3252110D01*
X4238234Y3267954D01*
X4222390Y3278541D01*
X4203700Y3282258D01*
D02*
G37*
G36*
X8356380Y3240828D02*
X8337495Y3237072D01*
X8321486Y3226375D01*
X8310788Y3210365D01*
X8307032Y3191480D01*
X8310788Y3172595D01*
X8321486Y3156586D01*
X8337495Y3145888D01*
X8356380Y3142132D01*
X8375265Y3145888D01*
X8391275Y3156586D01*
X8401972Y3172595D01*
X8405728Y3191480D01*
X8401972Y3210365D01*
X8391275Y3226375D01*
X8375265Y3237072D01*
X8356380Y3240828D01*
D02*
G37*
G36*
X8211600D02*
X8192715Y3237072D01*
X8176706Y3226375D01*
X8166008Y3210365D01*
X8162252Y3191480D01*
X8166008Y3172595D01*
X8176706Y3156586D01*
X8192715Y3145888D01*
X8211600Y3142132D01*
X8230485Y3145888D01*
X8246495Y3156586D01*
X8257192Y3172595D01*
X8260948Y3191480D01*
X8257192Y3210365D01*
X8246495Y3226375D01*
X8230485Y3237072D01*
X8211600Y3240828D01*
D02*
G37*
G36*
X8074440D02*
X8055555Y3237072D01*
X8039546Y3226375D01*
X8028848Y3210365D01*
X8025092Y3191480D01*
X8028848Y3172595D01*
X8039546Y3156586D01*
X8055555Y3145888D01*
X8074440Y3142132D01*
X8093325Y3145888D01*
X8109335Y3156586D01*
X8120032Y3172595D01*
X8123788Y3191480D01*
X8120032Y3210365D01*
X8109335Y3226375D01*
X8093325Y3237072D01*
X8074440Y3240828D01*
D02*
G37*
G36*
X7929660D02*
X7910775Y3237072D01*
X7894766Y3226375D01*
X7884068Y3210365D01*
X7880312Y3191480D01*
X7884068Y3172595D01*
X7894766Y3156586D01*
X7910775Y3145888D01*
X7929660Y3142132D01*
X7948545Y3145888D01*
X7964555Y3156586D01*
X7975252Y3172595D01*
X7979008Y3191480D01*
X7975252Y3210365D01*
X7964555Y3226375D01*
X7948545Y3237072D01*
X7929660Y3240828D01*
D02*
G37*
G36*
X7569200Y3122238D02*
X7550510Y3118521D01*
X7534666Y3107934D01*
X7524079Y3092090D01*
X7520362Y3073400D01*
X7524079Y3054710D01*
X7534666Y3038866D01*
X7550510Y3028279D01*
X7569200Y3024562D01*
X7587890Y3028279D01*
X7603734Y3038866D01*
X7614321Y3054710D01*
X7618038Y3073400D01*
X7614321Y3092090D01*
X7603734Y3107934D01*
X7587890Y3118521D01*
X7569200Y3122238D01*
D02*
G37*
G36*
X8074440Y3101128D02*
X8055555Y3097372D01*
X8039546Y3086675D01*
X8028848Y3070665D01*
X8025092Y3051780D01*
X8028848Y3032895D01*
X8039546Y3016886D01*
X8055555Y3006188D01*
X8074440Y3002432D01*
X8093325Y3006188D01*
X8109335Y3016886D01*
X8120032Y3032895D01*
X8123788Y3051780D01*
X8120032Y3070665D01*
X8109335Y3086675D01*
X8093325Y3097372D01*
X8074440Y3101128D01*
D02*
G37*
G36*
X8356380Y3098588D02*
X8337495Y3094832D01*
X8321486Y3084135D01*
X8310788Y3068125D01*
X8307032Y3049240D01*
X8310788Y3030355D01*
X8321486Y3014346D01*
X8337495Y3003648D01*
X8356380Y2999892D01*
X8375265Y3003648D01*
X8391275Y3014346D01*
X8401972Y3030355D01*
X8405728Y3049240D01*
X8401972Y3068125D01*
X8391275Y3084135D01*
X8375265Y3094832D01*
X8356380Y3098588D01*
D02*
G37*
G36*
X8214140D02*
X8195255Y3094832D01*
X8179246Y3084135D01*
X8168548Y3068125D01*
X8164792Y3049240D01*
X8168548Y3030355D01*
X8179246Y3014346D01*
X8195255Y3003648D01*
X8214140Y2999892D01*
X8233025Y3003648D01*
X8249035Y3014346D01*
X8259732Y3030355D01*
X8263488Y3049240D01*
X8259732Y3068125D01*
X8249035Y3084135D01*
X8233025Y3094832D01*
X8214140Y3098588D01*
D02*
G37*
G36*
X7929660D02*
X7910775Y3094832D01*
X7894766Y3084135D01*
X7884068Y3068125D01*
X7880312Y3049240D01*
X7884068Y3030355D01*
X7894766Y3014346D01*
X7910775Y3003648D01*
X7929660Y2999892D01*
X7948545Y3003648D01*
X7964555Y3014346D01*
X7975252Y3030355D01*
X7979008Y3049240D01*
X7975252Y3068125D01*
X7964555Y3084135D01*
X7948545Y3094832D01*
X7929660Y3098588D01*
D02*
G37*
G36*
X6400800Y3122938D02*
X6382110Y3119221D01*
X6366266Y3108634D01*
X6355679Y3092790D01*
X6351962Y3074100D01*
X6355679Y3055410D01*
X6366266Y3039566D01*
X6366336Y3039519D01*
Y3015081D01*
X6366266Y3015034D01*
X6355679Y2999190D01*
X6351962Y2980500D01*
X6355679Y2961810D01*
X6366266Y2945966D01*
X6382110Y2935379D01*
X6400800Y2931662D01*
X6419490Y2935379D01*
X6435334Y2945966D01*
X6445921Y2961810D01*
X6449638Y2980500D01*
X6445921Y2999190D01*
X6435334Y3015034D01*
X6435264Y3015081D01*
Y3039519D01*
X6435334Y3039566D01*
X6445921Y3055410D01*
X6449638Y3074100D01*
X6445921Y3092790D01*
X6435334Y3108634D01*
X6419490Y3119221D01*
X6400800Y3122938D01*
D02*
G37*
G36*
X5815832Y2955838D02*
X5797142Y2952121D01*
X5781298Y2941534D01*
X5770711Y2925690D01*
X5766993Y2907000D01*
X5770711Y2888310D01*
X5781298Y2872466D01*
X5797142Y2861879D01*
X5815832Y2858162D01*
X5834521Y2861879D01*
X5850365Y2872466D01*
X5860952Y2888310D01*
X5864670Y2907000D01*
X5860952Y2925690D01*
X5850365Y2941534D01*
X5834521Y2952121D01*
X5815832Y2955838D01*
D02*
G37*
G36*
X8214140Y2956348D02*
X8195255Y2952592D01*
X8179246Y2941895D01*
X8168548Y2925885D01*
X8164792Y2907000D01*
X8168548Y2888115D01*
X8179246Y2872106D01*
X8195255Y2861408D01*
X8214140Y2857652D01*
X8233025Y2861408D01*
X8249035Y2872106D01*
X8259732Y2888115D01*
X8263488Y2907000D01*
X8259732Y2925885D01*
X8249035Y2941895D01*
X8233025Y2952592D01*
X8214140Y2956348D01*
D02*
G37*
G36*
X8074440D02*
X8055555Y2952592D01*
X8039546Y2941895D01*
X8028848Y2925885D01*
X8025092Y2907000D01*
X8028848Y2888115D01*
X8039546Y2872106D01*
X8055555Y2861408D01*
X8074440Y2857652D01*
X8093325Y2861408D01*
X8109335Y2872106D01*
X8120032Y2888115D01*
X8123788Y2907000D01*
X8120032Y2925885D01*
X8109335Y2941895D01*
X8093325Y2952592D01*
X8074440Y2956348D01*
D02*
G37*
G36*
X3632200Y2868238D02*
X3613510Y2864521D01*
X3597666Y2853934D01*
X3587079Y2838090D01*
X3583362Y2819400D01*
X3587079Y2800710D01*
X3597666Y2784866D01*
X3613510Y2774279D01*
X3632200Y2770562D01*
X3650890Y2774279D01*
X3666734Y2784866D01*
X3677321Y2800710D01*
X3681038Y2819400D01*
X3677321Y2838090D01*
X3666734Y2853934D01*
X3650890Y2864521D01*
X3632200Y2868238D01*
D02*
G37*
G36*
X5054600Y2842838D02*
X5035910Y2839121D01*
X5020066Y2828534D01*
X5009479Y2812690D01*
X5005762Y2794000D01*
X5009479Y2775310D01*
X5020066Y2759466D01*
X5035910Y2748879D01*
X5054600Y2745162D01*
X5073290Y2748879D01*
X5089134Y2759466D01*
X5099721Y2775310D01*
X5103438Y2794000D01*
X5099721Y2812690D01*
X5089134Y2828534D01*
X5073290Y2839121D01*
X5054600Y2842838D01*
D02*
G37*
G36*
X8384166Y2741238D02*
X8365476Y2737521D01*
X8349632Y2726934D01*
X8343572Y2717865D01*
X8342779Y2717567D01*
X8321787D01*
X8320994Y2717865D01*
X8314934Y2726934D01*
X8299090Y2737521D01*
X8280400Y2741238D01*
X8261710Y2737521D01*
X8245866Y2726934D01*
X8235279Y2711090D01*
X8231562Y2692400D01*
X8235279Y2673710D01*
X8245866Y2657866D01*
X8261710Y2647279D01*
X8280400Y2643562D01*
X8299090Y2647279D01*
X8314934Y2657866D01*
X8320994Y2666935D01*
X8321787Y2667233D01*
X8342779D01*
X8343572Y2666935D01*
X8349632Y2657866D01*
X8365476Y2647279D01*
X8384166Y2643562D01*
X8402855Y2647279D01*
X8418700Y2657866D01*
X8429287Y2673710D01*
X8433004Y2692400D01*
X8429287Y2711090D01*
X8418700Y2726934D01*
X8402855Y2737521D01*
X8384166Y2741238D01*
D02*
G37*
G36*
X6121400Y2807278D02*
X6102710Y2803561D01*
X6086866Y2792974D01*
X6076279Y2777130D01*
X6072562Y2758440D01*
X6076279Y2739750D01*
X6086866Y2723906D01*
X6102710Y2713319D01*
X6121400Y2709602D01*
X6140090Y2713319D01*
X6155934Y2723906D01*
X6166521Y2739750D01*
X6170238Y2758440D01*
X6166521Y2777130D01*
X6155934Y2792974D01*
X6140090Y2803561D01*
X6121400Y2807278D01*
D02*
G37*
G36*
X4051300Y2720918D02*
X4032610Y2717201D01*
X4016766Y2706614D01*
X4006179Y2690770D01*
X4002462Y2672080D01*
X4006179Y2653390D01*
X4016766Y2637546D01*
X4032610Y2626959D01*
X4051300Y2623242D01*
X4069990Y2626959D01*
X4085834Y2637546D01*
X4096421Y2653390D01*
X4100138Y2672080D01*
X4096421Y2690770D01*
X4085834Y2706614D01*
X4069990Y2717201D01*
X4051300Y2720918D01*
D02*
G37*
G36*
X7747000Y2545658D02*
X7728310Y2541941D01*
X7712466Y2531354D01*
X7707877Y2524485D01*
X7684523D01*
X7679934Y2531354D01*
X7664090Y2541941D01*
X7645400Y2545658D01*
X7626710Y2541941D01*
X7610866Y2531354D01*
X7600279Y2515510D01*
X7596562Y2496820D01*
X7600279Y2478130D01*
X7610866Y2462286D01*
X7626710Y2451699D01*
X7645400Y2447982D01*
X7664090Y2451699D01*
X7679934Y2462286D01*
X7684523Y2469155D01*
X7707877D01*
X7712466Y2462286D01*
X7728310Y2451699D01*
X7747000Y2447982D01*
X7765690Y2451699D01*
X7781534Y2462286D01*
X7792121Y2478130D01*
X7795838Y2496820D01*
X7792121Y2515510D01*
X7781534Y2531354D01*
X7765690Y2541941D01*
X7747000Y2545658D01*
D02*
G37*
G36*
X8661400Y2639638D02*
X8642710Y2635921D01*
X8626866Y2625334D01*
X8616279Y2609490D01*
X8612562Y2590800D01*
X8616279Y2572110D01*
X8626866Y2556266D01*
Y2536434D01*
X8616279Y2520590D01*
X8612562Y2501900D01*
X8616279Y2483210D01*
X8626866Y2467366D01*
X8642710Y2456779D01*
X8661400Y2453062D01*
X8680090Y2456779D01*
X8695934Y2467366D01*
X8706521Y2483210D01*
X8710238Y2501900D01*
X8706521Y2520590D01*
X8695934Y2536434D01*
Y2556266D01*
X8706521Y2572110D01*
X8710238Y2590800D01*
X8706521Y2609490D01*
X8695934Y2625334D01*
X8680090Y2635921D01*
X8661400Y2639638D01*
D02*
G37*
G36*
X7518400Y2563438D02*
X7499710Y2559721D01*
X7483866Y2549134D01*
X7473279Y2533290D01*
X7469562Y2514600D01*
X7473279Y2495910D01*
X7483866Y2480066D01*
Y2457694D01*
X7473279Y2441850D01*
X7469562Y2423160D01*
X7473279Y2404470D01*
X7483866Y2388626D01*
X7499710Y2378039D01*
X7518400Y2374322D01*
X7537090Y2378039D01*
X7552934Y2388626D01*
X7563521Y2404470D01*
X7567238Y2423160D01*
X7563521Y2441850D01*
X7552934Y2457694D01*
Y2480066D01*
X7563521Y2495910D01*
X7567238Y2514600D01*
X7563521Y2533290D01*
X7552934Y2549134D01*
X7537090Y2559721D01*
X7518400Y2563438D01*
D02*
G37*
G36*
X5805200Y2352618D02*
X5786511Y2348901D01*
X5770666Y2338314D01*
X5760079Y2322470D01*
X5756362Y2303780D01*
X5760079Y2285090D01*
X5770666Y2269246D01*
X5786511Y2258659D01*
X5805200Y2254942D01*
X5823890Y2258659D01*
X5839734Y2269246D01*
X5850321Y2285090D01*
X5854039Y2303780D01*
X5850321Y2322470D01*
X5839734Y2338314D01*
X5823890Y2348901D01*
X5805200Y2352618D01*
D02*
G37*
G36*
X5427980D02*
X5409290Y2348901D01*
X5393446Y2338314D01*
X5382859Y2322470D01*
X5379142Y2303780D01*
X5382859Y2285090D01*
X5393446Y2269246D01*
X5409290Y2258659D01*
X5427980Y2254942D01*
X5446670Y2258659D01*
X5462514Y2269246D01*
X5473101Y2285090D01*
X5476818Y2303780D01*
X5473101Y2322470D01*
X5462514Y2338314D01*
X5446670Y2348901D01*
X5427980Y2352618D01*
D02*
G37*
G36*
X7391400Y2411038D02*
X7372710Y2407321D01*
X7356866Y2396734D01*
X7346279Y2380890D01*
X7342562Y2362200D01*
X7346279Y2343510D01*
X7356866Y2327666D01*
X7357220Y2327429D01*
Y2302991D01*
X7356866Y2302754D01*
X7346279Y2286910D01*
X7342562Y2268220D01*
X7346279Y2249530D01*
X7356866Y2233686D01*
X7372710Y2223099D01*
X7391400Y2219382D01*
X7410090Y2223099D01*
X7425934Y2233686D01*
X7436521Y2249530D01*
X7440238Y2268220D01*
X7436521Y2286910D01*
X7425934Y2302754D01*
X7425580Y2302991D01*
Y2327429D01*
X7425934Y2327666D01*
X7436521Y2343510D01*
X7440238Y2362200D01*
X7436521Y2380890D01*
X7425934Y2396734D01*
X7410090Y2407321D01*
X7391400Y2411038D01*
D02*
G37*
G36*
X4927600Y2317058D02*
X4908910Y2313341D01*
X4893066Y2302754D01*
X4882479Y2286910D01*
X4878762Y2268220D01*
X4882479Y2249530D01*
X4893066Y2233686D01*
X4908910Y2223099D01*
X4927600Y2219382D01*
X4946290Y2223099D01*
X4962134Y2233686D01*
X4972721Y2249530D01*
X4976438Y2268220D01*
X4972721Y2286910D01*
X4962134Y2302754D01*
X4946290Y2313341D01*
X4927600Y2317058D01*
D02*
G37*
G36*
X6957060Y2162118D02*
X6938370Y2158401D01*
X6922526Y2147814D01*
X6911939Y2131970D01*
X6908222Y2113280D01*
X6911939Y2094590D01*
X6922526Y2078746D01*
X6938370Y2068159D01*
X6957060Y2064442D01*
X6975750Y2068159D01*
X6991594Y2078746D01*
X7002181Y2094590D01*
X7005898Y2113280D01*
X7002181Y2131970D01*
X6991594Y2147814D01*
X6975750Y2158401D01*
X6957060Y2162118D01*
D02*
G37*
G36*
X6002020D02*
X5983330Y2158401D01*
X5967486Y2147814D01*
X5956899Y2131970D01*
X5953182Y2113280D01*
X5956899Y2094590D01*
X5967486Y2078746D01*
X5983330Y2068159D01*
X6002020Y2064442D01*
X6020710Y2068159D01*
X6036554Y2078746D01*
X6047141Y2094590D01*
X6050858Y2113280D01*
X6047141Y2131970D01*
X6036554Y2147814D01*
X6020710Y2158401D01*
X6002020Y2162118D01*
D02*
G37*
G36*
X4059498Y2055438D02*
X4040809Y2051721D01*
X4024965Y2041134D01*
X4014378Y2025290D01*
X4010660Y2006600D01*
X4014378Y1987910D01*
X4024965Y1972066D01*
X4040809Y1961479D01*
X4059498Y1957762D01*
X4078188Y1961479D01*
X4094032Y1972066D01*
X4104619Y1987910D01*
X4108337Y2006600D01*
X4104619Y2025290D01*
X4094032Y2041134D01*
X4078188Y2051721D01*
X4059498Y2055438D01*
D02*
G37*
G36*
X8229600Y1953838D02*
X8210910Y1950121D01*
X8195066Y1939534D01*
X8175233D01*
X8159389Y1950121D01*
X8140700Y1953838D01*
X8122010Y1950121D01*
X8106166Y1939534D01*
X8095579Y1923690D01*
X8091861Y1905000D01*
X8095579Y1886310D01*
X8106166Y1870466D01*
X8122010Y1859879D01*
X8140700Y1856162D01*
X8159389Y1859879D01*
X8172049Y1868338D01*
X8185066Y1870466D01*
X8185234D01*
X8198251Y1868338D01*
X8210910Y1859879D01*
X8229600Y1856162D01*
X8248290Y1859879D01*
X8264134Y1870466D01*
X8274721Y1886310D01*
X8278438Y1905000D01*
X8274721Y1923690D01*
X8264134Y1939534D01*
X8248290Y1950121D01*
X8229600Y1953838D01*
D02*
G37*
G36*
X7901600D02*
X7882911Y1950121D01*
X7867066Y1939534D01*
X7856479Y1923690D01*
X7852762Y1905000D01*
X7856479Y1886310D01*
X7867066Y1870466D01*
X7882911Y1859879D01*
X7901600Y1856162D01*
X7906332Y1857103D01*
X7923273Y1853253D01*
X7928200Y1842312D01*
X7929872Y1833909D01*
X7940459Y1818065D01*
X7956303Y1807478D01*
X7974992Y1803760D01*
X7993682Y1807478D01*
X8009526Y1818065D01*
X8020113Y1833909D01*
X8023831Y1852599D01*
X8020113Y1871288D01*
X8009526Y1887133D01*
X7993682Y1897720D01*
X7974992Y1901437D01*
X7970261Y1900496D01*
X7953319Y1904345D01*
X7948392Y1915287D01*
X7946721Y1923690D01*
X7936134Y1939534D01*
X7920290Y1950121D01*
X7901600Y1953838D01*
D02*
G37*
G36*
X7327900D02*
X7309210Y1950121D01*
X7293366Y1939534D01*
X7282779Y1923690D01*
X7279062Y1905000D01*
X7282779Y1886310D01*
X7267221Y1873019D01*
X7252726Y1863334D01*
X7242139Y1847490D01*
X7238422Y1828800D01*
X7242139Y1810110D01*
X7252726Y1794266D01*
X7268570Y1783679D01*
X7287260Y1779962D01*
X7305950Y1783679D01*
X7321794Y1794266D01*
X7332381Y1810110D01*
X7336098Y1828800D01*
X7332381Y1847490D01*
X7347939Y1860781D01*
X7362434Y1870466D01*
X7373021Y1886310D01*
X7376738Y1905000D01*
X7373021Y1923690D01*
X7362434Y1939534D01*
X7346590Y1950121D01*
X7327900Y1953838D01*
D02*
G37*
G36*
X7061200Y1877638D02*
X7042510Y1873921D01*
X7026666Y1863334D01*
X7016079Y1847490D01*
X7012362Y1828800D01*
X7016079Y1810110D01*
X7026666Y1794266D01*
X7042510Y1783679D01*
X7061200Y1779962D01*
X7079890Y1783679D01*
X7095734Y1794266D01*
X7106321Y1810110D01*
X7110038Y1828800D01*
X7106321Y1847490D01*
X7095734Y1863334D01*
X7079890Y1873921D01*
X7061200Y1877638D01*
D02*
G37*
G36*
X6002020D02*
X5983330Y1873921D01*
X5967486Y1863334D01*
X5956899Y1847490D01*
X5953182Y1828800D01*
X5956899Y1810110D01*
X5967486Y1794266D01*
X5983330Y1783679D01*
X6002020Y1779962D01*
X6020710Y1783679D01*
X6036554Y1794266D01*
X6047141Y1810110D01*
X6050858Y1828800D01*
X6047141Y1847490D01*
X6036554Y1863334D01*
X6020710Y1873921D01*
X6002020Y1877638D01*
D02*
G37*
G36*
X4927600D02*
X4908910Y1873921D01*
X4893066Y1863334D01*
X4882479Y1847490D01*
X4878762Y1828800D01*
X4882479Y1810110D01*
X4893066Y1794266D01*
X4908910Y1783679D01*
X4927600Y1779962D01*
X4946290Y1783679D01*
X4962134Y1794266D01*
X4972721Y1810110D01*
X4976438Y1828800D01*
X4972721Y1847490D01*
X4962134Y1863334D01*
X4946290Y1873921D01*
X4927600Y1877638D01*
D02*
G37*
G36*
X8699500Y1915738D02*
X8680810Y1912021D01*
X8664966Y1901434D01*
X8654379Y1885590D01*
X8650662Y1866900D01*
X8654379Y1848210D01*
X8664966Y1832366D01*
Y1812534D01*
X8654379Y1796690D01*
X8650662Y1778000D01*
X8654379Y1759310D01*
X8664966Y1743466D01*
X8680810Y1732879D01*
X8699500Y1729162D01*
X8718190Y1732879D01*
X8734034Y1743466D01*
X8744621Y1759310D01*
X8748338Y1778000D01*
X8744621Y1796690D01*
X8734034Y1812534D01*
Y1832366D01*
X8744621Y1848210D01*
X8748338Y1866900D01*
X8744621Y1885590D01*
X8734034Y1901434D01*
X8718190Y1912021D01*
X8699500Y1915738D01*
D02*
G37*
G36*
X3302000Y1776038D02*
X3283310Y1772321D01*
X3267466Y1761734D01*
X3256879Y1745890D01*
X3253162Y1727200D01*
X3256879Y1708510D01*
X3267466Y1692666D01*
X3283310Y1682079D01*
X3302000Y1678362D01*
X3320690Y1682079D01*
X3336534Y1692666D01*
X3347121Y1708510D01*
X3350838Y1727200D01*
X3347121Y1745890D01*
X3336534Y1761734D01*
X3320690Y1772321D01*
X3302000Y1776038D01*
D02*
G37*
G36*
X8890000Y1666818D02*
X8871310Y1663101D01*
X8858651Y1654642D01*
X8845631Y1652514D01*
X8845469D01*
X8832449Y1654642D01*
X8819790Y1663101D01*
X8801100Y1666818D01*
X8782410Y1663101D01*
X8766566Y1652514D01*
X8755979Y1636670D01*
X8752262Y1617980D01*
X8755979Y1599290D01*
X8766566Y1583446D01*
X8782410Y1572859D01*
X8801100Y1569142D01*
X8819790Y1572859D01*
X8832449Y1581318D01*
X8845469Y1583446D01*
X8845631D01*
X8858651Y1581318D01*
X8871310Y1572859D01*
X8890000Y1569142D01*
X8908690Y1572859D01*
X8924534Y1583446D01*
X8935121Y1599290D01*
X8938838Y1617980D01*
X8935121Y1636670D01*
X8924534Y1652514D01*
X8908690Y1663101D01*
X8890000Y1666818D01*
D02*
G37*
G36*
X8039100Y1732376D02*
X8020410Y1728658D01*
X8004566Y1718071D01*
X7993979Y1702227D01*
X7990262Y1683537D01*
X7993979Y1664848D01*
X8004566Y1649003D01*
X8020410Y1638416D01*
X8039100Y1634699D01*
X8057790Y1638416D01*
X8073634Y1649003D01*
X8084221Y1664848D01*
X8087938Y1683537D01*
X8084221Y1702227D01*
X8073634Y1718071D01*
X8057790Y1728658D01*
X8039100Y1732376D01*
D02*
G37*
G36*
X7543800D02*
X7525110Y1728658D01*
X7509266Y1718071D01*
X7498679Y1702227D01*
X7494962Y1683537D01*
X7498679Y1664848D01*
X7509266Y1649003D01*
X7525110Y1638416D01*
X7543800Y1634699D01*
X7562490Y1638416D01*
X7578334Y1649003D01*
X7588921Y1664848D01*
X7592638Y1683537D01*
X7588921Y1702227D01*
X7578334Y1718071D01*
X7562490Y1728658D01*
X7543800Y1732376D01*
D02*
G37*
G36*
X7061200Y1709998D02*
X7042510Y1706281D01*
X7026666Y1695694D01*
X7016079Y1679850D01*
X7012362Y1661160D01*
X7016079Y1642470D01*
X7026666Y1626626D01*
X7042510Y1616039D01*
X7061200Y1612322D01*
X7079890Y1616039D01*
X7095734Y1626626D01*
X7106321Y1642470D01*
X7110038Y1661160D01*
X7106321Y1679850D01*
X7095734Y1695694D01*
X7079890Y1706281D01*
X7061200Y1709998D01*
D02*
G37*
G36*
X5689600D02*
X5670910Y1706281D01*
X5655066Y1695694D01*
X5644479Y1679850D01*
X5640762Y1661160D01*
X5644479Y1642470D01*
X5655066Y1626626D01*
X5670910Y1616039D01*
X5689600Y1612322D01*
X5708290Y1616039D01*
X5724134Y1626626D01*
X5734721Y1642470D01*
X5738438Y1661160D01*
X5734721Y1679850D01*
X5724134Y1695694D01*
X5708290Y1706281D01*
X5689600Y1709998D01*
D02*
G37*
G36*
X4927600D02*
X4908910Y1706281D01*
X4893066Y1695694D01*
X4882479Y1679850D01*
X4878762Y1661160D01*
X4882479Y1642470D01*
X4893066Y1626626D01*
X4908910Y1616039D01*
X4927600Y1612322D01*
X4946290Y1616039D01*
X4962134Y1626626D01*
X4972721Y1642470D01*
X4976438Y1661160D01*
X4972721Y1679850D01*
X4962134Y1695694D01*
X4946290Y1706281D01*
X4927600Y1709998D01*
D02*
G37*
G36*
X4058927Y1892286D02*
X4040238Y1888568D01*
X4024393Y1877982D01*
X4013806Y1862137D01*
X4010089Y1843448D01*
X4013806Y1824758D01*
X4024393Y1808914D01*
X4026926Y1787134D01*
X4016339Y1771290D01*
X4012622Y1752600D01*
X4016339Y1733910D01*
X4026926Y1718066D01*
X4033795Y1713477D01*
Y1690123D01*
X4026926Y1685534D01*
X4016339Y1669690D01*
X4012622Y1651000D01*
X4016339Y1632310D01*
X4026926Y1616466D01*
X4042770Y1605879D01*
X4061460Y1602162D01*
X4080150Y1605879D01*
X4095994Y1616466D01*
X4106581Y1632310D01*
X4110298Y1651000D01*
X4106581Y1669690D01*
X4095994Y1685534D01*
X4089125Y1690123D01*
Y1713477D01*
X4095994Y1718066D01*
X4106581Y1733910D01*
X4110298Y1752600D01*
X4106581Y1771290D01*
X4095994Y1787134D01*
X4093461Y1808914D01*
X4104048Y1824758D01*
X4107765Y1843448D01*
X4104048Y1862137D01*
X4093461Y1877982D01*
X4077617Y1888568D01*
X4058927Y1892286D01*
D02*
G37*
G36*
X8359140Y1656658D02*
X8340450Y1652941D01*
X8324606Y1642354D01*
X8314019Y1626510D01*
X8310302Y1607820D01*
X8314019Y1589130D01*
X8324606Y1573286D01*
X8340450Y1562699D01*
X8359140Y1558982D01*
X8377830Y1562699D01*
X8393674Y1573286D01*
X8404261Y1589130D01*
X8407978Y1607820D01*
X8404261Y1626510D01*
X8393674Y1642354D01*
X8377830Y1652941D01*
X8359140Y1656658D01*
D02*
G37*
G36*
X4927600Y1524578D02*
X4908910Y1520861D01*
X4893066Y1510274D01*
X4882479Y1494430D01*
X4878762Y1475740D01*
X4882479Y1457050D01*
X4893066Y1441206D01*
X4908910Y1430619D01*
X4927600Y1426902D01*
X4946290Y1430619D01*
X4962134Y1441206D01*
X4972721Y1457050D01*
X4976438Y1475740D01*
X4972721Y1494430D01*
X4962134Y1510274D01*
X4946290Y1520861D01*
X4927600Y1524578D01*
D02*
G37*
G36*
X3027680D02*
X3008990Y1520861D01*
X2993146Y1510274D01*
X2982559Y1494430D01*
X2978842Y1475740D01*
X2982559Y1457050D01*
X2993146Y1441206D01*
X3008990Y1430619D01*
X3027680Y1426902D01*
X3046370Y1430619D01*
X3062214Y1441206D01*
X3072801Y1457050D01*
X3076518Y1475740D01*
X3072801Y1494430D01*
X3062214Y1510274D01*
X3046370Y1520861D01*
X3027680Y1524578D01*
D02*
G37*
G36*
X4010660Y1443298D02*
X3991970Y1439581D01*
X3976126Y1428994D01*
X3973349Y1424838D01*
X3948911D01*
X3946134Y1428994D01*
X3930290Y1439581D01*
X3911600Y1443298D01*
X3892910Y1439581D01*
X3877066Y1428994D01*
X3866479Y1413150D01*
X3862762Y1394460D01*
X3866479Y1375770D01*
X3877066Y1359926D01*
X3892910Y1349339D01*
X3911600Y1345622D01*
X3930290Y1349339D01*
X3946134Y1359926D01*
X3948911Y1364082D01*
X3973349D01*
X3976126Y1359926D01*
X3991970Y1349339D01*
X4010660Y1345622D01*
X4029350Y1349339D01*
X4045194Y1359926D01*
X4055781Y1375770D01*
X4059498Y1394460D01*
X4055781Y1413150D01*
X4045194Y1428994D01*
X4029350Y1439581D01*
X4010660Y1443298D01*
D02*
G37*
G36*
X6957060Y1522038D02*
X6938370Y1518321D01*
X6922526Y1507734D01*
X6911939Y1491890D01*
X6908222Y1473200D01*
X6911939Y1454510D01*
X6922526Y1438666D01*
X6938370Y1428079D01*
X6957060Y1424362D01*
X6975750Y1428079D01*
X6991594Y1438666D01*
X7002181Y1454510D01*
X7005898Y1473200D01*
X7002181Y1491890D01*
X6991594Y1507734D01*
X6975750Y1518321D01*
X6957060Y1522038D01*
D02*
G37*
G36*
X5689600D02*
X5670910Y1518321D01*
X5655066Y1507734D01*
X5644479Y1491890D01*
X5640762Y1473200D01*
X5644479Y1454510D01*
X5655066Y1438666D01*
X5670910Y1428079D01*
X5689600Y1424362D01*
X5708290Y1428079D01*
X5724134Y1438666D01*
X5734721Y1454510D01*
X5738438Y1473200D01*
X5734721Y1491890D01*
X5724134Y1507734D01*
X5708290Y1518321D01*
X5689600Y1522038D01*
D02*
G37*
G36*
X7694238Y1331538D02*
X7675549Y1327821D01*
X7659705Y1317234D01*
X7656627Y1312627D01*
X7632212D01*
X7629134Y1317234D01*
X7613290Y1327821D01*
X7594600Y1331538D01*
X7575910Y1327821D01*
X7560066Y1317234D01*
X7549479Y1301390D01*
X7545762Y1282700D01*
X7549479Y1264010D01*
X7560066Y1248166D01*
X7575910Y1237579D01*
X7594600Y1233862D01*
X7613290Y1237579D01*
X7629134Y1248166D01*
X7632212Y1252773D01*
X7656627D01*
X7659705Y1248166D01*
X7675549Y1237579D01*
X7694238Y1233862D01*
X7712928Y1237579D01*
X7728772Y1248166D01*
X7739359Y1264010D01*
X7743077Y1282700D01*
X7739359Y1301390D01*
X7728772Y1317234D01*
X7712928Y1327821D01*
X7694238Y1331538D01*
D02*
G37*
G36*
X6379300Y1365742D02*
X6360610Y1362024D01*
X6344766Y1351437D01*
X6334179Y1335593D01*
X6330462Y1316903D01*
X6334179Y1298214D01*
X6344766Y1282370D01*
X6360610Y1271783D01*
X6379300Y1268065D01*
X6397989Y1271783D01*
X6413834Y1282370D01*
X6424421Y1298214D01*
X6428138Y1316903D01*
X6424421Y1335593D01*
X6413834Y1351437D01*
X6397989Y1362024D01*
X6379300Y1365742D01*
D02*
G37*
G36*
X7351700Y1281068D02*
X7333010Y1277350D01*
X7317166Y1266763D01*
X7313810Y1261740D01*
X7289590D01*
X7286234Y1266763D01*
X7270390Y1277350D01*
X7251700Y1281068D01*
X7233010Y1277350D01*
X7217166Y1266763D01*
X7213810Y1261740D01*
X7189590D01*
X7186234Y1266763D01*
X7170390Y1277350D01*
X7151700Y1281068D01*
X7133010Y1277350D01*
X7117166Y1266763D01*
X7106579Y1250919D01*
X7102862Y1232229D01*
X7106579Y1213540D01*
X7117166Y1197696D01*
X7133010Y1187109D01*
X7151700Y1183391D01*
X7170390Y1187109D01*
X7186234Y1197696D01*
X7189590Y1202719D01*
X7213810D01*
X7217166Y1197696D01*
X7233010Y1187109D01*
X7251700Y1183391D01*
X7270390Y1187109D01*
X7286234Y1197696D01*
X7289590Y1202719D01*
X7313810D01*
X7317166Y1197696D01*
X7333010Y1187109D01*
X7351700Y1183391D01*
X7370390Y1187109D01*
X7386234Y1197696D01*
X7396821Y1213540D01*
X7400538Y1232229D01*
X7396821Y1250919D01*
X7386234Y1266763D01*
X7370390Y1277350D01*
X7351700Y1281068D01*
D02*
G37*
G36*
X6774180Y1341118D02*
X6755490Y1337401D01*
X6739646Y1326814D01*
X6729059Y1310970D01*
X6725342Y1292280D01*
X6729059Y1273591D01*
X6739646Y1257746D01*
X6755490Y1247159D01*
X6774180Y1243442D01*
X6792870Y1247159D01*
X6808714Y1257746D01*
X6819301Y1273591D01*
X6823018Y1292280D01*
X6819301Y1310970D01*
X6808714Y1326814D01*
X6792870Y1337401D01*
X6774180Y1341118D01*
D02*
G37*
G36*
X7351700Y1082538D02*
X7333010Y1078821D01*
X7317166Y1068234D01*
X7313810Y1063210D01*
X7289590D01*
X7286234Y1068234D01*
X7270390Y1078821D01*
X7251700Y1082538D01*
X7233010Y1078821D01*
X7217166Y1068234D01*
X7212783Y1061675D01*
X7189069Y1060590D01*
X7186234Y1064834D01*
X7170390Y1075421D01*
X7151700Y1079138D01*
X7133010Y1075421D01*
X7117166Y1064834D01*
X7106579Y1048990D01*
X7102862Y1030300D01*
X7106579Y1011610D01*
X7117166Y995766D01*
X7133010Y985179D01*
X7151700Y981462D01*
X7170390Y985179D01*
X7186234Y995766D01*
X7190617Y1002325D01*
X7214331Y1003410D01*
X7217166Y999166D01*
X7233010Y988579D01*
X7251700Y984862D01*
X7270390Y988579D01*
X7286234Y999166D01*
X7289590Y1004190D01*
X7313810D01*
X7317166Y999166D01*
X7333010Y988579D01*
X7351700Y984862D01*
X7370390Y988579D01*
X7386234Y999166D01*
X7396821Y1015010D01*
X7400538Y1033700D01*
X7396821Y1052390D01*
X7386234Y1068234D01*
X7370390Y1078821D01*
X7351700Y1082538D01*
D02*
G37*
G36*
X7683500Y1179138D02*
X7664810Y1175421D01*
X7648966Y1164834D01*
X7638379Y1148990D01*
X7634662Y1130300D01*
X7638379Y1111610D01*
X7648966Y1095766D01*
X7651281Y1094220D01*
Y1069780D01*
X7648966Y1068234D01*
X7638379Y1052390D01*
X7634662Y1033700D01*
X7638379Y1015010D01*
X7648966Y999166D01*
X7664810Y988579D01*
X7683500Y984862D01*
X7702190Y988579D01*
X7718034Y999166D01*
X7728621Y1015010D01*
X7732338Y1033700D01*
X7728621Y1052390D01*
X7718034Y1068234D01*
X7715719Y1069780D01*
Y1094220D01*
X7718034Y1095766D01*
X7728621Y1111610D01*
X7732338Y1130300D01*
X7728621Y1148990D01*
X7718034Y1164834D01*
X7702190Y1175421D01*
X7683500Y1179138D01*
D02*
G37*
G36*
X7995920Y721938D02*
X7977230Y718221D01*
X7961386Y707634D01*
X7950799Y691790D01*
X7947082Y673100D01*
X7950799Y654410D01*
X7961386Y638566D01*
X7977230Y627979D01*
X7995920Y624262D01*
X8014610Y627979D01*
X8030454Y638566D01*
X8041041Y654410D01*
X8044758Y673100D01*
X8041041Y691790D01*
X8030454Y707634D01*
X8014610Y718221D01*
X7995920Y721938D01*
D02*
G37*
G36*
X7251700D02*
X7233010Y718221D01*
X7217166Y707634D01*
X7206579Y691790D01*
X7202862Y673100D01*
X7206579Y654410D01*
X7217166Y638566D01*
X7233010Y627979D01*
X7251700Y624262D01*
X7270390Y627979D01*
X7286234Y638566D01*
X7296821Y654410D01*
X7300538Y673100D01*
X7296821Y691790D01*
X7286234Y707634D01*
X7270390Y718221D01*
X7251700Y721938D01*
D02*
G37*
G36*
X8500000Y826406D02*
X8448939Y822387D01*
X8399135Y810431D01*
X8351815Y790830D01*
X8308143Y764068D01*
X8269196Y730804D01*
X8235932Y691857D01*
X8209170Y648185D01*
X8189569Y600865D01*
X8177613Y551061D01*
X8173594Y500000D01*
X8177613Y448939D01*
X8189569Y399135D01*
X8209170Y351815D01*
X8235932Y308143D01*
X8269196Y269196D01*
X8308143Y235932D01*
X8351815Y209170D01*
X8399135Y189569D01*
X8448939Y177613D01*
X8500000Y173594D01*
X8551061Y177613D01*
X8600865Y189569D01*
X8648185Y209170D01*
X8691857Y235932D01*
X8730804Y269196D01*
X8764068Y308143D01*
X8790830Y351815D01*
X8810431Y399135D01*
X8822387Y448939D01*
X8826406Y500000D01*
X8822387Y551061D01*
X8810431Y600865D01*
X8790830Y648185D01*
X8764068Y691857D01*
X8730804Y730804D01*
X8691857Y764068D01*
X8648185Y790830D01*
X8600865Y810431D01*
X8551061Y822387D01*
X8500000Y826406D01*
D02*
G37*
G36*
X7638379Y203778D02*
X7619690Y200061D01*
X7603845Y189474D01*
X7593258Y173630D01*
X7589541Y154940D01*
X7593258Y136250D01*
X7603845Y120406D01*
X7619690Y109819D01*
X7638379Y106102D01*
X7657069Y109819D01*
X7672913Y120406D01*
X7683500Y136250D01*
X7687218Y154940D01*
X7683500Y173630D01*
X7672913Y189474D01*
X7657069Y200061D01*
X7638379Y203778D01*
D02*
G37*
G36*
X2481200Y5229179D02*
Y5029200D01*
X2681179D01*
X2678320Y5058236D01*
X2666146Y5098368D01*
X2646376Y5135353D01*
X2619771Y5167771D01*
X2587353Y5194376D01*
X2550368Y5214146D01*
X2510236Y5226319D01*
X2481200Y5229179D01*
D02*
G37*
G36*
X2681179Y5003800D02*
X2481200D01*
Y4803821D01*
X2510236Y4806681D01*
X2550368Y4818854D01*
X2587353Y4838624D01*
X2619771Y4865229D01*
X2646376Y4897647D01*
X2666146Y4934632D01*
X2678320Y4974764D01*
X2681179Y5003800D01*
D02*
G37*
G36*
X2578100Y3853063D02*
X2559410Y3849346D01*
X2543566Y3838759D01*
X2532979Y3822915D01*
X2529262Y3804225D01*
X2532979Y3785535D01*
X2543566Y3769691D01*
X2559410Y3759104D01*
X2578100Y3755387D01*
X2596790Y3759104D01*
X2612634Y3769691D01*
X2623221Y3785535D01*
X2626938Y3804225D01*
X2623221Y3822915D01*
X2612634Y3838759D01*
X2596790Y3849346D01*
X2578100Y3853063D01*
D02*
G37*
G36*
X2794000Y3096838D02*
X2775310Y3093121D01*
X2759466Y3082534D01*
X2748879Y3066690D01*
X2745162Y3048000D01*
X2748879Y3029310D01*
X2759466Y3013466D01*
X2775310Y3002879D01*
X2794000Y2999162D01*
X2812690Y3002879D01*
X2828534Y3013466D01*
X2839121Y3029310D01*
X2842838Y3048000D01*
X2839121Y3066690D01*
X2828534Y3082534D01*
X2812690Y3093121D01*
X2794000Y3096838D01*
D02*
G37*
G36*
X2446020Y2916498D02*
X2427330Y2912781D01*
X2411486Y2902194D01*
X2400899Y2886350D01*
X2397182Y2867660D01*
X2400899Y2848970D01*
X2411486Y2833126D01*
X2427330Y2822539D01*
X2446020Y2818822D01*
X2464710Y2822539D01*
X2480554Y2833126D01*
X2491141Y2848970D01*
X2494858Y2867660D01*
X2491141Y2886350D01*
X2480554Y2902194D01*
X2464710Y2912781D01*
X2446020Y2916498D01*
D02*
G37*
G36*
X2311400D02*
X2292710Y2912781D01*
X2276866Y2902194D01*
X2266279Y2886350D01*
X2262562Y2867660D01*
X2266279Y2848970D01*
X2276866Y2833126D01*
X2292710Y2822539D01*
X2311400Y2818822D01*
X2330090Y2822539D01*
X2345934Y2833126D01*
X2356521Y2848970D01*
X2360238Y2867660D01*
X2356521Y2886350D01*
X2345934Y2902194D01*
X2330090Y2912781D01*
X2311400Y2916498D01*
D02*
G37*
G36*
X2794000Y2690438D02*
X2775310Y2686721D01*
X2759466Y2676134D01*
X2748879Y2660290D01*
X2745162Y2641600D01*
X2748879Y2622910D01*
X2759466Y2607066D01*
X2775310Y2596479D01*
X2794000Y2592762D01*
X2812690Y2596479D01*
X2828534Y2607066D01*
X2839121Y2622910D01*
X2842838Y2641600D01*
X2839121Y2660290D01*
X2828534Y2676134D01*
X2812690Y2686721D01*
X2794000Y2690438D01*
D02*
G37*
G36*
X2527300Y2461838D02*
X2508610Y2458121D01*
X2492766Y2447534D01*
X2482179Y2431690D01*
X2478462Y2413000D01*
X2482179Y2394310D01*
X2492766Y2378466D01*
X2508610Y2367879D01*
X2527300Y2364162D01*
X2545990Y2367879D01*
X2561834Y2378466D01*
X2572421Y2394310D01*
X2576138Y2413000D01*
X2572421Y2431690D01*
X2561834Y2447534D01*
X2545990Y2458121D01*
X2527300Y2461838D01*
D02*
G37*
G36*
X2032000D02*
X2013310Y2458121D01*
X1997466Y2447534D01*
X1986879Y2431690D01*
X1983162Y2413000D01*
X1986879Y2394310D01*
X1997466Y2378466D01*
X2013310Y2367879D01*
X2032000Y2364162D01*
X2050690Y2367879D01*
X2066534Y2378466D01*
X2077121Y2394310D01*
X2080838Y2413000D01*
X2077121Y2431690D01*
X2066534Y2447534D01*
X2050690Y2458121D01*
X2032000Y2461838D01*
D02*
G37*
G36*
X2527300Y2334838D02*
X2508610Y2331121D01*
X2492766Y2320534D01*
X2482179Y2304690D01*
X2478462Y2286000D01*
X2482179Y2267310D01*
X2492766Y2251466D01*
X2508610Y2240879D01*
X2527300Y2237162D01*
X2545990Y2240879D01*
X2561834Y2251466D01*
X2572421Y2267310D01*
X2576138Y2286000D01*
X2572421Y2304690D01*
X2561834Y2320534D01*
X2545990Y2331121D01*
X2527300Y2334838D01*
D02*
G37*
G36*
X1524000Y1953838D02*
X1505310Y1950121D01*
X1489466Y1939534D01*
X1478879Y1923690D01*
X1475162Y1905000D01*
X1478879Y1886310D01*
X1489466Y1870466D01*
X1505310Y1859879D01*
X1524000Y1856162D01*
X1542690Y1859879D01*
X1558534Y1870466D01*
X1569121Y1886310D01*
X1572838Y1905000D01*
X1569121Y1923690D01*
X1558534Y1939534D01*
X1542690Y1950121D01*
X1524000Y1953838D01*
D02*
G37*
G36*
X889000D02*
X870310Y1950121D01*
X854466Y1939534D01*
X843879Y1923690D01*
X840162Y1905000D01*
X843879Y1886310D01*
X854466Y1870466D01*
X870310Y1859879D01*
X889000Y1856162D01*
X907690Y1859879D01*
X923534Y1870466D01*
X934121Y1886310D01*
X937838Y1905000D01*
X934121Y1923690D01*
X923534Y1939534D01*
X907690Y1950121D01*
X889000Y1953838D01*
D02*
G37*
G36*
X381000D02*
X362310Y1950121D01*
X346466Y1939534D01*
X335879Y1923690D01*
X332162Y1905000D01*
X335879Y1886310D01*
X346466Y1870466D01*
X362310Y1859879D01*
X381000Y1856162D01*
X399690Y1859879D01*
X415534Y1870466D01*
X426121Y1886310D01*
X429838Y1905000D01*
X426121Y1923690D01*
X415534Y1939534D01*
X399690Y1950121D01*
X381000Y1953838D01*
D02*
G37*
G36*
X197650Y1893981D02*
X169483Y1890273D01*
X143235Y1879401D01*
X120695Y1862105D01*
X103400Y1839566D01*
X92527Y1813318D01*
X88819Y1785150D01*
X92527Y1756983D01*
X103400Y1730735D01*
X120695Y1708195D01*
X143235Y1690900D01*
X169483Y1680027D01*
X197650Y1676319D01*
X225818Y1680027D01*
X252066Y1690900D01*
X274605Y1708195D01*
X291901Y1730735D01*
X302773Y1756983D01*
X306481Y1785150D01*
X302773Y1813318D01*
X291901Y1839566D01*
X274605Y1862105D01*
X252066Y1879401D01*
X225818Y1890273D01*
X197650Y1893981D01*
D02*
G37*
G36*
X889000Y1699838D02*
X870310Y1696121D01*
X854466Y1685534D01*
X843879Y1669690D01*
X840162Y1651000D01*
X843879Y1632310D01*
X854466Y1616466D01*
X870310Y1605879D01*
X889000Y1602162D01*
X907690Y1605879D01*
X923534Y1616466D01*
X934121Y1632310D01*
X937838Y1651000D01*
X934121Y1669690D01*
X923534Y1685534D01*
X907690Y1696121D01*
X889000Y1699838D01*
D02*
G37*
G36*
X381000D02*
X362310Y1696121D01*
X346466Y1685534D01*
X335879Y1669690D01*
X332162Y1651000D01*
X335879Y1632310D01*
X346466Y1616466D01*
X362310Y1605879D01*
X381000Y1602162D01*
X399690Y1605879D01*
X415534Y1616466D01*
X426121Y1632310D01*
X429838Y1651000D01*
X426121Y1669690D01*
X415534Y1685534D01*
X399690Y1696121D01*
X381000Y1699838D01*
D02*
G37*
G36*
X197650Y1639981D02*
X169483Y1636273D01*
X143235Y1625401D01*
X120695Y1608105D01*
X103400Y1585566D01*
X92527Y1559318D01*
X88819Y1531150D01*
X92527Y1502983D01*
X103400Y1476735D01*
X120695Y1454195D01*
X143235Y1436900D01*
X169483Y1426027D01*
X197650Y1422319D01*
X225818Y1426027D01*
X252066Y1436900D01*
X274605Y1454195D01*
X291901Y1476735D01*
X302773Y1502983D01*
X306481Y1531150D01*
X302773Y1559318D01*
X291901Y1585566D01*
X274605Y1608105D01*
X252066Y1625401D01*
X225818Y1636273D01*
X197650Y1639981D01*
D02*
G37*
G36*
X889000Y1445838D02*
X870310Y1442121D01*
X854466Y1431534D01*
X843879Y1415690D01*
X840162Y1397000D01*
X843879Y1378310D01*
X854466Y1362466D01*
X870310Y1351879D01*
X889000Y1348162D01*
X907690Y1351879D01*
X923534Y1362466D01*
X934121Y1378310D01*
X937838Y1397000D01*
X934121Y1415690D01*
X923534Y1431534D01*
X907690Y1442121D01*
X889000Y1445838D01*
D02*
G37*
G36*
X381000D02*
X362310Y1442121D01*
X346466Y1431534D01*
X335879Y1415690D01*
X332162Y1397000D01*
X335879Y1378310D01*
X346466Y1362466D01*
X362310Y1351879D01*
X381000Y1348162D01*
X399690Y1351879D01*
X415534Y1362466D01*
X426121Y1378310D01*
X429838Y1397000D01*
X426121Y1415690D01*
X415534Y1431534D01*
X399690Y1442121D01*
X381000Y1445838D01*
D02*
G37*
G36*
X197650Y1385981D02*
X169483Y1382273D01*
X143235Y1371401D01*
X120695Y1354105D01*
X103400Y1331566D01*
X92527Y1305318D01*
X88819Y1277150D01*
X92527Y1248983D01*
X103400Y1222735D01*
X120695Y1200195D01*
X143235Y1182900D01*
X169483Y1172027D01*
X197650Y1168319D01*
X225818Y1172027D01*
X252066Y1182900D01*
X274605Y1200195D01*
X291901Y1222735D01*
X302773Y1248983D01*
X306481Y1277150D01*
X302773Y1305318D01*
X291901Y1331566D01*
X274605Y1354105D01*
X252066Y1371401D01*
X225818Y1382273D01*
X197650Y1385981D01*
D02*
G37*
G36*
Y1131981D02*
X169483Y1128273D01*
X143235Y1117401D01*
X120695Y1100105D01*
X103400Y1077566D01*
X92527Y1051318D01*
X88819Y1023150D01*
X92527Y994983D01*
X103400Y968735D01*
X120695Y946195D01*
X143235Y928900D01*
X169483Y918027D01*
X197650Y914319D01*
X225818Y918027D01*
X252066Y928900D01*
X274605Y946195D01*
X291901Y968735D01*
X302773Y994983D01*
X306481Y1023150D01*
X302773Y1051318D01*
X291901Y1077566D01*
X274605Y1100105D01*
X252066Y1117401D01*
X225818Y1128273D01*
X197650Y1131981D01*
D02*
G37*
G36*
X4163060Y648278D02*
X4144370Y644561D01*
X4128526Y633974D01*
X4117939Y618130D01*
X4114222Y599440D01*
X4117939Y580750D01*
X4128526Y564906D01*
X4144370Y554319D01*
X4163060Y550602D01*
X4181750Y554319D01*
X4197594Y564906D01*
X4208181Y580750D01*
X4211898Y599440D01*
X4208181Y618130D01*
X4197594Y633974D01*
X4181750Y644561D01*
X4163060Y648278D01*
D02*
G37*
G36*
X5054600Y328238D02*
X5035910Y324521D01*
X5020066Y313934D01*
X5009479Y298090D01*
X5005762Y279400D01*
X5009479Y260710D01*
X5020066Y244866D01*
X5035910Y234279D01*
X5054600Y230562D01*
X5073290Y234279D01*
X5089134Y244866D01*
X5099721Y260710D01*
X5103438Y279400D01*
X5099721Y298090D01*
X5089134Y313934D01*
X5073290Y324521D01*
X5054600Y328238D01*
D02*
G37*
G36*
X1778000Y277438D02*
X1759310Y273721D01*
X1743466Y263134D01*
X1732879Y247290D01*
X1729162Y228600D01*
X1732879Y209910D01*
X1743466Y194066D01*
X1759310Y183479D01*
X1778000Y179762D01*
X1796690Y183479D01*
X1812534Y194066D01*
X1823121Y209910D01*
X1826838Y228600D01*
X1823121Y247290D01*
X1812534Y263134D01*
X1796690Y273721D01*
X1778000Y277438D01*
D02*
G37*
G36*
X500000Y826406D02*
X448939Y822387D01*
X399135Y810431D01*
X351815Y790830D01*
X308143Y764068D01*
X269196Y730804D01*
X235932Y691857D01*
X209170Y648185D01*
X189569Y600865D01*
X177613Y551061D01*
X173594Y500000D01*
X177613Y448939D01*
X189569Y399135D01*
X209170Y351815D01*
X235932Y308143D01*
X269196Y269196D01*
X308143Y235932D01*
X351815Y209170D01*
X399135Y189569D01*
X448939Y177613D01*
X500000Y173594D01*
X551061Y177613D01*
X600865Y189569D01*
X648185Y209170D01*
X691857Y235932D01*
X730804Y269196D01*
X764068Y308143D01*
X790830Y351815D01*
X810431Y399135D01*
X822387Y448939D01*
X826406Y500000D01*
X822387Y551061D01*
X810431Y600865D01*
X790830Y648185D01*
X764068Y691857D01*
X730804Y730804D01*
X691857Y764068D01*
X648185Y790830D01*
X600865Y810431D01*
X551061Y822387D01*
X500000Y826406D01*
D02*
G37*
G36*
X6807200Y258008D02*
X6788510Y254291D01*
X6772666Y243704D01*
X6762079Y227860D01*
X6758362Y209170D01*
X6762079Y190480D01*
X6772666Y174636D01*
X6788510Y164049D01*
X6807200Y160332D01*
X6825890Y164049D01*
X6841734Y174636D01*
X6852321Y190480D01*
X6856038Y209170D01*
X6852321Y227860D01*
X6841734Y243704D01*
X6825890Y254291D01*
X6807200Y258008D01*
D02*
G37*
G36*
X177800Y5408238D02*
X159110Y5404521D01*
X143266Y5393934D01*
X132679Y5378090D01*
X128962Y5359400D01*
X132679Y5340710D01*
X143266Y5324866D01*
X159110Y5314279D01*
X177800Y5310562D01*
X196490Y5314279D01*
X212334Y5324866D01*
X222921Y5340710D01*
X226638Y5359400D01*
X222921Y5378090D01*
X212334Y5393934D01*
X196490Y5404521D01*
X177800Y5408238D01*
D02*
G37*
G36*
X1981200Y5229179D02*
Y5029200D01*
X2181179D01*
X2178319Y5058236D01*
X2166146Y5098368D01*
X2146376Y5135353D01*
X2119771Y5167771D01*
X2087353Y5194376D01*
X2050368Y5214146D01*
X2010236Y5226319D01*
X1981200Y5229179D01*
D02*
G37*
G36*
X1955800D02*
X1926764Y5226319D01*
X1886632Y5214146D01*
X1849647Y5194376D01*
X1817229Y5167771D01*
X1790624Y5135353D01*
X1770854Y5098368D01*
X1758681Y5058236D01*
X1755821Y5029200D01*
X1955800D01*
Y5229179D01*
D02*
G37*
G36*
X2181179Y5003800D02*
X1981200D01*
Y4803821D01*
X2010236Y4806681D01*
X2050368Y4818854D01*
X2087353Y4838624D01*
X2119771Y4865229D01*
X2146376Y4897647D01*
X2166146Y4934632D01*
X2178319Y4974764D01*
X2181179Y5003800D01*
D02*
G37*
G36*
X1955800D02*
X1755821D01*
X1758681Y4974764D01*
X1770854Y4934632D01*
X1790624Y4897647D01*
X1817229Y4865229D01*
X1849647Y4838624D01*
X1886632Y4818854D01*
X1926764Y4806681D01*
X1955800Y4803821D01*
Y5003800D01*
D02*
G37*
G36*
X1336639Y4811338D02*
X1317950Y4807621D01*
X1302106Y4797034D01*
X1291519Y4781190D01*
X1287801Y4762500D01*
X1291519Y4743810D01*
X1302106Y4727966D01*
X1317950Y4717379D01*
X1336639Y4713662D01*
X1355329Y4717379D01*
X1371173Y4727966D01*
X1381760Y4743810D01*
X1385478Y4762500D01*
X1381760Y4781190D01*
X1371173Y4797034D01*
X1355329Y4807621D01*
X1336639Y4811338D01*
D02*
G37*
G36*
X500000Y5326406D02*
X448939Y5322387D01*
X399135Y5310431D01*
X351815Y5290830D01*
X308143Y5264068D01*
X269196Y5230804D01*
X235932Y5191857D01*
X209170Y5148185D01*
X189569Y5100865D01*
X177613Y5051061D01*
X173594Y5000000D01*
X177613Y4948939D01*
X189569Y4899135D01*
X209170Y4851815D01*
X235932Y4808143D01*
X269196Y4769196D01*
X308143Y4735932D01*
X351815Y4709170D01*
X399135Y4689569D01*
X448939Y4677612D01*
X500000Y4673594D01*
X551061Y4677612D01*
X600865Y4689569D01*
X648185Y4709170D01*
X691857Y4735932D01*
X730804Y4769196D01*
X764068Y4808143D01*
X790830Y4851815D01*
X810431Y4899135D01*
X822387Y4948939D01*
X826406Y5000000D01*
X822387Y5051061D01*
X810431Y5100865D01*
X790830Y5148185D01*
X764068Y5191857D01*
X730804Y5230804D01*
X691857Y5264068D01*
X648185Y5290830D01*
X600865Y5310431D01*
X551061Y5322387D01*
X500000Y5326406D01*
D02*
G37*
G36*
X1860910Y4450059D02*
X1842221Y4446342D01*
X1826377Y4435755D01*
X1815790Y4419910D01*
X1812072Y4401221D01*
X1815790Y4382531D01*
X1826377Y4366687D01*
X1842221Y4356100D01*
X1860910Y4352382D01*
X1879600Y4356100D01*
X1895444Y4366687D01*
X1906031Y4382531D01*
X1909749Y4401221D01*
X1906031Y4419910D01*
X1895444Y4435755D01*
X1879600Y4446342D01*
X1860910Y4450059D01*
D02*
G37*
G36*
X508000Y4433779D02*
Y4233800D01*
X707979D01*
X705119Y4262836D01*
X692946Y4302968D01*
X673176Y4339953D01*
X646571Y4372371D01*
X614153Y4398976D01*
X577168Y4418746D01*
X537036Y4430920D01*
X508000Y4433779D01*
D02*
G37*
G36*
X482600D02*
X453564Y4430920D01*
X413432Y4418746D01*
X376447Y4398976D01*
X344029Y4372371D01*
X317424Y4339953D01*
X297654Y4302968D01*
X285481Y4262836D01*
X282621Y4233800D01*
X482600D01*
Y4433779D01*
D02*
G37*
G36*
X2133600Y4176338D02*
X2114910Y4172621D01*
X2099066Y4162034D01*
X2088479Y4146190D01*
X2084762Y4127500D01*
X2088479Y4108810D01*
X2099066Y4092966D01*
X2114910Y4082379D01*
X2133600Y4078662D01*
X2152290Y4082379D01*
X2168134Y4092966D01*
X2178721Y4108810D01*
X2182438Y4127500D01*
X2178721Y4146190D01*
X2168134Y4162034D01*
X2152290Y4172621D01*
X2133600Y4176338D01*
D02*
G37*
G36*
X707979Y4208400D02*
X508000D01*
Y4008421D01*
X537036Y4011281D01*
X577168Y4023454D01*
X614153Y4043224D01*
X646571Y4069829D01*
X673176Y4102247D01*
X692946Y4139233D01*
X705119Y4179364D01*
X707979Y4208400D01*
D02*
G37*
G36*
X482600D02*
X282621D01*
X285481Y4179364D01*
X297654Y4139233D01*
X317424Y4102247D01*
X344029Y4069829D01*
X376447Y4043224D01*
X413432Y4023454D01*
X453564Y4011281D01*
X482600Y4008421D01*
Y4208400D01*
D02*
G37*
G36*
X495300Y3935030D02*
X453564Y3930919D01*
X413432Y3918746D01*
X376447Y3898976D01*
X344029Y3872371D01*
X317424Y3839953D01*
X297654Y3802968D01*
X285481Y3762836D01*
X281370Y3721100D01*
X285481Y3679364D01*
X297654Y3639232D01*
X317424Y3602247D01*
X344029Y3569829D01*
X376447Y3543224D01*
X413432Y3523454D01*
X453564Y3511281D01*
X495300Y3507170D01*
X537036Y3511281D01*
X577168Y3523454D01*
X614153Y3543224D01*
X646571Y3569829D01*
X673176Y3602247D01*
X692946Y3639232D01*
X705119Y3679364D01*
X709230Y3721100D01*
X705119Y3762836D01*
X692946Y3802968D01*
X673176Y3839953D01*
X646571Y3872371D01*
X614153Y3898976D01*
X577168Y3918746D01*
X537036Y3930919D01*
X495300Y3935030D01*
D02*
G37*
G36*
X1754570Y3544538D02*
X1735880Y3540821D01*
X1720036Y3530234D01*
X1709449Y3514389D01*
X1705731Y3495700D01*
X1709449Y3477010D01*
X1713343Y3471183D01*
X1712944Y3468361D01*
X1698230Y3451804D01*
X1697195Y3451925D01*
X1684930Y3460121D01*
X1666240Y3463838D01*
X1647550Y3460121D01*
X1631706Y3449534D01*
X1621119Y3433690D01*
X1617402Y3415000D01*
X1621119Y3396310D01*
X1631706Y3380466D01*
X1647550Y3369879D01*
X1666240Y3366162D01*
X1684930Y3369879D01*
X1697195Y3378075D01*
X1710405Y3379619D01*
X1723615Y3378075D01*
X1735880Y3369879D01*
X1754570Y3366162D01*
X1773259Y3369879D01*
X1789104Y3380466D01*
X1799691Y3396310D01*
X1803408Y3415000D01*
X1799691Y3433690D01*
X1795020Y3440680D01*
X1790783Y3455350D01*
X1795020Y3470020D01*
X1799691Y3477010D01*
X1803408Y3495700D01*
X1799691Y3514389D01*
X1789104Y3530234D01*
X1773259Y3540821D01*
X1754570Y3544538D01*
D02*
G37*
G36*
X1729740Y3269558D02*
X1711050Y3265841D01*
X1698391Y3257382D01*
X1685371Y3255254D01*
X1685209D01*
X1672189Y3257382D01*
X1659530Y3265841D01*
X1640840Y3269558D01*
X1622150Y3265841D01*
X1606306Y3255254D01*
X1595719Y3239410D01*
X1592002Y3220720D01*
X1595719Y3202030D01*
X1601397Y3193533D01*
X1587091Y3179226D01*
X1585641Y3179622D01*
X1578250Y3184561D01*
X1559560Y3188278D01*
X1540870Y3184561D01*
X1525026Y3173974D01*
X1514439Y3158130D01*
X1510722Y3139440D01*
X1514439Y3120750D01*
X1525026Y3104906D01*
X1540870Y3094319D01*
X1559560Y3090602D01*
X1578250Y3094319D01*
X1585641Y3099258D01*
X1600200Y3103237D01*
X1614759Y3099258D01*
X1622150Y3094319D01*
X1640840Y3090602D01*
X1659530Y3094319D01*
X1675374Y3104906D01*
X1685961Y3120750D01*
X1689678Y3139440D01*
X1685961Y3158130D01*
X1683026Y3162523D01*
X1690208Y3181657D01*
X1695694Y3184499D01*
X1698391Y3184058D01*
X1711050Y3175599D01*
X1729740Y3171882D01*
X1748430Y3175599D01*
X1764274Y3186186D01*
X1774861Y3202030D01*
X1778578Y3220720D01*
X1774861Y3239410D01*
X1764274Y3255254D01*
X1748430Y3265841D01*
X1729740Y3269558D01*
D02*
G37*
G36*
X508000Y3324179D02*
Y3124200D01*
X707979D01*
X705119Y3153236D01*
X692946Y3193368D01*
X673176Y3230353D01*
X646571Y3262771D01*
X614153Y3289376D01*
X577168Y3309146D01*
X537036Y3321319D01*
X508000Y3324179D01*
D02*
G37*
G36*
X482600D02*
X453564Y3321319D01*
X413432Y3309146D01*
X376447Y3289376D01*
X344029Y3262771D01*
X317424Y3230353D01*
X297654Y3193368D01*
X285481Y3153236D01*
X282621Y3124200D01*
X482600D01*
Y3324179D01*
D02*
G37*
G36*
X707979Y3098800D02*
X508000D01*
Y2898821D01*
X537036Y2901681D01*
X577168Y2913854D01*
X614153Y2933624D01*
X646571Y2960229D01*
X673176Y2992647D01*
X692946Y3029632D01*
X705119Y3069764D01*
X707979Y3098800D01*
D02*
G37*
G36*
X482600D02*
X282621D01*
X285481Y3069764D01*
X297654Y3029632D01*
X317424Y2992647D01*
X344029Y2960229D01*
X376447Y2933624D01*
X413432Y2913854D01*
X453564Y2901681D01*
X482600Y2898821D01*
Y3098800D01*
D02*
G37*
G36*
X1193800Y2563438D02*
X1175110Y2559721D01*
X1159266Y2549134D01*
X1148679Y2533290D01*
X1144962Y2514600D01*
X1148679Y2495910D01*
X1159266Y2480066D01*
X1175110Y2469479D01*
X1193800Y2465762D01*
X1212490Y2469479D01*
X1228334Y2480066D01*
X1238921Y2495910D01*
X1242638Y2514600D01*
X1238921Y2533290D01*
X1228334Y2549134D01*
X1212490Y2559721D01*
X1193800Y2563438D01*
D02*
G37*
G36*
X495300Y2825430D02*
X453564Y2821319D01*
X413432Y2809146D01*
X376447Y2789376D01*
X344029Y2762771D01*
X317424Y2730353D01*
X297654Y2693367D01*
X285481Y2653236D01*
X281370Y2611500D01*
X285481Y2569764D01*
X297654Y2529632D01*
X317424Y2492647D01*
X344029Y2460229D01*
X376447Y2433624D01*
X413432Y2413854D01*
X453564Y2401680D01*
X495300Y2397570D01*
X537036Y2401680D01*
X577168Y2413854D01*
X614153Y2433624D01*
X646571Y2460229D01*
X673176Y2492647D01*
X692946Y2529632D01*
X705119Y2569764D01*
X709230Y2611500D01*
X705119Y2653236D01*
X692946Y2693367D01*
X673176Y2730353D01*
X646571Y2762771D01*
X614153Y2789376D01*
X577168Y2809146D01*
X537036Y2821319D01*
X495300Y2825430D01*
D02*
G37*
%LPD*%
D45*
X7929660Y3049240D02*
D03*
Y3191480D02*
D03*
X8074440Y2907000D02*
D03*
Y3191480D02*
D03*
Y3333720D02*
D03*
Y3051780D02*
D03*
X8211600Y3191480D02*
D03*
X8214140Y2907000D02*
D03*
Y3049240D02*
D03*
Y3333720D02*
D03*
X8356380Y3049240D02*
D03*
Y3191480D02*
D03*
D46*
X197650Y1277150D02*
D03*
Y1531150D02*
D03*
Y1785150D02*
D03*
Y1023150D02*
D03*
X5554980Y5232400D02*
D03*
X5300980D02*
D03*
X5808980D02*
D03*
X6062980D02*
D03*
D47*
X197650Y2039150D02*
D03*
D48*
X4695450Y152400D02*
D03*
X3905450D02*
D03*
D49*
X8500000Y500000D02*
D03*
X500000D02*
D03*
Y5000000D02*
D03*
D50*
X7519610Y5303520D02*
D03*
X7773610D02*
D03*
X8027610D02*
D03*
X8281610D02*
D03*
X8535610D02*
D03*
D51*
X8789610D02*
D03*
D52*
X1968500Y5016500D02*
D03*
X2468500D02*
D03*
X495300Y3111500D02*
D03*
Y2611500D02*
D03*
Y4221100D02*
D03*
Y3721100D02*
D03*
D53*
X6316980Y5232400D02*
D03*
D54*
X2679700Y1879600D02*
D03*
X2895600Y2209800D02*
D03*
X8572500Y3644900D02*
D03*
X8890000Y1617980D02*
D03*
X7287260Y1828800D02*
D03*
X7327900Y1905000D02*
D03*
X7974992Y1852599D02*
D03*
X7594600Y1282700D02*
D03*
X7683500Y1033700D02*
D03*
X6997700Y3644900D02*
D03*
X8201660Y4826000D02*
D03*
X7962900D02*
D03*
Y4084300D02*
D03*
X7835900D02*
D03*
X6883400Y4470400D02*
D03*
X6477000Y4993640D02*
D03*
X6680200Y4470400D02*
D03*
X6426200D02*
D03*
X6146800D02*
D03*
X6197600Y4993640D02*
D03*
X5943600D02*
D03*
X5696310D02*
D03*
X177800Y5359400D02*
D03*
X1778000Y228600D02*
D03*
X5054600Y279400D02*
D03*
X7518400Y4025336D02*
D03*
X7442200Y4084300D02*
D03*
X7707333Y4084592D02*
D03*
X8384166Y2692400D02*
D03*
X8661400Y2590800D02*
D03*
X7251700Y673100D02*
D03*
X7569200Y3073400D02*
D03*
X6379300Y3772398D02*
D03*
X3632200Y2819400D02*
D03*
X2578100Y3804225D02*
D03*
X5054600Y2794000D02*
D03*
X2794000Y2641600D02*
D03*
X4927600Y2268220D02*
D03*
X4059498Y2006600D02*
D03*
X3302000Y1727200D02*
D03*
X3911600Y1394460D02*
D03*
X4058927Y1843448D02*
D03*
X4061460Y1651000D02*
D03*
X4927600Y1475740D02*
D03*
Y1661160D02*
D03*
Y1828800D02*
D03*
X6002020D02*
D03*
X5689600Y1473200D02*
D03*
X6957060D02*
D03*
X7061200Y1661160D02*
D03*
Y1828800D02*
D03*
X7543800Y1683537D02*
D03*
X8229600Y1905000D02*
D03*
X8699500Y1778000D02*
D03*
X7391400Y2362200D02*
D03*
X7518400Y2514600D02*
D03*
X7747000Y2496820D02*
D03*
X6400800Y3074100D02*
D03*
X5715000Y3777794D02*
D03*
X1336639Y4762500D02*
D03*
X2184400Y3937000D02*
D03*
X2794000Y3048000D02*
D03*
X2527300Y2286000D02*
D03*
X1193800Y2514600D02*
D03*
X2032000Y2946400D02*
D03*
X2311400Y2867660D02*
D03*
X2032000Y2413000D02*
D03*
X1524000Y1905000D02*
D03*
X1270000Y2032000D02*
D03*
X889000Y1905000D02*
D03*
X381000D02*
D03*
X889000Y1651000D02*
D03*
X381000D02*
D03*
X889000Y1397000D02*
D03*
X381000D02*
D03*
X7351700Y1033700D02*
D03*
X7251700D02*
D03*
X7151700Y1030300D02*
D03*
X7351700Y1232229D02*
D03*
X7251700D02*
D03*
X7151700D02*
D03*
X8661400Y2501900D02*
D03*
X8801100Y1617980D02*
D03*
X2768600Y1879600D02*
D03*
X8721889Y4533900D02*
D03*
X7249160Y4993640D02*
D03*
X7645400Y4025336D02*
D03*
X6379300Y1316903D02*
D03*
X5278120Y3992880D02*
D03*
X5664100Y3862297D02*
D03*
X1860910Y4401221D02*
D03*
X2446020Y2867660D02*
D03*
X8039100Y1683537D02*
D03*
X7645400Y2496820D02*
D03*
X7694238Y1282700D02*
D03*
X6002020Y2113280D02*
D03*
X6957060D02*
D03*
X4061460Y1752600D02*
D03*
X1754570Y3495700D02*
D03*
Y3415000D02*
D03*
X1559560Y3139440D02*
D03*
X1640840D02*
D03*
X1729740Y3220720D02*
D03*
X2181800Y3845500D02*
D03*
X3672840Y3777794D02*
D03*
Y3909060D02*
D03*
X4010660Y1394460D02*
D03*
X7391400Y2268220D02*
D03*
X7518400Y2423160D02*
D03*
X6385560Y3586480D02*
D03*
X6284660Y3074100D02*
D03*
X6121400Y2758440D02*
D03*
X7287260Y3622040D02*
D03*
X5427980Y2303780D02*
D03*
X5805200D02*
D03*
X3027680Y1475740D02*
D03*
X3583211Y372155D02*
D03*
X8721889Y4640580D02*
D03*
X5264941Y2697480D02*
D03*
X4163060Y599440D02*
D03*
X6774180Y1292280D02*
D03*
X2527300Y2413000D02*
D03*
X3733800Y4413039D02*
D03*
X3576301Y903015D02*
D03*
X7190740Y248920D02*
D03*
X4488180Y688340D02*
D03*
X4569460D02*
D03*
X8384166Y3988800D02*
D03*
X5392420Y3393440D02*
D03*
X3818628Y4840797D02*
D03*
X8722360Y4843780D02*
D03*
X3499588Y4927600D02*
D03*
X3281107D02*
D03*
X3278853Y5105400D02*
D03*
X3238500Y3185700D02*
D03*
X3155949Y3187700D02*
D03*
X3073400D02*
D03*
X3479800Y3804225D02*
D03*
X3390900D02*
D03*
X3568700D02*
D03*
X3529146Y3385820D02*
D03*
X3462020Y3462020D02*
D03*
X3357880Y3461000D02*
D03*
X3644900Y3364803D02*
D03*
X4206240Y3355340D02*
D03*
X4203700Y3233420D02*
D03*
X3802380Y3243580D02*
D03*
X3665220Y3249380D02*
D03*
X4059498Y3238500D02*
D03*
X3942080Y3909060D02*
D03*
X4053840Y3772398D02*
D03*
X3804920Y3774440D02*
D03*
X3934460Y3772398D02*
D03*
X5930900Y609600D02*
D03*
X7638379Y154940D02*
D03*
X1640840Y3220720D02*
D03*
X2133600Y4127500D02*
D03*
X1666240Y3415000D02*
D03*
X6807200Y209170D02*
D03*
X2578100Y1651000D02*
D03*
X2794000Y2209800D02*
D03*
X3655060Y2286000D02*
D03*
X4051300Y2672080D02*
D03*
X8699500Y1866900D02*
D03*
X7683500Y1130300D02*
D03*
X8140700Y1905000D02*
D03*
X7901600D02*
D03*
X6400800Y2980500D02*
D03*
X8280400Y2692400D02*
D03*
X5930900Y444500D02*
D03*
X8930640Y1973580D02*
D03*
X8359140Y1607820D02*
D03*
X5696310Y4279900D02*
D03*
X5156200Y4368800D02*
D03*
X5778400Y4084300D02*
D03*
X5577840Y4006553D02*
D03*
X5689600Y1661160D02*
D03*
X7995920Y673100D02*
D03*
X8661400Y3644900D02*
D03*
X8201660Y3988800D02*
D03*
X5715000Y3669000D02*
D03*
X5974351Y3338526D02*
D03*
X5815832Y2907000D02*
D03*
X4053840Y3910802D02*
D03*
X3522980Y3909060D02*
D03*
X3804920Y3906520D02*
D03*
X4292600Y4838624D02*
D03*
X3931920Y3238500D02*
D03*
D56*
X4394200Y5473700D02*
D03*
D57*
X4559300D02*
D03*
%TF.MD5,b3f72aa4c3b487bbdf576c86392b8415*%
M02*
