%TF.GenerationSoftware,Altium Limited,Altium Designer,23.5.1 (21)*%
G04 Layer_Color=8421504*
%FSLAX45Y45*%
%MOMM*%
%TF.SameCoordinates,184668B5-E9FD-47B0-B020-163135FE076F*%
%TF.FilePolarity,Positive*%
%TF.FileFunction,Paste,Top*%
%TF.Part,Single*%
G01*
G75*
%TA.AperFunction,Conductor*%
%ADD11C,0.25400*%
%TA.AperFunction,FiducialPad,Global*%
%ADD12C,2.00000*%
%TA.AperFunction,SMDPad,CuDef*%
%ADD13R,1.55000X1.30000*%
%ADD14R,0.90000X1.30000*%
%ADD15R,1.65000X0.65000*%
%ADD16R,0.90000X1.50000*%
%ADD17R,1.50000X0.90000*%
%TA.AperFunction,BGAPad,CuDef*%
%ADD18R,0.90000X0.90000*%
%TA.AperFunction,SMDPad,CuDef*%
%ADD19R,1.30000X0.90000*%
%TA.AperFunction,TestPad*%
%ADD20R,3.42900X1.77800*%
%TA.AperFunction,SMDPad,CuDef*%
%ADD21R,0.60000X1.70000*%
%ADD22R,1.00000X2.80000*%
%ADD23R,1.37500X1.90000*%
%ADD24R,1.47500X2.10000*%
%ADD25R,0.45000X1.38000*%
%ADD26R,0.50000X0.55000*%
%ADD27R,0.26000X0.79000*%
%ADD28R,0.79000X0.26000*%
G04:AMPARAMS|DCode=30|XSize=0.26mm|YSize=0.97mm|CornerRadius=0.065mm|HoleSize=0mm|Usage=FLASHONLY|Rotation=0.000|XOffset=0mm|YOffset=0mm|HoleType=Round|Shape=RoundedRectangle|*
%AMROUNDEDRECTD30*
21,1,0.26000,0.84000,0,0,0.0*
21,1,0.13000,0.97000,0,0,0.0*
1,1,0.13000,0.06500,-0.42000*
1,1,0.13000,-0.06500,-0.42000*
1,1,0.13000,-0.06500,0.42000*
1,1,0.13000,0.06500,0.42000*
%
%ADD30ROUNDEDRECTD30*%
G04:AMPARAMS|DCode=31|XSize=0.26mm|YSize=0.97mm|CornerRadius=0.065mm|HoleSize=0mm|Usage=FLASHONLY|Rotation=270.000|XOffset=0mm|YOffset=0mm|HoleType=Round|Shape=RoundedRectangle|*
%AMROUNDEDRECTD31*
21,1,0.26000,0.84000,0,0,270.0*
21,1,0.13000,0.97000,0,0,270.0*
1,1,0.13000,-0.42000,-0.06500*
1,1,0.13000,-0.42000,0.06500*
1,1,0.13000,0.42000,0.06500*
1,1,0.13000,0.42000,-0.06500*
%
%ADD31ROUNDEDRECTD31*%
%ADD33R,0.60000X0.40000*%
%ADD34R,0.55000X0.50000*%
%ADD35R,0.80000X0.80000*%
G04:AMPARAMS|DCode=37|XSize=0.69mm|YSize=0.32mm|CornerRadius=0.04mm|HoleSize=0mm|Usage=FLASHONLY|Rotation=180.000|XOffset=0mm|YOffset=0mm|HoleType=Round|Shape=RoundedRectangle|*
%AMROUNDEDRECTD37*
21,1,0.69000,0.24000,0,0,180.0*
21,1,0.61000,0.32000,0,0,180.0*
1,1,0.08000,-0.30500,0.12000*
1,1,0.08000,0.30500,0.12000*
1,1,0.08000,0.30500,-0.12000*
1,1,0.08000,-0.30500,-0.12000*
%
%ADD37ROUNDEDRECTD37*%
G04:AMPARAMS|DCode=38|XSize=1.23mm|YSize=0.59mm|CornerRadius=0.1475mm|HoleSize=0mm|Usage=FLASHONLY|Rotation=0.000|XOffset=0mm|YOffset=0mm|HoleType=Round|Shape=RoundedRectangle|*
%AMROUNDEDRECTD38*
21,1,1.23000,0.29500,0,0,0.0*
21,1,0.93500,0.59000,0,0,0.0*
1,1,0.29500,0.46750,-0.14750*
1,1,0.29500,-0.46750,-0.14750*
1,1,0.29500,-0.46750,0.14750*
1,1,0.29500,0.46750,0.14750*
%
%ADD38ROUNDEDRECTD38*%
G04:AMPARAMS|DCode=39|XSize=1.23mm|YSize=0.59mm|CornerRadius=0.1475mm|HoleSize=0mm|Usage=FLASHONLY|Rotation=270.000|XOffset=0mm|YOffset=0mm|HoleType=Round|Shape=RoundedRectangle|*
%AMROUNDEDRECTD39*
21,1,1.23000,0.29500,0,0,270.0*
21,1,0.93500,0.59000,0,0,270.0*
1,1,0.29500,-0.14750,-0.46750*
1,1,0.29500,-0.14750,0.46750*
1,1,0.29500,0.14750,0.46750*
1,1,0.29500,0.14750,-0.46750*
%
%ADD39ROUNDEDRECTD39*%
%ADD40R,1.39700X1.06680*%
%ADD41R,0.27500X0.25000*%
%ADD42R,0.25000X0.27500*%
%ADD100R,1.97980X1.97980*%
G36*
X1231700Y3301200D02*
X1256700D01*
Y3260200D01*
X1231700D01*
Y3301200D01*
D02*
G37*
G36*
Y3366200D02*
X1256700D01*
Y3325200D01*
X1231700D01*
Y3366200D01*
D02*
G37*
G36*
Y3431200D02*
X1256700D01*
Y3390200D01*
X1231700D01*
Y3431200D01*
D02*
G37*
G36*
Y3496200D02*
X1256700D01*
Y3455200D01*
X1231700D01*
Y3496200D01*
D02*
G37*
G36*
X3498700Y3587600D02*
X3435500D01*
Y3688800D01*
X3498700D01*
Y3587600D01*
D02*
G37*
G36*
X1472700Y3420700D02*
X1384700D01*
Y3489700D01*
X1472700D01*
Y3420700D01*
D02*
G37*
G36*
X1364700D02*
X1276700D01*
Y3489700D01*
X1364700D01*
Y3420700D01*
D02*
G37*
G36*
X1472700Y3269200D02*
X1384700D01*
Y3336200D01*
X1472700D01*
Y3269200D01*
D02*
G37*
G36*
X1364700D02*
X1276700D01*
Y3336200D01*
X1364700D01*
Y3269200D01*
D02*
G37*
D11*
X5511800Y3634936D02*
G03*
X5555200Y3678336I0J43400D01*
G01*
D12*
X6032500Y1498600D02*
D03*
X1193800Y5039360D02*
D03*
X2013692Y825500D02*
D03*
D13*
X8743600Y1385200D02*
D03*
Y935200D02*
D03*
X7948600D02*
D03*
Y1385200D02*
D03*
X5350160Y2041680D02*
D03*
Y1591680D02*
D03*
X4555160D02*
D03*
Y2041680D02*
D03*
D14*
X1419000Y2781300D02*
D03*
X1629000D02*
D03*
X6067200Y3594100D02*
D03*
X6277200D02*
D03*
X3119120Y3340100D02*
D03*
X2909120D02*
D03*
X3119120Y3573780D02*
D03*
X2909120D02*
D03*
X7286391Y139700D02*
D03*
X7496391D02*
D03*
X8456480Y1617980D02*
D03*
X8666480D02*
D03*
X8419074Y4152900D02*
D03*
X8209074D02*
D03*
X7286391Y370840D02*
D03*
X7496391D02*
D03*
X3349400Y4419600D02*
D03*
X3559400D02*
D03*
X1246700Y500000D02*
D03*
X1036700D02*
D03*
X7120829Y4439920D02*
D03*
X7330829D02*
D03*
X1959200Y4127500D02*
D03*
X1749200D02*
D03*
X1959200Y3845500D02*
D03*
X1749200D02*
D03*
X5024120Y3990340D02*
D03*
X4814120D02*
D03*
X5042760Y3632947D02*
D03*
X4832760D02*
D03*
X2444340Y3346860D02*
D03*
X2234340D02*
D03*
X6567580Y1892410D02*
D03*
X6777580D02*
D03*
X7667400Y673100D02*
D03*
X7877400D02*
D03*
X8421780Y4368800D02*
D03*
X8631780D02*
D03*
X7562400Y5013960D02*
D03*
X7772400D02*
D03*
D15*
X3771900Y2006600D02*
D03*
Y1879600D02*
D03*
Y1752600D02*
D03*
Y1625600D02*
D03*
X3051900D02*
D03*
Y1752600D02*
D03*
Y1879600D02*
D03*
Y2006600D02*
D03*
D16*
X8915400Y3845500D02*
D03*
X8788400D02*
D03*
X8661400D02*
D03*
X8534400D02*
D03*
X8407400D02*
D03*
X8280400D02*
D03*
X8153400D02*
D03*
X8026400D02*
D03*
X7899400D02*
D03*
X7772400D02*
D03*
X7645400D02*
D03*
X7518400D02*
D03*
X7391400D02*
D03*
X7264400D02*
D03*
Y2095500D02*
D03*
X7391400D02*
D03*
X7518400D02*
D03*
X7645400D02*
D03*
X7772400D02*
D03*
X7899400D02*
D03*
X8026400D02*
D03*
X8153400D02*
D03*
X8280400D02*
D03*
X8407400D02*
D03*
X8534400D02*
D03*
X8661400D02*
D03*
X8788400D02*
D03*
X8915400D02*
D03*
D17*
X7139400Y3542000D02*
D03*
Y3415000D02*
D03*
Y3288000D02*
D03*
Y3161000D02*
D03*
Y3034000D02*
D03*
Y2907000D02*
D03*
Y2780000D02*
D03*
Y2653000D02*
D03*
Y2526000D02*
D03*
Y2399000D02*
D03*
D18*
X8283400Y3260500D02*
D03*
Y3120500D02*
D03*
Y2980500D02*
D03*
X8143400Y3260500D02*
D03*
Y3120500D02*
D03*
Y2980500D02*
D03*
X8003400Y3260500D02*
D03*
Y3120500D02*
D03*
Y2980500D02*
D03*
D19*
X5803900Y2460400D02*
D03*
Y2670400D02*
D03*
X1336639Y4093800D02*
D03*
Y3883800D02*
D03*
Y4611221D02*
D03*
Y4401221D02*
D03*
X5530100Y4384239D02*
D03*
Y4594239D02*
D03*
X5302247Y4384239D02*
D03*
Y4594239D02*
D03*
X1629000Y2440566D02*
D03*
Y2230566D02*
D03*
X6379300Y435200D02*
D03*
Y225200D02*
D03*
X5696320Y1802540D02*
D03*
Y2012540D02*
D03*
X4051300Y2282600D02*
D03*
Y2492600D02*
D03*
X3818628Y2282600D02*
D03*
Y2492600D02*
D03*
X4048760Y3561980D02*
D03*
Y3351980D02*
D03*
X3806000Y3565340D02*
D03*
Y3355340D02*
D03*
X6096000Y435200D02*
D03*
Y225200D02*
D03*
X6642100Y435200D02*
D03*
Y225200D02*
D03*
X5435600Y2695800D02*
D03*
Y2485800D02*
D03*
X6120748Y3074100D02*
D03*
Y2864100D02*
D03*
X8869680Y4562260D02*
D03*
Y4772260D02*
D03*
X8569960Y4561840D02*
D03*
Y4771840D02*
D03*
X7795260Y161700D02*
D03*
Y371700D02*
D03*
X6949440Y5094380D02*
D03*
Y5304380D02*
D03*
X1981200Y3556860D02*
D03*
Y3346860D02*
D03*
X6253050Y2187800D02*
D03*
Y1977800D02*
D03*
X4292396Y4441600D02*
D03*
Y4651600D02*
D03*
D20*
X4823460Y4439920D02*
D03*
X5042760Y3108960D02*
D03*
X3237773Y372155D02*
D03*
X4469490Y3110589D02*
D03*
X2623221Y372155D02*
D03*
X3240313Y903015D02*
D03*
D21*
X3695700Y4991100D02*
D03*
X3820700D02*
D03*
D22*
X4005700Y5326100D02*
D03*
X3510700D02*
D03*
D23*
X4206700Y152400D02*
D03*
X4394200D02*
D03*
D24*
X4054200Y382400D02*
D03*
X4546700D02*
D03*
D25*
X4170450Y418400D02*
D03*
X4235450D02*
D03*
X4365450D02*
D03*
X4300450D02*
D03*
X4430450D02*
D03*
D26*
X5003800Y1253240D02*
D03*
Y1158240D02*
D03*
X5006340Y1049871D02*
D03*
Y954871D02*
D03*
D27*
X5555200Y3396100D02*
D03*
X5605200D02*
D03*
X5655200D02*
D03*
X5705200D02*
D03*
X5755200D02*
D03*
X5805200D02*
D03*
Y3002100D02*
D03*
X5755200D02*
D03*
X5705200D02*
D03*
X5655200D02*
D03*
X5605200D02*
D03*
X5555200D02*
D03*
D28*
X5877200Y3324100D02*
D03*
Y3274100D02*
D03*
Y3224100D02*
D03*
Y3174100D02*
D03*
Y3124100D02*
D03*
Y3074100D02*
D03*
X5483200D02*
D03*
Y3124100D02*
D03*
Y3174100D02*
D03*
Y3224100D02*
D03*
Y3274100D02*
D03*
Y3324100D02*
D03*
D30*
X7101700Y1367300D02*
D03*
X7151700D02*
D03*
X7201700D02*
D03*
X7251700D02*
D03*
X7301700D02*
D03*
X7351700D02*
D03*
X7401700D02*
D03*
Y893300D02*
D03*
X7351700D02*
D03*
X7301700D02*
D03*
X7251700D02*
D03*
X7201700D02*
D03*
X7151700D02*
D03*
X7101700D02*
D03*
D31*
X7488700Y1280300D02*
D03*
Y1230300D02*
D03*
Y1180300D02*
D03*
Y1130300D02*
D03*
Y1080300D02*
D03*
Y1030300D02*
D03*
Y980300D02*
D03*
X7014700D02*
D03*
Y1030300D02*
D03*
Y1080300D02*
D03*
Y1130300D02*
D03*
Y1180300D02*
D03*
Y1230300D02*
D03*
Y1280300D02*
D03*
D33*
X1557200Y3475700D02*
D03*
Y3410700D02*
D03*
Y3280700D02*
D03*
Y3345700D02*
D03*
D34*
X4566289Y589280D02*
D03*
X4661289D02*
D03*
D35*
X4292600Y4187260D02*
D03*
Y4037260D02*
D03*
X3349400Y4644800D02*
D03*
Y4794800D02*
D03*
D37*
X3365100Y3573200D02*
D03*
Y3638200D02*
D03*
Y3703200D02*
D03*
X3569100D02*
D03*
Y3638200D02*
D03*
Y3573200D02*
D03*
D38*
X6760800Y2384900D02*
D03*
X6548800Y2289900D02*
D03*
Y2479900D02*
D03*
D39*
X6474300Y1392600D02*
D03*
X6379300Y1604600D02*
D03*
X6569300D02*
D03*
D40*
X7249300Y4707900D02*
D03*
Y4867900D02*
D03*
X6949300Y4707900D02*
D03*
Y4867900D02*
D03*
D41*
X5587800Y4164800D02*
D03*
Y4114800D02*
D03*
X5740400D02*
D03*
Y4164800D02*
D03*
D42*
X5614100Y4063600D02*
D03*
X5664100D02*
D03*
X5714100D02*
D03*
Y4216000D02*
D03*
X5664100D02*
D03*
X5614100D02*
D03*
D100*
X7251700Y1130300D02*
D03*
%TF.MD5,eb793f53663b6bbaf67ce69533b4cd86*%
M02*
