%TF.GenerationSoftware,Altium Limited,Altium Designer,23.5.1 (21)*%
G04 Layer_Color=0*
%FSLAX45Y45*%
%MOMM*%
%TF.SameCoordinates,184668B5-E9FD-47B0-B020-163135FE076F*%
%TF.FilePolarity,Positive*%
%TF.FileFunction,Plated,1,4,PTH,Drill*%
%TF.Part,Single*%
G01*
G75*
%TA.AperFunction,ComponentDrill*%
%ADD102C,0.30000*%
%ADD103C,1.30000*%
%ADD104C,1.10000*%
%ADD105C,0.90000*%
%ADD106O,0.60000X1.30000*%
%ADD107C,1.30000*%
%ADD108C,1.10000*%
%ADD109C,3.20000*%
%TA.AperFunction,ViaDrill,NotFilled*%
%ADD110C,0.30000*%
D102*
X8356380Y3191480D02*
D03*
Y3049240D02*
D03*
X8214140Y3333720D02*
D03*
Y3049240D02*
D03*
Y2907000D02*
D03*
X8211600Y3191480D02*
D03*
X8074440Y3051780D02*
D03*
Y3333720D02*
D03*
Y3191480D02*
D03*
Y2907000D02*
D03*
X7929660Y3191480D02*
D03*
Y3049240D02*
D03*
D103*
X495300Y2611500D02*
D03*
Y3111500D02*
D03*
Y3721100D02*
D03*
Y4221100D02*
D03*
D104*
X197650Y1023150D02*
D03*
Y2039150D02*
D03*
Y1785150D02*
D03*
Y1531150D02*
D03*
Y1277150D02*
D03*
D105*
X8789610Y5303520D02*
D03*
X8535610D02*
D03*
X8281610D02*
D03*
X8027610D02*
D03*
X7773610D02*
D03*
X7519610D02*
D03*
D106*
X3905450Y152400D02*
D03*
X4695450D02*
D03*
D107*
X2468500Y5016500D02*
D03*
X1968500D02*
D03*
D108*
X6062980Y5232400D02*
D03*
X6316980D02*
D03*
X5808980D02*
D03*
X5300980D02*
D03*
X5554980D02*
D03*
D109*
X8500000Y500000D02*
D03*
X500000D02*
D03*
Y5000000D02*
D03*
D110*
X2679700Y1879600D02*
D03*
X2895600Y2209800D02*
D03*
X8572500Y3644900D02*
D03*
X8890000Y1617980D02*
D03*
X7287260Y1828800D02*
D03*
X7327900Y1905000D02*
D03*
X7974992Y1852599D02*
D03*
X7594600Y1282700D02*
D03*
X7683500Y1033700D02*
D03*
X6997700Y3644900D02*
D03*
X8201660Y4826000D02*
D03*
X7962900D02*
D03*
Y4084300D02*
D03*
X7835900D02*
D03*
X6883400Y4470400D02*
D03*
X6477000Y4993640D02*
D03*
X6680200Y4470400D02*
D03*
X6426200D02*
D03*
X6146800D02*
D03*
X6197600Y4993640D02*
D03*
X5943600D02*
D03*
X5696310D02*
D03*
X177800Y5359400D02*
D03*
X1778000Y228600D02*
D03*
X5054600Y279400D02*
D03*
X7518400Y4025336D02*
D03*
X7442200Y4084300D02*
D03*
X7707333Y4084592D02*
D03*
X8384166Y2692400D02*
D03*
X8661400Y2590800D02*
D03*
X7251700Y673100D02*
D03*
X7569200Y3073400D02*
D03*
X6379300Y3772398D02*
D03*
X3632200Y2819400D02*
D03*
X2578100Y3804225D02*
D03*
X5054600Y2794000D02*
D03*
X2794000Y2641600D02*
D03*
X4927600Y2268220D02*
D03*
X4059498Y2006600D02*
D03*
X3302000Y1727200D02*
D03*
X3911600Y1394460D02*
D03*
X4058927Y1843448D02*
D03*
X4061460Y1651000D02*
D03*
X4927600Y1475740D02*
D03*
Y1661160D02*
D03*
Y1828800D02*
D03*
X6002020D02*
D03*
X5689600Y1473200D02*
D03*
X6957060D02*
D03*
X7061200Y1661160D02*
D03*
Y1828800D02*
D03*
X7543800Y1683537D02*
D03*
X8229600Y1905000D02*
D03*
X8699500Y1778000D02*
D03*
X7391400Y2362200D02*
D03*
X7518400Y2514600D02*
D03*
X7747000Y2496820D02*
D03*
X6400800Y3074100D02*
D03*
X5715000Y3777794D02*
D03*
X1336639Y4762500D02*
D03*
X2184400Y3937000D02*
D03*
X2794000Y3048000D02*
D03*
X2527300Y2286000D02*
D03*
X1193800Y2514600D02*
D03*
X2032000Y2946400D02*
D03*
X2311400Y2867660D02*
D03*
X2032000Y2413000D02*
D03*
X1524000Y1905000D02*
D03*
X1270000Y2032000D02*
D03*
X889000Y1905000D02*
D03*
X381000D02*
D03*
X889000Y1651000D02*
D03*
X381000D02*
D03*
X889000Y1397000D02*
D03*
X381000D02*
D03*
X7351700Y1033700D02*
D03*
X7251700D02*
D03*
X7151700Y1030300D02*
D03*
X7351700Y1232229D02*
D03*
X7251700D02*
D03*
X7151700D02*
D03*
X8661400Y2501900D02*
D03*
X8801100Y1617980D02*
D03*
X2768600Y1879600D02*
D03*
X8721889Y4533900D02*
D03*
X7249160Y4993640D02*
D03*
X7645400Y4025336D02*
D03*
X6379300Y1316903D02*
D03*
X5278120Y3992880D02*
D03*
X5664100Y3862297D02*
D03*
X1860910Y4401221D02*
D03*
X2446020Y2867660D02*
D03*
X8039100Y1683537D02*
D03*
X7645400Y2496820D02*
D03*
X7694238Y1282700D02*
D03*
X6002020Y2113280D02*
D03*
X6957060D02*
D03*
X4061460Y1752600D02*
D03*
X1754570Y3495700D02*
D03*
Y3415000D02*
D03*
X1559560Y3139440D02*
D03*
X1640840D02*
D03*
X1729740Y3220720D02*
D03*
X2181800Y3845500D02*
D03*
X3672840Y3777794D02*
D03*
Y3909060D02*
D03*
X4010660Y1394460D02*
D03*
X7391400Y2268220D02*
D03*
X7518400Y2423160D02*
D03*
X6385560Y3586480D02*
D03*
X6284660Y3074100D02*
D03*
X6121400Y2758440D02*
D03*
X7287260Y3622040D02*
D03*
X5427980Y2303780D02*
D03*
X5805200D02*
D03*
X3027680Y1475740D02*
D03*
X3583211Y372155D02*
D03*
X8721889Y4640580D02*
D03*
X5264941Y2697480D02*
D03*
X4163060Y599440D02*
D03*
X6774180Y1292280D02*
D03*
X2527300Y2413000D02*
D03*
X3733800Y4413039D02*
D03*
X3576301Y903015D02*
D03*
X7190740Y248920D02*
D03*
X4488180Y688340D02*
D03*
X4569460D02*
D03*
X8384166Y3988800D02*
D03*
X5392420Y3393440D02*
D03*
X3818628Y4840797D02*
D03*
X8722360Y4843780D02*
D03*
X3499588Y4927600D02*
D03*
X3281107D02*
D03*
X3278853Y5105400D02*
D03*
X3238500Y3185700D02*
D03*
X3155949Y3187700D02*
D03*
X3073400D02*
D03*
X3479800Y3804225D02*
D03*
X3390900D02*
D03*
X3568700D02*
D03*
X3529146Y3385820D02*
D03*
X3462020Y3462020D02*
D03*
X3357880Y3461000D02*
D03*
X3644900Y3364803D02*
D03*
X4206240Y3355340D02*
D03*
X4203700Y3233420D02*
D03*
X3802380Y3243580D02*
D03*
X3665220Y3249380D02*
D03*
X4059498Y3238500D02*
D03*
X3942080Y3909060D02*
D03*
X4053840Y3772398D02*
D03*
X3804920Y3774440D02*
D03*
X3934460Y3772398D02*
D03*
X5930900Y609600D02*
D03*
X7638379Y154940D02*
D03*
X1640840Y3220720D02*
D03*
X2133600Y4127500D02*
D03*
X1666240Y3415000D02*
D03*
X6807200Y209170D02*
D03*
X2578100Y1651000D02*
D03*
X2794000Y2209800D02*
D03*
X3655060Y2286000D02*
D03*
X4051300Y2672080D02*
D03*
X8699500Y1866900D02*
D03*
X7683500Y1130300D02*
D03*
X8140700Y1905000D02*
D03*
X7901600D02*
D03*
X6400800Y2980500D02*
D03*
X8280400Y2692400D02*
D03*
X5930900Y444500D02*
D03*
X8930640Y1973580D02*
D03*
X8359140Y1607820D02*
D03*
X5696310Y4279900D02*
D03*
X5156200Y4368800D02*
D03*
X5778400Y4084300D02*
D03*
X5577840Y4006553D02*
D03*
X5689600Y1661160D02*
D03*
X7995920Y673100D02*
D03*
X8661400Y3644900D02*
D03*
X8201660Y3988800D02*
D03*
X5715000Y3669000D02*
D03*
X5974351Y3338526D02*
D03*
X5815832Y2907000D02*
D03*
X4053840Y3910802D02*
D03*
X3522980Y3909060D02*
D03*
X3804920Y3906520D02*
D03*
X4292600Y4838624D02*
D03*
X3931920Y3238500D02*
D03*
%TF.MD5,8ee84e15a9f19cc08b3799498f1683fa*%
M02*
