%TF.GenerationSoftware,Altium Limited,Altium Designer,23.5.1 (21)*%
G04 Layer_Color=16711935*
%FSLAX45Y45*%
%MOMM*%
%TF.SameCoordinates,4795B1C9-752B-4E01-904C-9C7CC4A01C22*%
%TF.FilePolarity,Negative*%
%TF.FileFunction,Soldermask,Bot*%
%TF.Part,Single*%
G01*
G75*
%TA.AperFunction,ComponentPad*%
G04:AMPARAMS|DCode=48|XSize=2.1mm|YSize=1.4mm|CornerRadius=0.7mm|HoleSize=0mm|Usage=FLASHONLY|Rotation=90.000|XOffset=0mm|YOffset=0mm|HoleType=Round|Shape=RoundedRectangle|*
%AMROUNDEDRECTD48*
21,1,2.10000,0.00000,0,0,90.0*
21,1,0.70000,1.40000,0,0,90.0*
1,1,1.40000,0.00000,0.35000*
1,1,1.40000,0.00000,-0.35000*
1,1,1.40000,0.00000,-0.35000*
1,1,1.40000,0.00000,0.35000*
%
%ADD48ROUNDEDRECTD48*%
%ADD93C,1.72600*%
%ADD94R,1.72600X1.72600*%
%ADD95C,6.07600*%
%ADD96C,1.57600*%
%ADD97R,1.57600X1.57600*%
%ADD98C,3.82600*%
%ADD99R,1.72600X1.72600*%
D48*
X4695450Y152400D02*
D03*
X3905450D02*
D03*
D93*
X197650Y1277150D02*
D03*
Y1531150D02*
D03*
Y1785150D02*
D03*
Y1023150D02*
D03*
X5554980Y5232400D02*
D03*
X5300980D02*
D03*
X5808980D02*
D03*
X6062980D02*
D03*
D94*
X197650Y2039150D02*
D03*
D95*
X8500000Y500000D02*
D03*
X500000D02*
D03*
Y5000000D02*
D03*
D96*
X7519610Y5303520D02*
D03*
X7773610D02*
D03*
X8027610D02*
D03*
X8281610D02*
D03*
X8535610D02*
D03*
D97*
X8789610D02*
D03*
D98*
X1968500Y5016500D02*
D03*
X2468500D02*
D03*
X495300Y3111500D02*
D03*
Y2611500D02*
D03*
Y4221100D02*
D03*
Y3721100D02*
D03*
D99*
X6316980Y5232400D02*
D03*
%TF.MD5,636e11d5db43e4cc60e4c6b2b6bc8d04*%
M02*
