%TF.GenerationSoftware,Altium Limited,Altium Designer,23.5.1 (21)*%
G04 Layer_Color=8388736*
%FSLAX45Y45*%
%MOMM*%
%TF.SameCoordinates,4795B1C9-752B-4E01-904C-9C7CC4A01C22*%
%TF.FilePolarity,Negative*%
%TF.FileFunction,Soldermask,Top*%
%TF.Part,Single*%
G01*
G75*
%TA.AperFunction,SMDPad,CuDef*%
%ADD24R,0.45000X1.38000*%
%ADD25R,1.47500X2.10000*%
%ADD26R,1.37500X1.90000*%
%TA.AperFunction,ComponentPad*%
G04:AMPARAMS|DCode=48|XSize=2.1mm|YSize=1.4mm|CornerRadius=0.7mm|HoleSize=0mm|Usage=FLASHONLY|Rotation=90.000|XOffset=0mm|YOffset=0mm|HoleType=Round|Shape=RoundedRectangle|*
%AMROUNDEDRECTD48*
21,1,2.10000,0.00000,0,0,90.0*
21,1,0.70000,1.40000,0,0,90.0*
1,1,1.40000,0.00000,0.35000*
1,1,1.40000,0.00000,-0.35000*
1,1,1.40000,0.00000,-0.35000*
1,1,1.40000,0.00000,0.35000*
%
%ADD48ROUNDEDRECTD48*%
%TA.AperFunction,BGAPad,CuDef*%
%ADD66R,0.97600X0.97600*%
%TA.AperFunction,SMDPad,CuDef*%
%ADD67R,0.97600X1.57600*%
%ADD68R,1.57600X0.97600*%
%ADD69R,0.67600X0.47600*%
G04:AMPARAMS|DCode=70|XSize=1.306mm|YSize=0.666mm|CornerRadius=0.1855mm|HoleSize=0mm|Usage=FLASHONLY|Rotation=270.000|XOffset=0mm|YOffset=0mm|HoleType=Round|Shape=RoundedRectangle|*
%AMROUNDEDRECTD70*
21,1,1.30600,0.29500,0,0,270.0*
21,1,0.93500,0.66600,0,0,270.0*
1,1,0.37100,-0.14750,-0.46750*
1,1,0.37100,-0.14750,0.46750*
1,1,0.37100,0.14750,0.46750*
1,1,0.37100,0.14750,-0.46750*
%
%ADD70ROUNDEDRECTD70*%
G04:AMPARAMS|DCode=71|XSize=0.766mm|YSize=0.396mm|CornerRadius=0.078mm|HoleSize=0mm|Usage=FLASHONLY|Rotation=180.000|XOffset=0mm|YOffset=0mm|HoleType=Round|Shape=RoundedRectangle|*
%AMROUNDEDRECTD71*
21,1,0.76600,0.24000,0,0,180.0*
21,1,0.61000,0.39600,0,0,180.0*
1,1,0.15600,-0.30500,0.12000*
1,1,0.15600,0.30500,0.12000*
1,1,0.15600,0.30500,-0.12000*
1,1,0.15600,-0.30500,-0.12000*
%
%ADD71ROUNDEDRECTD71*%
%ADD72R,1.07600X1.67600*%
%ADD73R,1.72600X0.72600*%
%ADD74R,0.86600X0.33600*%
%ADD75R,0.33600X0.86600*%
%ADD76R,1.62600X1.37600*%
%ADD77R,0.87600X0.87600*%
%ADD78R,0.67600X1.77600*%
%ADD79R,1.07600X2.87600*%
%TA.AperFunction,FiducialPad,Global*%
%ADD80C,4.00000*%
%TA.AperFunction,SMDPad,CuDef*%
%ADD81R,0.62600X0.57600*%
G04:AMPARAMS|DCode=82|XSize=0.336mm|YSize=1.046mm|CornerRadius=0.103mm|HoleSize=0mm|Usage=FLASHONLY|Rotation=270.000|XOffset=0mm|YOffset=0mm|HoleType=Round|Shape=RoundedRectangle|*
%AMROUNDEDRECTD82*
21,1,0.33600,0.84000,0,0,270.0*
21,1,0.13000,1.04600,0,0,270.0*
1,1,0.20600,-0.42000,-0.06500*
1,1,0.20600,-0.42000,0.06500*
1,1,0.20600,0.42000,0.06500*
1,1,0.20600,0.42000,-0.06500*
%
%ADD82ROUNDEDRECTD82*%
G04:AMPARAMS|DCode=83|XSize=0.336mm|YSize=1.046mm|CornerRadius=0.103mm|HoleSize=0mm|Usage=FLASHONLY|Rotation=0.000|XOffset=0mm|YOffset=0mm|HoleType=Round|Shape=RoundedRectangle|*
%AMROUNDEDRECTD83*
21,1,0.33600,0.84000,0,0,0.0*
21,1,0.13000,1.04600,0,0,0.0*
1,1,0.20600,0.06500,-0.42000*
1,1,0.20600,-0.06500,-0.42000*
1,1,0.20600,-0.06500,0.42000*
1,1,0.20600,0.06500,0.42000*
%
%ADD83ROUNDEDRECTD83*%
%ADD84R,3.22600X3.22600*%
%ADD85R,1.37600X0.97600*%
%ADD86R,0.32600X0.35100*%
%ADD87R,0.35100X0.32600*%
%TA.AperFunction,TestPad*%
%ADD88R,3.50500X1.85400*%
%TA.AperFunction,SMDPad,CuDef*%
%ADD89R,1.49860X1.16840*%
%ADD90R,0.97600X1.37600*%
%ADD91R,0.57600X0.62600*%
G04:AMPARAMS|DCode=92|XSize=1.306mm|YSize=0.666mm|CornerRadius=0.1855mm|HoleSize=0mm|Usage=FLASHONLY|Rotation=0.000|XOffset=0mm|YOffset=0mm|HoleType=Round|Shape=RoundedRectangle|*
%AMROUNDEDRECTD92*
21,1,1.30600,0.29500,0,0,0.0*
21,1,0.93500,0.66600,0,0,0.0*
1,1,0.37100,0.46750,-0.14750*
1,1,0.37100,-0.46750,-0.14750*
1,1,0.37100,-0.46750,0.14750*
1,1,0.37100,0.46750,0.14750*
%
%ADD92ROUNDEDRECTD92*%
%TA.AperFunction,ComponentPad*%
%ADD93C,1.72600*%
%ADD94R,1.72600X1.72600*%
%ADD95C,6.07600*%
%ADD96C,1.57600*%
%ADD97R,1.57600X1.57600*%
%ADD98C,3.82600*%
%ADD99R,1.72600X1.72600*%
G36*
X1502200Y3370580D02*
Y3229700D01*
X1247200D01*
Y3250700D01*
X1222200D01*
Y3310700D01*
X1247200D01*
Y3315700D01*
X1222200D01*
Y3370580D01*
Y3440700D01*
X1247200D01*
Y3445700D01*
X1222200D01*
Y3505700D01*
X1247200D01*
Y3529700D01*
X1502200D01*
Y3370580D01*
D02*
G37*
D24*
X4430450Y418400D02*
D03*
X4300450D02*
D03*
X4365450D02*
D03*
X4235450D02*
D03*
X4170450D02*
D03*
D25*
X4546700Y382400D02*
D03*
X4054200D02*
D03*
D26*
X4394200Y152400D02*
D03*
X4206700D02*
D03*
D48*
X4695450D02*
D03*
X3905450D02*
D03*
D66*
X8003400Y2980500D02*
D03*
Y3120500D02*
D03*
Y3260500D02*
D03*
X8143400Y2980500D02*
D03*
Y3120500D02*
D03*
Y3260500D02*
D03*
X8283400Y2980500D02*
D03*
Y3120500D02*
D03*
Y3260500D02*
D03*
D67*
X8915400Y2095500D02*
D03*
X8788400D02*
D03*
X8661400D02*
D03*
X8534400D02*
D03*
X8407400D02*
D03*
X8280400D02*
D03*
X8153400D02*
D03*
X8026400D02*
D03*
X7899400D02*
D03*
X7772400D02*
D03*
X7645400D02*
D03*
X7518400D02*
D03*
X7391400D02*
D03*
X7264400D02*
D03*
Y3845500D02*
D03*
X7391400D02*
D03*
X7518400D02*
D03*
X7645400D02*
D03*
X7772400D02*
D03*
X7899400D02*
D03*
X8026400D02*
D03*
X8153400D02*
D03*
X8280400D02*
D03*
X8407400D02*
D03*
X8534400D02*
D03*
X8661400D02*
D03*
X8788400D02*
D03*
X8915400D02*
D03*
D68*
X7139400Y2399000D02*
D03*
Y2526000D02*
D03*
Y2653000D02*
D03*
Y2780000D02*
D03*
Y2907000D02*
D03*
Y3034000D02*
D03*
Y3161000D02*
D03*
Y3288000D02*
D03*
Y3415000D02*
D03*
Y3542000D02*
D03*
D69*
X1557200Y3345700D02*
D03*
Y3280700D02*
D03*
Y3410700D02*
D03*
Y3475700D02*
D03*
D70*
X6569300Y1604600D02*
D03*
X6379300D02*
D03*
X6474300Y1392600D02*
D03*
D71*
X3569100Y3573200D02*
D03*
Y3638200D02*
D03*
Y3703200D02*
D03*
X3365100D02*
D03*
Y3638200D02*
D03*
Y3573200D02*
D03*
D72*
X3467100Y3638200D02*
D03*
D73*
X3051900Y2006600D02*
D03*
Y1879600D02*
D03*
Y1752600D02*
D03*
Y1625600D02*
D03*
X3771900D02*
D03*
Y1752600D02*
D03*
Y1879600D02*
D03*
Y2006600D02*
D03*
D74*
X5483200Y3324100D02*
D03*
Y3274100D02*
D03*
Y3224100D02*
D03*
Y3174100D02*
D03*
Y3124100D02*
D03*
Y3074100D02*
D03*
X5877200D02*
D03*
Y3124100D02*
D03*
Y3174100D02*
D03*
Y3224100D02*
D03*
Y3274100D02*
D03*
Y3324100D02*
D03*
D75*
X5555200Y3002100D02*
D03*
X5605200D02*
D03*
X5655200D02*
D03*
X5705200D02*
D03*
X5755200D02*
D03*
X5805200D02*
D03*
Y3396100D02*
D03*
X5755200D02*
D03*
X5705200D02*
D03*
X5655200D02*
D03*
X5605200D02*
D03*
X5555200D02*
D03*
D76*
X4555160Y2041680D02*
D03*
Y1591680D02*
D03*
X5350160D02*
D03*
Y2041680D02*
D03*
X7948600Y1385200D02*
D03*
Y935200D02*
D03*
X8743600D02*
D03*
Y1385200D02*
D03*
D77*
X3349400Y4794800D02*
D03*
Y4644800D02*
D03*
X4292600Y4037260D02*
D03*
Y4187260D02*
D03*
D78*
X3820700Y4991100D02*
D03*
X3695700D02*
D03*
D79*
X3510700Y5326100D02*
D03*
X4005700D02*
D03*
D80*
X1193800Y5039360D02*
D03*
X2013692Y825500D02*
D03*
X6032500Y1498600D02*
D03*
D81*
X4661289Y589280D02*
D03*
X4566289D02*
D03*
D82*
X7014700Y1280300D02*
D03*
Y1230300D02*
D03*
Y1180300D02*
D03*
Y1130300D02*
D03*
Y1080300D02*
D03*
Y1030300D02*
D03*
Y980300D02*
D03*
X7488700D02*
D03*
Y1030300D02*
D03*
Y1080300D02*
D03*
Y1130300D02*
D03*
Y1180300D02*
D03*
Y1230300D02*
D03*
Y1280300D02*
D03*
D83*
X7101700Y893300D02*
D03*
X7151700D02*
D03*
X7201700D02*
D03*
X7251700D02*
D03*
X7301700D02*
D03*
X7351700D02*
D03*
X7401700D02*
D03*
Y1367300D02*
D03*
X7351700D02*
D03*
X7301700D02*
D03*
X7251700D02*
D03*
X7201700D02*
D03*
X7151700D02*
D03*
X7101700D02*
D03*
D84*
X7251700Y1130300D02*
D03*
D85*
X6379300Y225200D02*
D03*
Y435200D02*
D03*
X7795260Y371700D02*
D03*
Y161700D02*
D03*
X8569960Y4771840D02*
D03*
Y4561840D02*
D03*
X8869680Y4562260D02*
D03*
Y4772260D02*
D03*
X6120748Y3074100D02*
D03*
Y2864100D02*
D03*
X5530100Y4384239D02*
D03*
Y4594239D02*
D03*
X5803900Y2460400D02*
D03*
Y2670400D02*
D03*
X5302247Y4594239D02*
D03*
Y4384239D02*
D03*
X5435600Y2485800D02*
D03*
Y2695800D02*
D03*
X6642100Y435200D02*
D03*
Y225200D02*
D03*
X6096000D02*
D03*
Y435200D02*
D03*
X3806000Y3355340D02*
D03*
Y3565340D02*
D03*
X4048760Y3561980D02*
D03*
Y3351980D02*
D03*
X3818628Y2282600D02*
D03*
Y2492600D02*
D03*
X4051300D02*
D03*
Y2282600D02*
D03*
X5696320Y2012540D02*
D03*
Y1802540D02*
D03*
X1629000Y2230566D02*
D03*
Y2440566D02*
D03*
X1336639Y4401221D02*
D03*
Y4611221D02*
D03*
X6253050Y2187800D02*
D03*
Y1977800D02*
D03*
X1336639Y3883800D02*
D03*
Y4093800D02*
D03*
X1981200Y3556860D02*
D03*
Y3346860D02*
D03*
X6949440Y5304380D02*
D03*
Y5094380D02*
D03*
X4292396Y4651600D02*
D03*
Y4441600D02*
D03*
D86*
X5614100Y4216000D02*
D03*
X5664100D02*
D03*
X5714100D02*
D03*
Y4063600D02*
D03*
X5664100D02*
D03*
X5614100D02*
D03*
D87*
X5740400Y4164800D02*
D03*
Y4114800D02*
D03*
X5587800D02*
D03*
Y4164800D02*
D03*
D88*
X2623221Y372155D02*
D03*
X3237773D02*
D03*
X3240313Y903015D02*
D03*
X5042760Y3108960D02*
D03*
X4823460Y4439920D02*
D03*
X4469490Y3110589D02*
D03*
D89*
X6949300Y4867900D02*
D03*
Y4707900D02*
D03*
X7249300Y4867900D02*
D03*
Y4707900D02*
D03*
D90*
X8209074Y4152900D02*
D03*
X8419074D02*
D03*
X8666480Y1617980D02*
D03*
X8456480D02*
D03*
X7286391Y139700D02*
D03*
X7496391D02*
D03*
X6277200Y3594100D02*
D03*
X6067200D02*
D03*
X3119120Y3573780D02*
D03*
X2909120D02*
D03*
Y3340100D02*
D03*
X3119120D02*
D03*
X7772400Y5013960D02*
D03*
X7562400D02*
D03*
X8421780Y4368800D02*
D03*
X8631780D02*
D03*
X7877400Y673100D02*
D03*
X7667400D02*
D03*
X1629000Y2781300D02*
D03*
X1419000D02*
D03*
X6567580Y1892410D02*
D03*
X6777580D02*
D03*
X2234340Y3346860D02*
D03*
X2444340D02*
D03*
X4832760Y3632947D02*
D03*
X5042760D02*
D03*
X4814120Y3990340D02*
D03*
X5024120D02*
D03*
X1749200Y3845500D02*
D03*
X1959200D02*
D03*
Y4127500D02*
D03*
X1749200D02*
D03*
X7330829Y4439920D02*
D03*
X7120829D02*
D03*
X1036700Y500000D02*
D03*
X1246700D02*
D03*
X3559400Y4419600D02*
D03*
X3349400D02*
D03*
X7496391Y370840D02*
D03*
X7286391D02*
D03*
D91*
X5003800Y1158240D02*
D03*
Y1253240D02*
D03*
X5006340Y954871D02*
D03*
Y1049871D02*
D03*
D92*
X6548800Y2479900D02*
D03*
Y2289900D02*
D03*
X6760800Y2384900D02*
D03*
D93*
X197650Y1277150D02*
D03*
Y1531150D02*
D03*
Y1785150D02*
D03*
Y1023150D02*
D03*
X5554980Y5232400D02*
D03*
X5300980D02*
D03*
X5808980D02*
D03*
X6062980D02*
D03*
D94*
X197650Y2039150D02*
D03*
D95*
X8500000Y500000D02*
D03*
X500000D02*
D03*
Y5000000D02*
D03*
D96*
X7519610Y5303520D02*
D03*
X7773610D02*
D03*
X8027610D02*
D03*
X8281610D02*
D03*
X8535610D02*
D03*
D97*
X8789610D02*
D03*
D98*
X1968500Y5016500D02*
D03*
X2468500D02*
D03*
X495300Y3111500D02*
D03*
Y2611500D02*
D03*
Y4221100D02*
D03*
Y3721100D02*
D03*
D99*
X6316980Y5232400D02*
D03*
%TF.MD5,dc0edd8f0d70f777220b519d006e73e8*%
M02*
