%TF.GenerationSoftware,Altium Limited,Altium Designer,23.5.1 (21)*%
G04 Layer_Physical_Order=2*
G04 Layer_Color=36540*
%FSLAX45Y45*%
%MOMM*%
%TF.SameCoordinates,184668B5-E9FD-47B0-B020-163135FE076F*%
%TF.FilePolarity,Positive*%
%TF.FileFunction,Copper,L2,Inr,Signal*%
%TF.Part,Single*%
G01*
G75*
%TA.AperFunction,Conductor*%
%ADD11C,0.25400*%
%TA.AperFunction,ComponentPad*%
%ADD45C,0.46000*%
%ADD46C,3.75000*%
%ADD47C,1.65000*%
%ADD48R,1.65000X1.65000*%
%ADD49R,1.50000X1.50000*%
%ADD50C,1.50000*%
G04:AMPARAMS|DCode=51|XSize=2.1mm|YSize=1.4mm|CornerRadius=0.7mm|HoleSize=0mm|Usage=FLASHONLY|Rotation=90.000|XOffset=0mm|YOffset=0mm|HoleType=Round|Shape=RoundedRectangle|*
%AMROUNDEDRECTD51*
21,1,2.10000,0.00000,0,0,90.0*
21,1,0.70000,1.40000,0,0,90.0*
1,1,1.40000,0.00000,0.35000*
1,1,1.40000,0.00000,-0.35000*
1,1,1.40000,0.00000,-0.35000*
1,1,1.40000,0.00000,0.35000*
%
%ADD51ROUNDEDRECTD51*%
%ADD52R,1.65000X1.65000*%
%ADD53C,6.00000*%
%TA.AperFunction,ViaPad*%
%ADD54C,0.45000*%
%TA.AperFunction,Conductor*%
%ADD55R,1.47320X1.77800*%
%ADD56R,0.50800X1.77800*%
G36*
X8969414Y30586D02*
X4772403D01*
X4765949Y44181D01*
X4764677Y50906D01*
X4778782Y69288D01*
X4788395Y92495D01*
X4791673Y117400D01*
Y187400D01*
X4788395Y212305D01*
X4778782Y235512D01*
X4763490Y255440D01*
X4743562Y270732D01*
X4720355Y280345D01*
X4695450Y283623D01*
X4670546Y280345D01*
X4647338Y270732D01*
X4627410Y255440D01*
X4612119Y235512D01*
X4602506Y212305D01*
X4599227Y187400D01*
Y117400D01*
X4602506Y92495D01*
X4612119Y69288D01*
X4626223Y50906D01*
X4624951Y44181D01*
X4618497Y30586D01*
X3982404D01*
X3975949Y44181D01*
X3974677Y50906D01*
X3988782Y69288D01*
X3998395Y92495D01*
X4001673Y117400D01*
Y187400D01*
X3998395Y212305D01*
X3988782Y235512D01*
X3973490Y255440D01*
X3953562Y270732D01*
X3944297Y274569D01*
Y429970D01*
X3941340Y444836D01*
X3940606Y445934D01*
X3951468Y466254D01*
X5865671D01*
X5882347Y445933D01*
X5882062Y444500D01*
X5885779Y425810D01*
X5896366Y409966D01*
X5912210Y399379D01*
X5930900Y395662D01*
X5949590Y399379D01*
X5965434Y409966D01*
X5976021Y425810D01*
X5979738Y444500D01*
X5979453Y445933D01*
X5996129Y466254D01*
X8176250D01*
X8177613Y448939D01*
X8189569Y399135D01*
X8209170Y351815D01*
X8235932Y308143D01*
X8269196Y269196D01*
X8308143Y235932D01*
X8351815Y209170D01*
X8399135Y189569D01*
X8448939Y177613D01*
X8500000Y173594D01*
X8551061Y177613D01*
X8600865Y189569D01*
X8648185Y209170D01*
X8691857Y235932D01*
X8730804Y269196D01*
X8764068Y308143D01*
X8790830Y351815D01*
X8810431Y399135D01*
X8822387Y448939D01*
X8826406Y500000D01*
X8822387Y551061D01*
X8810431Y600865D01*
X8790830Y648185D01*
X8764068Y691857D01*
X8730804Y730804D01*
X8691857Y764068D01*
X8648185Y790830D01*
X8600865Y810431D01*
X8551061Y822387D01*
X8500000Y826406D01*
X8448939Y822387D01*
X8399135Y810431D01*
X8351815Y790830D01*
X8308143Y764068D01*
X8269196Y730804D01*
X8235932Y691857D01*
X8209170Y648185D01*
X8189569Y600865D01*
X8177613Y551061D01*
X8177053Y543947D01*
X5950522D01*
X5948521Y564267D01*
X5949590Y564479D01*
X5965434Y575066D01*
X5976021Y590910D01*
X5979738Y609600D01*
X5976021Y628290D01*
X5965434Y644134D01*
X5949590Y654721D01*
X5930900Y658438D01*
X5912210Y654721D01*
X5896366Y644134D01*
X5885779Y628290D01*
X5882062Y609600D01*
X5885779Y590910D01*
X5896366Y575066D01*
X5912210Y564479D01*
X5913279Y564267D01*
X5911278Y543947D01*
X822947D01*
X822387Y551061D01*
X810431Y600865D01*
X790830Y648185D01*
X764068Y691857D01*
X730804Y730804D01*
X691857Y764068D01*
X648185Y790830D01*
X600865Y810431D01*
X551061Y822387D01*
X538847Y823349D01*
Y2128312D01*
X535889Y2143178D01*
X527469Y2155781D01*
X177791Y2505458D01*
Y4654224D01*
X281907Y4758340D01*
X308143Y4735932D01*
X351815Y4709170D01*
X399135Y4689569D01*
X448939Y4677612D01*
X500000Y4673594D01*
X551061Y4677612D01*
X600865Y4689569D01*
X648185Y4709170D01*
X691857Y4735932D01*
X730804Y4769196D01*
X764068Y4808143D01*
X790830Y4851815D01*
X810431Y4899135D01*
X822387Y4948939D01*
X826406Y5000000D01*
X822387Y5051061D01*
X810431Y5100865D01*
X790830Y5148185D01*
X764068Y5191857D01*
X730804Y5230804D01*
X691857Y5264068D01*
X648185Y5290830D01*
X600865Y5310431D01*
X551061Y5322387D01*
X500000Y5326406D01*
X448939Y5322387D01*
X399135Y5310431D01*
X351815Y5290830D01*
X308143Y5264068D01*
X269196Y5230804D01*
X235932Y5191857D01*
X209170Y5148185D01*
X189569Y5100865D01*
X177613Y5051061D01*
X173594Y5000000D01*
X177613Y4948939D01*
X189569Y4899135D01*
X209170Y4851815D01*
X230576Y4816883D01*
X111476Y4697783D01*
X103055Y4685181D01*
X100098Y4670315D01*
Y2489368D01*
X103055Y2474502D01*
X111476Y2461899D01*
X461154Y2112222D01*
Y823349D01*
X448939Y822387D01*
X399135Y810431D01*
X351815Y790830D01*
X308143Y764068D01*
X269196Y730804D01*
X235932Y691857D01*
X209170Y648185D01*
X189569Y600865D01*
X177613Y551061D01*
X173594Y500000D01*
X177613Y448939D01*
X189569Y399135D01*
X209170Y351815D01*
X235932Y308143D01*
X269196Y269196D01*
X308143Y235932D01*
X351815Y209170D01*
X399135Y189569D01*
X448939Y177613D01*
X500000Y173594D01*
X551061Y177613D01*
X600865Y189569D01*
X648185Y209170D01*
X691857Y235932D01*
X730804Y269196D01*
X764068Y308143D01*
X790830Y351815D01*
X810431Y399135D01*
X822387Y448939D01*
X823750Y466254D01*
X3814229D01*
X3866604Y413879D01*
Y274569D01*
X3857338Y270732D01*
X3837410Y255440D01*
X3822119Y235512D01*
X3812506Y212305D01*
X3809227Y187400D01*
Y117400D01*
X3812506Y92495D01*
X3822119Y69288D01*
X3836223Y50906D01*
X3834951Y44181D01*
X3828497Y30586D01*
X30586D01*
Y5469413D01*
X4343400D01*
Y5359400D01*
X4724400D01*
Y5469413D01*
X8969414D01*
Y30586D01*
D02*
G37*
%LPC*%
G36*
X8890010Y5403920D02*
X8802312D01*
Y5316220D01*
X8890010D01*
Y5403920D01*
D02*
G37*
G36*
X8776912D02*
X8689210D01*
Y5316220D01*
X8776912D01*
Y5403920D01*
D02*
G37*
G36*
X5313680Y5339559D02*
Y5245100D01*
X5408139D01*
X5406103Y5260568D01*
X5395231Y5286815D01*
X5377935Y5309355D01*
X5355395Y5326651D01*
X5329148Y5337523D01*
X5313680Y5339559D01*
D02*
G37*
G36*
X5288280D02*
X5272812Y5337523D01*
X5246565Y5326651D01*
X5224025Y5309355D01*
X5206729Y5286815D01*
X5195857Y5260568D01*
X5193821Y5245100D01*
X5288280D01*
Y5339559D01*
D02*
G37*
G36*
X8890010Y5290820D02*
X8802312D01*
Y5203120D01*
X8890010D01*
Y5290820D01*
D02*
G37*
G36*
X8776912D02*
X8689210D01*
Y5203120D01*
X8776912D01*
Y5290820D01*
D02*
G37*
G36*
X8535610Y5404786D02*
X8509401Y5401336D01*
X8484977Y5391219D01*
X8464004Y5375126D01*
X8447911Y5354153D01*
X8437795Y5329730D01*
X8434344Y5303520D01*
X8437795Y5277310D01*
X8447911Y5252887D01*
X8464004Y5231914D01*
X8484977Y5215821D01*
X8509401Y5205704D01*
X8535610Y5202254D01*
X8561820Y5205704D01*
X8586243Y5215821D01*
X8607216Y5231914D01*
X8623309Y5252887D01*
X8633426Y5277310D01*
X8636877Y5303520D01*
X8633426Y5329730D01*
X8623309Y5354153D01*
X8607216Y5375126D01*
X8586243Y5391219D01*
X8561820Y5401336D01*
X8535610Y5404786D01*
D02*
G37*
G36*
X8281610D02*
X8255401Y5401336D01*
X8230977Y5391219D01*
X8210004Y5375126D01*
X8193911Y5354153D01*
X8183795Y5329730D01*
X8180344Y5303520D01*
X8183795Y5277310D01*
X8193911Y5252887D01*
X8210004Y5231914D01*
X8230977Y5215821D01*
X8255401Y5205704D01*
X8281610Y5202254D01*
X8307820Y5205704D01*
X8332243Y5215821D01*
X8353216Y5231914D01*
X8369309Y5252887D01*
X8379426Y5277310D01*
X8382877Y5303520D01*
X8379426Y5329730D01*
X8369309Y5354153D01*
X8353216Y5375126D01*
X8332243Y5391219D01*
X8307820Y5401336D01*
X8281610Y5404786D01*
D02*
G37*
G36*
X8027610D02*
X8001401Y5401336D01*
X7976977Y5391219D01*
X7956004Y5375126D01*
X7939911Y5354153D01*
X7929795Y5329730D01*
X7926344Y5303520D01*
X7929795Y5277310D01*
X7939911Y5252887D01*
X7956004Y5231914D01*
X7976977Y5215821D01*
X8001401Y5205704D01*
X8027610Y5202254D01*
X8053820Y5205704D01*
X8078243Y5215821D01*
X8099216Y5231914D01*
X8115309Y5252887D01*
X8125426Y5277310D01*
X8128877Y5303520D01*
X8125426Y5329730D01*
X8115309Y5354153D01*
X8099216Y5375126D01*
X8078243Y5391219D01*
X8053820Y5401336D01*
X8027610Y5404786D01*
D02*
G37*
G36*
X7773610D02*
X7747401Y5401336D01*
X7722977Y5391219D01*
X7702004Y5375126D01*
X7685911Y5354153D01*
X7675795Y5329730D01*
X7672344Y5303520D01*
X7675795Y5277310D01*
X7685911Y5252887D01*
X7702004Y5231914D01*
X7722977Y5215821D01*
X7747401Y5205704D01*
X7773610Y5202254D01*
X7799820Y5205704D01*
X7824243Y5215821D01*
X7845216Y5231914D01*
X7861309Y5252887D01*
X7871426Y5277310D01*
X7874877Y5303520D01*
X7871426Y5329730D01*
X7861309Y5354153D01*
X7845216Y5375126D01*
X7824243Y5391219D01*
X7799820Y5401336D01*
X7773610Y5404786D01*
D02*
G37*
G36*
X7519610D02*
X7493401Y5401336D01*
X7468977Y5391219D01*
X7448004Y5375126D01*
X7431911Y5354153D01*
X7421795Y5329730D01*
X7418344Y5303520D01*
X7421795Y5277310D01*
X7431911Y5252887D01*
X7448004Y5231914D01*
X7468977Y5215821D01*
X7493401Y5205704D01*
X7519610Y5202254D01*
X7545820Y5205704D01*
X7570243Y5215821D01*
X7591216Y5231914D01*
X7607309Y5252887D01*
X7617426Y5277310D01*
X7620877Y5303520D01*
X7617426Y5329730D01*
X7607309Y5354153D01*
X7591216Y5375126D01*
X7570243Y5391219D01*
X7545820Y5401336D01*
X7519610Y5404786D01*
D02*
G37*
G36*
X5408139Y5219700D02*
X5313680D01*
Y5125241D01*
X5329148Y5127277D01*
X5355395Y5138149D01*
X5377935Y5155445D01*
X5395231Y5177985D01*
X5406103Y5204232D01*
X5408139Y5219700D01*
D02*
G37*
G36*
X5288280D02*
X5193821D01*
X5195857Y5204232D01*
X5206729Y5177985D01*
X5224025Y5155445D01*
X5246565Y5138149D01*
X5272812Y5127277D01*
X5288280Y5125241D01*
Y5219700D01*
D02*
G37*
G36*
X6424880Y5340300D02*
X6209080D01*
Y5124500D01*
X6424880D01*
Y5340300D01*
D02*
G37*
G36*
X6062980Y5341231D02*
X6034812Y5337523D01*
X6008565Y5326651D01*
X5986025Y5309355D01*
X5968729Y5286815D01*
X5957857Y5260568D01*
X5954149Y5232400D01*
X5957857Y5204232D01*
X5968729Y5177985D01*
X5986025Y5155445D01*
X6008565Y5138149D01*
X6034812Y5127277D01*
X6062980Y5123569D01*
X6091148Y5127277D01*
X6117395Y5138149D01*
X6139935Y5155445D01*
X6157231Y5177985D01*
X6168103Y5204232D01*
X6171811Y5232400D01*
X6168103Y5260568D01*
X6157231Y5286815D01*
X6139935Y5309355D01*
X6117395Y5326651D01*
X6091148Y5337523D01*
X6062980Y5341231D01*
D02*
G37*
G36*
X5808980D02*
X5780812Y5337523D01*
X5754565Y5326651D01*
X5732025Y5309355D01*
X5714729Y5286815D01*
X5703857Y5260568D01*
X5700149Y5232400D01*
X5703857Y5204232D01*
X5714729Y5177985D01*
X5732025Y5155445D01*
X5754565Y5138149D01*
X5780812Y5127277D01*
X5808980Y5123569D01*
X5837148Y5127277D01*
X5863395Y5138149D01*
X5885935Y5155445D01*
X5903231Y5177985D01*
X5914103Y5204232D01*
X5917811Y5232400D01*
X5914103Y5260568D01*
X5903231Y5286815D01*
X5885935Y5309355D01*
X5863395Y5326651D01*
X5837148Y5337523D01*
X5808980Y5341231D01*
D02*
G37*
G36*
X5554980D02*
X5526812Y5337523D01*
X5500565Y5326651D01*
X5478025Y5309355D01*
X5460729Y5286815D01*
X5449857Y5260568D01*
X5446149Y5232400D01*
X5449857Y5204232D01*
X5460729Y5177985D01*
X5478025Y5155445D01*
X5500565Y5138149D01*
X5526812Y5127277D01*
X5554980Y5123569D01*
X5583148Y5127277D01*
X5609395Y5138149D01*
X5631935Y5155445D01*
X5649231Y5177985D01*
X5660103Y5204232D01*
X5663811Y5232400D01*
X5660103Y5260568D01*
X5649231Y5286815D01*
X5631935Y5309355D01*
X5609395Y5326651D01*
X5583148Y5337523D01*
X5554980Y5341231D01*
D02*
G37*
G36*
X3278853Y5154238D02*
X3260164Y5150521D01*
X3244320Y5139934D01*
X3233733Y5124090D01*
X3230015Y5105400D01*
X3233733Y5086710D01*
X3244320Y5070866D01*
X3260164Y5060279D01*
X3278853Y5056562D01*
X3297543Y5060279D01*
X3313387Y5070866D01*
X3323974Y5086710D01*
X3327692Y5105400D01*
X3323974Y5124090D01*
X3313387Y5139934D01*
X3297543Y5150521D01*
X3278853Y5154238D01*
D02*
G37*
G36*
X7249160Y5042478D02*
X7230470Y5038761D01*
X7214626Y5028174D01*
X7204039Y5012330D01*
X7200322Y4993640D01*
X7204039Y4974950D01*
X7214626Y4959106D01*
X7230470Y4948519D01*
X7249160Y4944802D01*
X7267850Y4948519D01*
X7283694Y4959106D01*
X7294281Y4974950D01*
X7297998Y4993640D01*
X7294281Y5012330D01*
X7283694Y5028174D01*
X7267850Y5038761D01*
X7249160Y5042478D01*
D02*
G37*
G36*
X3499588Y4976438D02*
X3480898Y4972721D01*
X3465054Y4962134D01*
X3454467Y4946290D01*
X3450749Y4927600D01*
X3454467Y4908910D01*
X3465054Y4893066D01*
X3480898Y4882479D01*
X3499588Y4878762D01*
X3518277Y4882479D01*
X3534121Y4893066D01*
X3544708Y4908910D01*
X3548426Y4927600D01*
X3544708Y4946290D01*
X3534121Y4962134D01*
X3518277Y4972721D01*
X3499588Y4976438D01*
D02*
G37*
G36*
X3281107D02*
X3262417Y4972721D01*
X3246573Y4962134D01*
X3235986Y4946290D01*
X3232269Y4927600D01*
X3235986Y4908910D01*
X3246573Y4893066D01*
X3262417Y4882479D01*
X3281107Y4878762D01*
X3299797Y4882479D01*
X3315641Y4893066D01*
X3326228Y4908910D01*
X3329945Y4927600D01*
X3326228Y4946290D01*
X3315641Y4962134D01*
X3299797Y4972721D01*
X3281107Y4976438D01*
D02*
G37*
G36*
X2468500Y5230430D02*
X2426764Y5226319D01*
X2386633Y5214146D01*
X2349647Y5194376D01*
X2317229Y5167771D01*
X2290624Y5135353D01*
X2270854Y5098368D01*
X2258681Y5058236D01*
X2254570Y5016500D01*
X2258681Y4974764D01*
X2270854Y4934632D01*
X2290624Y4897647D01*
X2317229Y4865229D01*
X2349647Y4838624D01*
X2386633Y4818854D01*
X2426764Y4806681D01*
X2468500Y4802570D01*
X2510236Y4806681D01*
X2550368Y4818854D01*
X2587353Y4838624D01*
X2619771Y4865229D01*
X2646376Y4897647D01*
X2666146Y4934632D01*
X2678320Y4974764D01*
X2682430Y5016500D01*
X2678320Y5058236D01*
X2666146Y5098368D01*
X2646376Y5135353D01*
X2619771Y5167771D01*
X2587353Y5194376D01*
X2550368Y5214146D01*
X2510236Y5226319D01*
X2468500Y5230430D01*
D02*
G37*
G36*
X1968500D02*
X1926764Y5226319D01*
X1886632Y5214146D01*
X1849647Y5194376D01*
X1817229Y5167771D01*
X1790624Y5135353D01*
X1770854Y5098368D01*
X1758681Y5058236D01*
X1754570Y5016500D01*
X1758681Y4974764D01*
X1770854Y4934632D01*
X1790624Y4897647D01*
X1817229Y4865229D01*
X1849647Y4838624D01*
X1886632Y4818854D01*
X1926764Y4806681D01*
X1968500Y4802570D01*
X2010236Y4806681D01*
X2050368Y4818854D01*
X2087353Y4838624D01*
X2119771Y4865229D01*
X2146376Y4897647D01*
X2166146Y4934632D01*
X2178319Y4974764D01*
X2182430Y5016500D01*
X2178319Y5058236D01*
X2166146Y5098368D01*
X2146376Y5135353D01*
X2119771Y5167771D01*
X2087353Y5194376D01*
X2050368Y5214146D01*
X2010236Y5226319D01*
X1968500Y5230430D01*
D02*
G37*
G36*
X8721889Y4689418D02*
X8703200Y4685701D01*
X8687355Y4675114D01*
X8676769Y4659270D01*
X8673051Y4640580D01*
X8676769Y4621890D01*
X8687355Y4606046D01*
X8698605Y4598529D01*
X8700083Y4592255D01*
Y4582225D01*
X8698605Y4575951D01*
X8687355Y4568434D01*
X8676769Y4552590D01*
X8673051Y4533900D01*
X8676769Y4515210D01*
X8687355Y4499366D01*
X8703200Y4488779D01*
X8721889Y4485062D01*
X8740579Y4488779D01*
X8756423Y4499366D01*
X8767010Y4515210D01*
X8770728Y4533900D01*
X8767010Y4552590D01*
X8756423Y4568434D01*
X8745174Y4575951D01*
X8743696Y4582225D01*
Y4592255D01*
X8745174Y4598529D01*
X8756423Y4606046D01*
X8767010Y4621890D01*
X8770728Y4640580D01*
X8767010Y4659270D01*
X8756423Y4675114D01*
X8740579Y4685701D01*
X8721889Y4689418D01*
D02*
G37*
G36*
X1860910Y4450059D02*
X1842221Y4446342D01*
X1826377Y4435755D01*
X1815790Y4419910D01*
X1812072Y4401221D01*
X1815790Y4382531D01*
X1826377Y4366687D01*
X1842221Y4356100D01*
X1860910Y4352382D01*
X1879600Y4356100D01*
X1895444Y4366687D01*
X1906031Y4382531D01*
X1909749Y4401221D01*
X1906031Y4419910D01*
X1895444Y4435755D01*
X1879600Y4446342D01*
X1860910Y4450059D01*
D02*
G37*
G36*
X5156200Y4417638D02*
X5137510Y4413921D01*
X5121666Y4403334D01*
X5111079Y4387490D01*
X5107362Y4368800D01*
X5111079Y4350110D01*
X5121666Y4334266D01*
X5137510Y4323679D01*
X5156200Y4319962D01*
X5174890Y4323679D01*
X5190734Y4334266D01*
X5201321Y4350110D01*
X5205038Y4368800D01*
X5201321Y4387490D01*
X5190734Y4403334D01*
X5174890Y4413921D01*
X5156200Y4417638D01*
D02*
G37*
G36*
X5778400Y4133138D02*
X5759710Y4129421D01*
X5743866Y4118834D01*
X5733279Y4102990D01*
X5729562Y4084300D01*
X5733279Y4065610D01*
X5743866Y4049766D01*
X5759710Y4039179D01*
X5778400Y4035462D01*
X5797089Y4039179D01*
X5812934Y4049766D01*
X5823521Y4065610D01*
X5827238Y4084300D01*
X5823521Y4102990D01*
X5812934Y4118834D01*
X5797089Y4129421D01*
X5778400Y4133138D01*
D02*
G37*
G36*
X495300Y4435030D02*
X453564Y4430920D01*
X413432Y4418746D01*
X376447Y4398976D01*
X344029Y4372371D01*
X317424Y4339953D01*
X297654Y4302968D01*
X285481Y4262836D01*
X281370Y4221100D01*
X285481Y4179364D01*
X297654Y4139233D01*
X317424Y4102247D01*
X344029Y4069829D01*
X376447Y4043224D01*
X413432Y4023454D01*
X453564Y4011281D01*
X495300Y4007170D01*
X537036Y4011281D01*
X577168Y4023454D01*
X614153Y4043224D01*
X646571Y4069829D01*
X673176Y4102247D01*
X692946Y4139233D01*
X705119Y4179364D01*
X709230Y4221100D01*
X705119Y4262836D01*
X692946Y4302968D01*
X673176Y4339953D01*
X646571Y4372371D01*
X614153Y4398976D01*
X577168Y4418746D01*
X537036Y4430920D01*
X495300Y4435030D01*
D02*
G37*
G36*
X7645400Y4074174D02*
X7626710Y4070457D01*
X7610866Y4059870D01*
X7600279Y4044026D01*
X7596562Y4025336D01*
X7600279Y4006647D01*
X7610866Y3990802D01*
X7626710Y3980215D01*
X7645400Y3976498D01*
X7664090Y3980215D01*
X7679934Y3990802D01*
X7690521Y4006647D01*
X7694238Y4025336D01*
X7690521Y4044026D01*
X7679934Y4059870D01*
X7664090Y4070457D01*
X7645400Y4074174D01*
D02*
G37*
G36*
X7518400D02*
X7499710Y4070457D01*
X7483866Y4059870D01*
X7473279Y4044026D01*
X7469562Y4025336D01*
X7473279Y4006647D01*
X7483866Y3990802D01*
X7499710Y3980215D01*
X7518400Y3976498D01*
X7537090Y3980215D01*
X7552934Y3990802D01*
X7563521Y4006647D01*
X7567238Y4025336D01*
X7563521Y4044026D01*
X7552934Y4059870D01*
X7537090Y4070457D01*
X7518400Y4074174D01*
D02*
G37*
G36*
X5278120Y4041718D02*
X5259430Y4038001D01*
X5243586Y4027414D01*
X5232999Y4011570D01*
X5229282Y3992880D01*
X5232999Y3974190D01*
X5243586Y3958346D01*
X5259430Y3947759D01*
X5278120Y3944042D01*
X5296810Y3947759D01*
X5312654Y3958346D01*
X5323241Y3974190D01*
X5326958Y3992880D01*
X5323241Y4011570D01*
X5312654Y4027414D01*
X5296810Y4038001D01*
X5278120Y4041718D01*
D02*
G37*
G36*
X4053840Y3959640D02*
X4035150Y3955923D01*
X4019306Y3945336D01*
X4008719Y3929492D01*
X4008146Y3926609D01*
X3987428D01*
X3987201Y3927750D01*
X3976614Y3943594D01*
X3960770Y3954181D01*
X3942080Y3957898D01*
X3923390Y3954181D01*
X3907546Y3943594D01*
X3896959Y3927750D01*
X3893242Y3909060D01*
X3896959Y3890370D01*
X3907546Y3874526D01*
X3923390Y3863939D01*
X3942080Y3860222D01*
X3960770Y3863939D01*
X3976614Y3874526D01*
X3987201Y3890370D01*
X3987774Y3893253D01*
X4008492D01*
X4008719Y3892112D01*
X4019306Y3876268D01*
X4035150Y3865681D01*
X4053840Y3861964D01*
X4072530Y3865681D01*
X4088374Y3876268D01*
X4098961Y3892112D01*
X4102678Y3910802D01*
X4098961Y3929492D01*
X4088374Y3945336D01*
X4072530Y3955923D01*
X4053840Y3959640D01*
D02*
G37*
G36*
X3672840Y3957898D02*
X3654150Y3954181D01*
X3638306Y3943594D01*
X3627719Y3927750D01*
X3624002Y3909060D01*
X3627719Y3890370D01*
X3638306Y3874526D01*
X3654150Y3863939D01*
X3672840Y3860222D01*
X3691530Y3863939D01*
X3707374Y3874526D01*
X3717961Y3890370D01*
X3721678Y3909060D01*
X3717961Y3927750D01*
X3707374Y3943594D01*
X3691530Y3954181D01*
X3672840Y3957898D01*
D02*
G37*
G36*
X3522980D02*
X3504290Y3954181D01*
X3488446Y3943594D01*
X3477859Y3927750D01*
X3474142Y3909060D01*
X3477859Y3890370D01*
X3488446Y3874526D01*
X3504290Y3863939D01*
X3522980Y3860222D01*
X3541670Y3863939D01*
X3557514Y3874526D01*
X3568101Y3890370D01*
X3571818Y3909060D01*
X3568101Y3927750D01*
X3557514Y3943594D01*
X3541670Y3954181D01*
X3522980Y3957898D01*
D02*
G37*
G36*
X3804920Y3955358D02*
X3786230Y3951641D01*
X3770386Y3941054D01*
X3759799Y3925210D01*
X3756082Y3906520D01*
X3759799Y3887830D01*
X3770386Y3871986D01*
X3786230Y3861399D01*
X3804920Y3857682D01*
X3823610Y3861399D01*
X3839454Y3871986D01*
X3850041Y3887830D01*
X3853758Y3906520D01*
X3850041Y3925210D01*
X3839454Y3941054D01*
X3823610Y3951641D01*
X3804920Y3955358D01*
D02*
G37*
G36*
X5664100Y3911135D02*
X5645410Y3907418D01*
X5629566Y3896831D01*
X5618979Y3880987D01*
X5615262Y3862297D01*
X5618979Y3843608D01*
X5629566Y3827763D01*
X5645410Y3817176D01*
X5664100Y3813459D01*
X5682789Y3817176D01*
X5698634Y3827763D01*
X5709221Y3843608D01*
X5712938Y3862297D01*
X5709221Y3880987D01*
X5698634Y3896831D01*
X5682789Y3907418D01*
X5664100Y3911135D01*
D02*
G37*
G36*
X2181800Y3894338D02*
X2163110Y3890621D01*
X2147266Y3880034D01*
X2136679Y3864190D01*
X2132962Y3845500D01*
X2136679Y3826810D01*
X2147266Y3810966D01*
X2163110Y3800379D01*
X2181800Y3796662D01*
X2200490Y3800379D01*
X2216334Y3810966D01*
X2226921Y3826810D01*
X2230638Y3845500D01*
X2226921Y3864190D01*
X2216334Y3880034D01*
X2200490Y3890621D01*
X2181800Y3894338D01*
D02*
G37*
G36*
X3672840Y3826632D02*
X3654150Y3822915D01*
X3638306Y3812328D01*
X3627719Y3796483D01*
X3624002Y3777794D01*
X3627719Y3759104D01*
X3638306Y3743260D01*
X3654150Y3732673D01*
X3672840Y3728955D01*
X3691530Y3732673D01*
X3707374Y3743260D01*
X3717961Y3759104D01*
X3721678Y3777794D01*
X3717961Y3796483D01*
X3707374Y3812328D01*
X3691530Y3822915D01*
X3672840Y3826632D01*
D02*
G37*
G36*
X3804920Y3823278D02*
X3786230Y3819561D01*
X3770386Y3808974D01*
X3759799Y3793130D01*
X3756082Y3774440D01*
X3759799Y3755750D01*
X3770386Y3739906D01*
X3786230Y3729319D01*
X3804920Y3725602D01*
X3823610Y3729319D01*
X3839454Y3739906D01*
X3850041Y3755750D01*
X3853758Y3774440D01*
X3850041Y3793130D01*
X3839454Y3808974D01*
X3823610Y3819561D01*
X3804920Y3823278D01*
D02*
G37*
G36*
X4053840Y3821236D02*
X4035150Y3817518D01*
X4019306Y3806931D01*
X4008719Y3791087D01*
X4005002Y3772398D01*
X4008719Y3753708D01*
X4019306Y3737864D01*
X4035150Y3727277D01*
X4053840Y3723559D01*
X4072530Y3727277D01*
X4088374Y3737864D01*
X4098961Y3753708D01*
X4102678Y3772398D01*
X4098961Y3791087D01*
X4088374Y3806931D01*
X4072530Y3817518D01*
X4053840Y3821236D01*
D02*
G37*
G36*
X3934460D02*
X3915770Y3817518D01*
X3899926Y3806931D01*
X3889339Y3791087D01*
X3885622Y3772398D01*
X3889339Y3753708D01*
X3899926Y3737864D01*
X3915770Y3727277D01*
X3934460Y3723559D01*
X3953150Y3727277D01*
X3968994Y3737864D01*
X3979581Y3753708D01*
X3983298Y3772398D01*
X3979581Y3791087D01*
X3968994Y3806931D01*
X3953150Y3817518D01*
X3934460Y3821236D01*
D02*
G37*
G36*
X5715000Y3717838D02*
X5696310Y3714121D01*
X5680466Y3703534D01*
X5669879Y3687690D01*
X5666162Y3669000D01*
X5669879Y3650310D01*
X5680466Y3634466D01*
X5696310Y3623879D01*
X5715000Y3620162D01*
X5733690Y3623879D01*
X5749534Y3634466D01*
X5760121Y3650310D01*
X5763838Y3669000D01*
X5760121Y3687690D01*
X5749534Y3703534D01*
X5733690Y3714121D01*
X5715000Y3717838D01*
D02*
G37*
G36*
X8661400Y3693738D02*
X8642710Y3690021D01*
X8626866Y3679434D01*
X8616279Y3663590D01*
X8612562Y3644900D01*
X8616279Y3626210D01*
X8626866Y3610366D01*
X8642710Y3599779D01*
X8661400Y3596062D01*
X8680090Y3599779D01*
X8695934Y3610366D01*
X8706521Y3626210D01*
X8710238Y3644900D01*
X8706521Y3663590D01*
X8695934Y3679434D01*
X8680090Y3690021D01*
X8661400Y3693738D01*
D02*
G37*
G36*
X495300Y3935030D02*
X453564Y3930919D01*
X413432Y3918746D01*
X376447Y3898976D01*
X344029Y3872371D01*
X317424Y3839953D01*
X297654Y3802968D01*
X285481Y3762836D01*
X281370Y3721100D01*
X285481Y3679364D01*
X297654Y3639232D01*
X317424Y3602247D01*
X344029Y3569829D01*
X376447Y3543224D01*
X413432Y3523454D01*
X453564Y3511281D01*
X495300Y3507170D01*
X537036Y3511281D01*
X577168Y3523454D01*
X614153Y3543224D01*
X646571Y3569829D01*
X673176Y3602247D01*
X692946Y3639232D01*
X705119Y3679364D01*
X709230Y3721100D01*
X705119Y3762836D01*
X692946Y3802968D01*
X673176Y3839953D01*
X646571Y3872371D01*
X614153Y3898976D01*
X577168Y3918746D01*
X537036Y3930919D01*
X495300Y3935030D01*
D02*
G37*
G36*
X3155949Y3236538D02*
X3137260Y3232821D01*
X3128991Y3227295D01*
X3114675Y3223854D01*
X3100359Y3227295D01*
X3092090Y3232821D01*
X3073400Y3236538D01*
X3054710Y3232821D01*
X3038866Y3222234D01*
X3028279Y3206390D01*
X3024562Y3187700D01*
X3028279Y3169010D01*
X3038866Y3153166D01*
X3054710Y3142579D01*
X3073400Y3138862D01*
X3092090Y3142579D01*
X3100359Y3148105D01*
X3114675Y3151546D01*
X3128991Y3148105D01*
X3137260Y3142579D01*
X3155949Y3138862D01*
X3174639Y3142579D01*
X3181985Y3147488D01*
X3203966Y3151166D01*
X3219810Y3140579D01*
X3238500Y3136862D01*
X3257190Y3140579D01*
X3273034Y3151166D01*
X3283621Y3167010D01*
X3287338Y3185700D01*
X3283621Y3204390D01*
X3273034Y3220234D01*
X3257190Y3230821D01*
X3238500Y3234538D01*
X3219810Y3230821D01*
X3212464Y3225912D01*
X3190483Y3222234D01*
X3174639Y3232821D01*
X3155949Y3236538D01*
D02*
G37*
G36*
X6284660Y3122938D02*
X6265970Y3119221D01*
X6250126Y3108634D01*
X6239539Y3092790D01*
X6235822Y3074100D01*
X6239539Y3055410D01*
X6250126Y3039566D01*
X6265970Y3028979D01*
X6284660Y3025262D01*
X6303350Y3028979D01*
X6319194Y3039566D01*
X6329781Y3055410D01*
X6333498Y3074100D01*
X6329781Y3092790D01*
X6319194Y3108634D01*
X6303350Y3119221D01*
X6284660Y3122938D01*
D02*
G37*
G36*
X6400800Y3029338D02*
X6382110Y3025621D01*
X6366266Y3015034D01*
X6355679Y2999190D01*
X6351962Y2980500D01*
X6355679Y2961810D01*
X6366266Y2945966D01*
X6382110Y2935379D01*
X6400800Y2931662D01*
X6419490Y2935379D01*
X6435334Y2945966D01*
X6445921Y2961810D01*
X6449638Y2980500D01*
X6445921Y2999190D01*
X6435334Y3015034D01*
X6419490Y3025621D01*
X6400800Y3029338D01*
D02*
G37*
G36*
X495300Y3325430D02*
X453564Y3321319D01*
X413432Y3309146D01*
X376447Y3289376D01*
X344029Y3262771D01*
X317424Y3230353D01*
X297654Y3193368D01*
X285481Y3153236D01*
X281370Y3111500D01*
X285481Y3069764D01*
X297654Y3029632D01*
X317424Y2992647D01*
X344029Y2960229D01*
X376447Y2933624D01*
X413432Y2913854D01*
X453564Y2901681D01*
X495300Y2897570D01*
X537036Y2901681D01*
X577168Y2913854D01*
X614153Y2933624D01*
X646571Y2960229D01*
X673176Y2992647D01*
X692946Y3029632D01*
X705119Y3069764D01*
X709230Y3111500D01*
X705119Y3153236D01*
X692946Y3193368D01*
X673176Y3230353D01*
X646571Y3262771D01*
X614153Y3289376D01*
X577168Y3309146D01*
X537036Y3321319D01*
X495300Y3325430D01*
D02*
G37*
G36*
X2446020Y2916498D02*
X2427330Y2912781D01*
X2411486Y2902194D01*
X2400899Y2886350D01*
X2397182Y2867660D01*
X2400899Y2848970D01*
X2411486Y2833126D01*
X2427330Y2822539D01*
X2446020Y2818822D01*
X2464710Y2822539D01*
X2480554Y2833126D01*
X2491141Y2848970D01*
X2494858Y2867660D01*
X2491141Y2886350D01*
X2480554Y2902194D01*
X2464710Y2912781D01*
X2446020Y2916498D01*
D02*
G37*
G36*
X5264941Y2746318D02*
X5246251Y2742601D01*
X5230407Y2732014D01*
X5219820Y2716170D01*
X5216103Y2697480D01*
X5219820Y2678790D01*
X5230407Y2662946D01*
X5246251Y2652359D01*
X5264941Y2648642D01*
X5283631Y2652359D01*
X5299475Y2662946D01*
X5310062Y2678790D01*
X5313779Y2697480D01*
X5310062Y2716170D01*
X5299475Y2732014D01*
X5283631Y2742601D01*
X5264941Y2746318D01*
D02*
G37*
G36*
X8280400Y2741238D02*
X8261710Y2737521D01*
X8245866Y2726934D01*
X8235279Y2711090D01*
X8231562Y2692400D01*
X8235279Y2673710D01*
X8245866Y2657866D01*
X8261710Y2647279D01*
X8280400Y2643562D01*
X8299090Y2647279D01*
X8314934Y2657866D01*
X8325521Y2673710D01*
X8329238Y2692400D01*
X8325521Y2711090D01*
X8314934Y2726934D01*
X8299090Y2737521D01*
X8280400Y2741238D01*
D02*
G37*
G36*
X8661400Y2550738D02*
X8642710Y2547021D01*
X8626866Y2536434D01*
X8616279Y2520590D01*
X8612562Y2501900D01*
X8616279Y2483210D01*
X8626866Y2467366D01*
X8642710Y2456779D01*
X8661400Y2453062D01*
X8680090Y2456779D01*
X8695934Y2467366D01*
X8706521Y2483210D01*
X8710238Y2501900D01*
X8706521Y2520590D01*
X8695934Y2536434D01*
X8680090Y2547021D01*
X8661400Y2550738D01*
D02*
G37*
G36*
X7645400Y2545658D02*
X7626710Y2541941D01*
X7610866Y2531354D01*
X7600279Y2515510D01*
X7596562Y2496820D01*
X7600279Y2478130D01*
X7610866Y2462286D01*
X7626710Y2451699D01*
X7645400Y2447982D01*
X7664090Y2451699D01*
X7679934Y2462286D01*
X7690521Y2478130D01*
X7694238Y2496820D01*
X7690521Y2515510D01*
X7679934Y2531354D01*
X7664090Y2541941D01*
X7645400Y2545658D01*
D02*
G37*
G36*
X495300Y2825430D02*
X453564Y2821319D01*
X413432Y2809146D01*
X376447Y2789376D01*
X344029Y2762771D01*
X317424Y2730353D01*
X297654Y2693367D01*
X285481Y2653236D01*
X281370Y2611500D01*
X285481Y2569764D01*
X297654Y2529632D01*
X317424Y2492647D01*
X344029Y2460229D01*
X376447Y2433624D01*
X413432Y2413854D01*
X453564Y2401680D01*
X495300Y2397570D01*
X537036Y2401680D01*
X577168Y2413854D01*
X614153Y2433624D01*
X646571Y2460229D01*
X673176Y2492647D01*
X692946Y2529632D01*
X705119Y2569764D01*
X709230Y2611500D01*
X705119Y2653236D01*
X692946Y2693367D01*
X673176Y2730353D01*
X646571Y2762771D01*
X614153Y2789376D01*
X577168Y2809146D01*
X537036Y2821319D01*
X495300Y2825430D01*
D02*
G37*
G36*
X7518400Y2471998D02*
X7499710Y2468281D01*
X7483866Y2457694D01*
X7473279Y2441850D01*
X7469562Y2423160D01*
X7473279Y2404470D01*
X7483866Y2388626D01*
X7499710Y2378039D01*
X7518400Y2374322D01*
X7537090Y2378039D01*
X7552934Y2388626D01*
X7563521Y2404470D01*
X7567238Y2423160D01*
X7563521Y2441850D01*
X7552934Y2457694D01*
X7537090Y2468281D01*
X7518400Y2471998D01*
D02*
G37*
G36*
X2527300Y2461838D02*
X2508610Y2458121D01*
X2492766Y2447534D01*
X2482179Y2431690D01*
X2478462Y2413000D01*
X2482179Y2394310D01*
X2492766Y2378466D01*
X2508610Y2367879D01*
X2527300Y2364162D01*
X2545990Y2367879D01*
X2561834Y2378466D01*
X2572421Y2394310D01*
X2576138Y2413000D01*
X2572421Y2431690D01*
X2561834Y2447534D01*
X2545990Y2458121D01*
X2527300Y2461838D01*
D02*
G37*
G36*
X3655060Y2334838D02*
X3636370Y2331121D01*
X3620526Y2320534D01*
X3609939Y2304690D01*
X3606222Y2286000D01*
X3609939Y2267310D01*
X3620526Y2251466D01*
X3636370Y2240879D01*
X3655060Y2237162D01*
X3673750Y2240879D01*
X3689594Y2251466D01*
X3700181Y2267310D01*
X3703898Y2286000D01*
X3700181Y2304690D01*
X3689594Y2320534D01*
X3673750Y2331121D01*
X3655060Y2334838D01*
D02*
G37*
G36*
X7391400Y2317058D02*
X7372710Y2313341D01*
X7356866Y2302754D01*
X7346279Y2286910D01*
X7342562Y2268220D01*
X7346279Y2249530D01*
X7356866Y2233686D01*
X7372710Y2223099D01*
X7391400Y2219382D01*
X7410090Y2223099D01*
X7425934Y2233686D01*
X7436521Y2249530D01*
X7440238Y2268220D01*
X7436521Y2286910D01*
X7425934Y2302754D01*
X7410090Y2313341D01*
X7391400Y2317058D01*
D02*
G37*
G36*
X2794000Y2258638D02*
X2775310Y2254921D01*
X2759466Y2244334D01*
X2748879Y2228490D01*
X2745162Y2209800D01*
X2748879Y2191110D01*
X2759466Y2175266D01*
X2775310Y2164679D01*
X2794000Y2160962D01*
X2812690Y2164679D01*
X2828534Y2175266D01*
X2839121Y2191110D01*
X2842838Y2209800D01*
X2839121Y2228490D01*
X2828534Y2244334D01*
X2812690Y2254921D01*
X2794000Y2258638D01*
D02*
G37*
G36*
X6957060Y2162118D02*
X6938370Y2158401D01*
X6922526Y2147814D01*
X6911939Y2131970D01*
X6908222Y2113280D01*
X6911939Y2094590D01*
X6922526Y2078746D01*
X6938370Y2068159D01*
X6957060Y2064442D01*
X6975750Y2068159D01*
X6991594Y2078746D01*
X7002181Y2094590D01*
X7005898Y2113280D01*
X7002181Y2131970D01*
X6991594Y2147814D01*
X6975750Y2158401D01*
X6957060Y2162118D01*
D02*
G37*
G36*
X6002020D02*
X5983330Y2158401D01*
X5967486Y2147814D01*
X5956899Y2131970D01*
X5953182Y2113280D01*
X5956899Y2094590D01*
X5967486Y2078746D01*
X5983330Y2068159D01*
X6002020Y2064442D01*
X6020710Y2068159D01*
X6036554Y2078746D01*
X6047141Y2094590D01*
X6050858Y2113280D01*
X6047141Y2131970D01*
X6036554Y2147814D01*
X6020710Y2158401D01*
X6002020Y2162118D01*
D02*
G37*
G36*
X305550Y2147050D02*
X89750D01*
Y1931250D01*
X305550D01*
Y2147050D01*
D02*
G37*
G36*
X8140700Y1953838D02*
X8122010Y1950121D01*
X8106166Y1939534D01*
X8095579Y1923690D01*
X8091861Y1905000D01*
X8095579Y1886310D01*
X8106166Y1870466D01*
X8122010Y1859879D01*
X8140700Y1856162D01*
X8159389Y1859879D01*
X8175234Y1870466D01*
X8185821Y1886310D01*
X8189538Y1905000D01*
X8185821Y1923690D01*
X8175234Y1939534D01*
X8159389Y1950121D01*
X8140700Y1953838D01*
D02*
G37*
G36*
X7901600D02*
X7882911Y1950121D01*
X7867066Y1939534D01*
X7856479Y1923690D01*
X7852762Y1905000D01*
X7856479Y1886310D01*
X7867066Y1870466D01*
X7882911Y1859879D01*
X7901600Y1856162D01*
X7920290Y1859879D01*
X7936134Y1870466D01*
X7946721Y1886310D01*
X7950439Y1905000D01*
X7946721Y1923690D01*
X7936134Y1939534D01*
X7920290Y1950121D01*
X7901600Y1953838D01*
D02*
G37*
G36*
X7327900D02*
X7309210Y1950121D01*
X7293366Y1939534D01*
X7282779Y1923690D01*
X7279062Y1905000D01*
X7282779Y1886310D01*
X7293366Y1870466D01*
X7309210Y1859879D01*
X7327900Y1856162D01*
X7346590Y1859879D01*
X7362434Y1870466D01*
X7373021Y1886310D01*
X7376738Y1905000D01*
X7373021Y1923690D01*
X7362434Y1939534D01*
X7346590Y1950121D01*
X7327900Y1953838D01*
D02*
G37*
G36*
X2768600Y1928438D02*
X2749910Y1924721D01*
X2734066Y1914134D01*
X2723479Y1898290D01*
X2719762Y1879600D01*
X2723479Y1860910D01*
X2734066Y1845066D01*
X2749910Y1834479D01*
X2768600Y1830762D01*
X2787290Y1834479D01*
X2803134Y1845066D01*
X2813721Y1860910D01*
X2817438Y1879600D01*
X2813721Y1898290D01*
X2803134Y1914134D01*
X2787290Y1924721D01*
X2768600Y1928438D01*
D02*
G37*
G36*
X8699500Y1915738D02*
X8680810Y1912021D01*
X8664966Y1901434D01*
X8654379Y1885590D01*
X8650662Y1866900D01*
X8654379Y1848210D01*
X8664966Y1832366D01*
X8680810Y1821779D01*
X8699500Y1818062D01*
X8718190Y1821779D01*
X8734034Y1832366D01*
X8744621Y1848210D01*
X8748338Y1866900D01*
X8744621Y1885590D01*
X8734034Y1901434D01*
X8718190Y1912021D01*
X8699500Y1915738D01*
D02*
G37*
G36*
X4061460Y1801438D02*
X4042770Y1797721D01*
X4026926Y1787134D01*
X4016339Y1771290D01*
X4012622Y1752600D01*
X4016339Y1733910D01*
X4026926Y1718066D01*
X4042770Y1707479D01*
X4061460Y1703762D01*
X4080150Y1707479D01*
X4095994Y1718066D01*
X4106581Y1733910D01*
X4110298Y1752600D01*
X4106581Y1771290D01*
X4095994Y1787134D01*
X4080150Y1797721D01*
X4061460Y1801438D01*
D02*
G37*
G36*
X197650Y1893981D02*
X169483Y1890273D01*
X143235Y1879401D01*
X120695Y1862105D01*
X103400Y1839566D01*
X92527Y1813318D01*
X88819Y1785150D01*
X92527Y1756983D01*
X103400Y1730735D01*
X120695Y1708195D01*
X143235Y1690900D01*
X169483Y1680027D01*
X197650Y1676319D01*
X225818Y1680027D01*
X252066Y1690900D01*
X274605Y1708195D01*
X291901Y1730735D01*
X302773Y1756983D01*
X306481Y1785150D01*
X302773Y1813318D01*
X291901Y1839566D01*
X274605Y1862105D01*
X252066Y1879401D01*
X225818Y1890273D01*
X197650Y1893981D01*
D02*
G37*
G36*
X2578100Y1699838D02*
X2559410Y1696121D01*
X2543566Y1685534D01*
X2532979Y1669690D01*
X2529262Y1651000D01*
X2532979Y1632310D01*
X2543566Y1616466D01*
X2559410Y1605879D01*
X2578100Y1602162D01*
X2596790Y1605879D01*
X2612634Y1616466D01*
X2623221Y1632310D01*
X2626938Y1651000D01*
X2623221Y1669690D01*
X2612634Y1685534D01*
X2596790Y1696121D01*
X2578100Y1699838D01*
D02*
G37*
G36*
X8801100Y1666818D02*
X8782410Y1663101D01*
X8766566Y1652514D01*
X8755979Y1636670D01*
X8752262Y1617980D01*
X8755979Y1599290D01*
X8766566Y1583446D01*
X8782410Y1572859D01*
X8801100Y1569142D01*
X8819790Y1572859D01*
X8835634Y1583446D01*
X8846221Y1599290D01*
X8849938Y1617980D01*
X8846221Y1636670D01*
X8835634Y1652514D01*
X8819790Y1663101D01*
X8801100Y1666818D01*
D02*
G37*
G36*
X197650Y1639981D02*
X169483Y1636273D01*
X143235Y1625401D01*
X120695Y1608105D01*
X103400Y1585566D01*
X92527Y1559318D01*
X88819Y1531150D01*
X92527Y1502983D01*
X103400Y1476735D01*
X120695Y1454195D01*
X143235Y1436900D01*
X169483Y1426027D01*
X197650Y1422319D01*
X225818Y1426027D01*
X252066Y1436900D01*
X274605Y1454195D01*
X291901Y1476735D01*
X302773Y1502983D01*
X306481Y1531150D01*
X302773Y1559318D01*
X291901Y1585566D01*
X274605Y1608105D01*
X252066Y1625401D01*
X225818Y1636273D01*
X197650Y1639981D01*
D02*
G37*
G36*
X4010660Y1443298D02*
X3991970Y1439581D01*
X3976126Y1428994D01*
X3965539Y1413150D01*
X3961822Y1394460D01*
X3965539Y1375770D01*
X3976126Y1359926D01*
X3991970Y1349339D01*
X4010660Y1345622D01*
X4029350Y1349339D01*
X4045194Y1359926D01*
X4055781Y1375770D01*
X4059498Y1394460D01*
X4055781Y1413150D01*
X4045194Y1428994D01*
X4029350Y1439581D01*
X4010660Y1443298D01*
D02*
G37*
G36*
X6379300Y1365742D02*
X6360610Y1362024D01*
X6344766Y1351437D01*
X6334179Y1335593D01*
X6330462Y1316903D01*
X6334179Y1298214D01*
X6344766Y1282370D01*
X6360610Y1271783D01*
X6379300Y1268065D01*
X6397989Y1271783D01*
X6413834Y1282370D01*
X6424421Y1298214D01*
X6428138Y1316903D01*
X6424421Y1335593D01*
X6413834Y1351437D01*
X6397989Y1362024D01*
X6379300Y1365742D01*
D02*
G37*
G36*
X6774180Y1341118D02*
X6755490Y1337401D01*
X6739646Y1326814D01*
X6729059Y1310970D01*
X6725342Y1292280D01*
X6729059Y1273591D01*
X6739646Y1257746D01*
X6755490Y1247159D01*
X6774180Y1243442D01*
X6792870Y1247159D01*
X6808714Y1257746D01*
X6819301Y1273591D01*
X6823018Y1292280D01*
X6819301Y1310970D01*
X6808714Y1326814D01*
X6792870Y1337401D01*
X6774180Y1341118D01*
D02*
G37*
G36*
X7694238Y1331538D02*
X7675549Y1327821D01*
X7659705Y1317234D01*
X7649118Y1301390D01*
X7645400Y1282700D01*
X7649118Y1264010D01*
X7659705Y1248166D01*
X7675549Y1237579D01*
X7694238Y1233862D01*
X7712928Y1237579D01*
X7728772Y1248166D01*
X7739359Y1264010D01*
X7743077Y1282700D01*
X7739359Y1301390D01*
X7728772Y1317234D01*
X7712928Y1327821D01*
X7694238Y1331538D01*
D02*
G37*
G36*
X197650Y1385981D02*
X169483Y1382273D01*
X143235Y1371401D01*
X120695Y1354105D01*
X103400Y1331566D01*
X92527Y1305318D01*
X88819Y1277150D01*
X92527Y1248983D01*
X103400Y1222735D01*
X120695Y1200195D01*
X143235Y1182900D01*
X169483Y1172027D01*
X197650Y1168319D01*
X225818Y1172027D01*
X252066Y1182900D01*
X274605Y1200195D01*
X291901Y1222735D01*
X302773Y1248983D01*
X306481Y1277150D01*
X302773Y1305318D01*
X291901Y1331566D01*
X274605Y1354105D01*
X252066Y1371401D01*
X225818Y1382273D01*
X197650Y1385981D01*
D02*
G37*
G36*
X7683500Y1179138D02*
X7664810Y1175421D01*
X7648966Y1164834D01*
X7638379Y1148990D01*
X7634662Y1130300D01*
X7638379Y1111610D01*
X7648966Y1095766D01*
X7664810Y1085179D01*
X7683500Y1081462D01*
X7702190Y1085179D01*
X7718034Y1095766D01*
X7728621Y1111610D01*
X7732338Y1130300D01*
X7728621Y1148990D01*
X7718034Y1164834D01*
X7702190Y1175421D01*
X7683500Y1179138D01*
D02*
G37*
G36*
X210350Y1130309D02*
Y1035851D01*
X304809D01*
X302773Y1051318D01*
X291901Y1077566D01*
X274605Y1100105D01*
X252066Y1117401D01*
X225818Y1128273D01*
X210350Y1130309D01*
D02*
G37*
G36*
X184950D02*
X169483Y1128273D01*
X143235Y1117401D01*
X120695Y1100105D01*
X103400Y1077566D01*
X92527Y1051318D01*
X90491Y1035851D01*
X184950D01*
Y1130309D01*
D02*
G37*
G36*
X304809Y1010451D02*
X210350D01*
Y915991D01*
X225818Y918027D01*
X252066Y928900D01*
X274605Y946195D01*
X291901Y968735D01*
X302773Y994983D01*
X304809Y1010451D01*
D02*
G37*
G36*
X184950D02*
X90491D01*
X92527Y994983D01*
X103400Y968735D01*
X120695Y946195D01*
X143235Y928900D01*
X169483Y918027D01*
X184950Y915991D01*
Y1010451D01*
D02*
G37*
G36*
X3576301Y951853D02*
X3557612Y948136D01*
X3541767Y937549D01*
X3531180Y921705D01*
X3527463Y903015D01*
X3531180Y884325D01*
X3541767Y868481D01*
X3557612Y857894D01*
X3576301Y854177D01*
X3594991Y857894D01*
X3610835Y868481D01*
X3621422Y884325D01*
X3625140Y903015D01*
X3621422Y921705D01*
X3610835Y937549D01*
X3594991Y948136D01*
X3576301Y951853D01*
D02*
G37*
G36*
X4569460Y737178D02*
X4550770Y733461D01*
X4543379Y728522D01*
X4528820Y724543D01*
X4514261Y728522D01*
X4506870Y733461D01*
X4488180Y737178D01*
X4469490Y733461D01*
X4453646Y722874D01*
X4443059Y707030D01*
X4439342Y688340D01*
X4443059Y669650D01*
X4453646Y653806D01*
X4469490Y643219D01*
X4488180Y639502D01*
X4506870Y643219D01*
X4522714Y653806D01*
X4534926D01*
X4550770Y643219D01*
X4569460Y639502D01*
X4588150Y643219D01*
X4603994Y653806D01*
X4614581Y669650D01*
X4618298Y688340D01*
X4614581Y707030D01*
X4603994Y722874D01*
X4588150Y733461D01*
X4569460Y737178D01*
D02*
G37*
G36*
X3583211Y420993D02*
X3564522Y417276D01*
X3548677Y406689D01*
X3538090Y390845D01*
X3534373Y372155D01*
X3538090Y353465D01*
X3548677Y337621D01*
X3564522Y327034D01*
X3583211Y323317D01*
X3601901Y327034D01*
X3617745Y337621D01*
X3628332Y353465D01*
X3632050Y372155D01*
X3628332Y390845D01*
X3617745Y406689D01*
X3601901Y417276D01*
X3583211Y420993D01*
D02*
G37*
G36*
X7190740Y297758D02*
X7172050Y294041D01*
X7156206Y283454D01*
X7145619Y267610D01*
X7141902Y248920D01*
X7145619Y230230D01*
X7156206Y214386D01*
X7172050Y203799D01*
X7190740Y200082D01*
X7209430Y203799D01*
X7225274Y214386D01*
X7235861Y230230D01*
X7239578Y248920D01*
X7235861Y267610D01*
X7225274Y283454D01*
X7209430Y294041D01*
X7190740Y297758D01*
D02*
G37*
%LPD*%
D11*
X3830320Y505100D02*
X8494900D01*
X505100D02*
X3830320D01*
X3905450Y429970D01*
Y152400D02*
Y429970D01*
X500000Y500000D02*
X505100Y505100D01*
X8494900D02*
X8500000Y500000D01*
X500000D02*
Y2128312D01*
X138945Y2489368D02*
X500000Y2128312D01*
X138945Y2489368D02*
Y4670315D01*
X468630Y5000000D01*
X500000D01*
D45*
X8356380Y3191480D02*
D03*
Y3049240D02*
D03*
X8214140Y3333720D02*
D03*
Y3049240D02*
D03*
Y2907000D02*
D03*
X8211600Y3191480D02*
D03*
X8074440Y3051780D02*
D03*
Y3333720D02*
D03*
Y3191480D02*
D03*
Y2907000D02*
D03*
X7929660Y3191480D02*
D03*
Y3049240D02*
D03*
D46*
X495300Y2611500D02*
D03*
Y3111500D02*
D03*
Y3721100D02*
D03*
Y4221100D02*
D03*
X2468500Y5016500D02*
D03*
X1968500D02*
D03*
D47*
X197650Y1023150D02*
D03*
Y1785150D02*
D03*
Y1531150D02*
D03*
Y1277150D02*
D03*
X6062980Y5232400D02*
D03*
X5808980D02*
D03*
X5300980D02*
D03*
X5554980D02*
D03*
D48*
X197650Y2039150D02*
D03*
D49*
X8789610Y5303520D02*
D03*
D50*
X8535610D02*
D03*
X8281610D02*
D03*
X8027610D02*
D03*
X7773610D02*
D03*
X7519610D02*
D03*
D51*
X3905450Y152400D02*
D03*
X4695450D02*
D03*
D52*
X6316980Y5232400D02*
D03*
D53*
X8500000Y500000D02*
D03*
X500000D02*
D03*
Y5000000D02*
D03*
D54*
X2679700Y1879600D02*
D03*
X2895600Y2209800D02*
D03*
X8572500Y3644900D02*
D03*
X8890000Y1617980D02*
D03*
X7287260Y1828800D02*
D03*
X7327900Y1905000D02*
D03*
X7974992Y1852599D02*
D03*
X7594600Y1282700D02*
D03*
X7683500Y1033700D02*
D03*
X6997700Y3644900D02*
D03*
X8201660Y4826000D02*
D03*
X7962900D02*
D03*
Y4084300D02*
D03*
X7835900D02*
D03*
X6883400Y4470400D02*
D03*
X6477000Y4993640D02*
D03*
X6680200Y4470400D02*
D03*
X6426200D02*
D03*
X6146800D02*
D03*
X6197600Y4993640D02*
D03*
X5943600D02*
D03*
X5696310D02*
D03*
X177800Y5359400D02*
D03*
X1778000Y228600D02*
D03*
X5054600Y279400D02*
D03*
X7518400Y4025336D02*
D03*
X7442200Y4084300D02*
D03*
X7707333Y4084592D02*
D03*
X8384166Y2692400D02*
D03*
X8661400Y2590800D02*
D03*
X7251700Y673100D02*
D03*
X7569200Y3073400D02*
D03*
X6379300Y3772398D02*
D03*
X3632200Y2819400D02*
D03*
X2578100Y3804225D02*
D03*
X5054600Y2794000D02*
D03*
X2794000Y2641600D02*
D03*
X4927600Y2268220D02*
D03*
X4059498Y2006600D02*
D03*
X3302000Y1727200D02*
D03*
X3911600Y1394460D02*
D03*
X4058927Y1843448D02*
D03*
X4061460Y1651000D02*
D03*
X4927600Y1475740D02*
D03*
Y1661160D02*
D03*
Y1828800D02*
D03*
X6002020D02*
D03*
X5689600Y1473200D02*
D03*
X6957060D02*
D03*
X7061200Y1661160D02*
D03*
Y1828800D02*
D03*
X7543800Y1683537D02*
D03*
X8229600Y1905000D02*
D03*
X8699500Y1778000D02*
D03*
X7391400Y2362200D02*
D03*
X7518400Y2514600D02*
D03*
X7747000Y2496820D02*
D03*
X6400800Y3074100D02*
D03*
X5715000Y3777794D02*
D03*
X1336639Y4762500D02*
D03*
X2184400Y3937000D02*
D03*
X2794000Y3048000D02*
D03*
X2527300Y2286000D02*
D03*
X1193800Y2514600D02*
D03*
X2032000Y2946400D02*
D03*
X2311400Y2867660D02*
D03*
X2032000Y2413000D02*
D03*
X1524000Y1905000D02*
D03*
X1270000Y2032000D02*
D03*
X889000Y1905000D02*
D03*
X381000D02*
D03*
X889000Y1651000D02*
D03*
X381000D02*
D03*
X889000Y1397000D02*
D03*
X381000D02*
D03*
X7351700Y1033700D02*
D03*
X7251700D02*
D03*
X7151700Y1030300D02*
D03*
X7351700Y1232229D02*
D03*
X7251700D02*
D03*
X7151700D02*
D03*
X8661400Y2501900D02*
D03*
X8801100Y1617980D02*
D03*
X2768600Y1879600D02*
D03*
X8721889Y4533900D02*
D03*
X7249160Y4993640D02*
D03*
X7645400Y4025336D02*
D03*
X6379300Y1316903D02*
D03*
X5278120Y3992880D02*
D03*
X5664100Y3862297D02*
D03*
X1860910Y4401221D02*
D03*
X2446020Y2867660D02*
D03*
X8039100Y1683537D02*
D03*
X7645400Y2496820D02*
D03*
X7694238Y1282700D02*
D03*
X6002020Y2113280D02*
D03*
X6957060D02*
D03*
X4061460Y1752600D02*
D03*
X1754570Y3495700D02*
D03*
Y3415000D02*
D03*
X1559560Y3139440D02*
D03*
X1640840D02*
D03*
X1729740Y3220720D02*
D03*
X2181800Y3845500D02*
D03*
X3672840Y3777794D02*
D03*
Y3909060D02*
D03*
X4010660Y1394460D02*
D03*
X7391400Y2268220D02*
D03*
X7518400Y2423160D02*
D03*
X6385560Y3586480D02*
D03*
X6284660Y3074100D02*
D03*
X6121400Y2758440D02*
D03*
X7287260Y3622040D02*
D03*
X5427980Y2303780D02*
D03*
X5805200D02*
D03*
X3027680Y1475740D02*
D03*
X3583211Y372155D02*
D03*
X8721889Y4640580D02*
D03*
X5264941Y2697480D02*
D03*
X4163060Y599440D02*
D03*
X6774180Y1292280D02*
D03*
X2527300Y2413000D02*
D03*
X3733800Y4413039D02*
D03*
X3576301Y903015D02*
D03*
X7190740Y248920D02*
D03*
X4488180Y688340D02*
D03*
X4569460D02*
D03*
X8384166Y3988800D02*
D03*
X5392420Y3393440D02*
D03*
X3818628Y4840797D02*
D03*
X8722360Y4843780D02*
D03*
X3499588Y4927600D02*
D03*
X3281107D02*
D03*
X3278853Y5105400D02*
D03*
X3238500Y3185700D02*
D03*
X3155949Y3187700D02*
D03*
X3073400D02*
D03*
X3479800Y3804225D02*
D03*
X3390900D02*
D03*
X3568700D02*
D03*
X3529146Y3385820D02*
D03*
X3462020Y3462020D02*
D03*
X3357880Y3461000D02*
D03*
X3644900Y3364803D02*
D03*
X4206240Y3355340D02*
D03*
X4203700Y3233420D02*
D03*
X3802380Y3243580D02*
D03*
X3665220Y3249380D02*
D03*
X4059498Y3238500D02*
D03*
X3942080Y3909060D02*
D03*
X4053840Y3772398D02*
D03*
X3804920Y3774440D02*
D03*
X3934460Y3772398D02*
D03*
X5930900Y609600D02*
D03*
X7638379Y154940D02*
D03*
X1640840Y3220720D02*
D03*
X2133600Y4127500D02*
D03*
X1666240Y3415000D02*
D03*
X6807200Y209170D02*
D03*
X2578100Y1651000D02*
D03*
X2794000Y2209800D02*
D03*
X3655060Y2286000D02*
D03*
X4051300Y2672080D02*
D03*
X8699500Y1866900D02*
D03*
X7683500Y1130300D02*
D03*
X8140700Y1905000D02*
D03*
X7901600D02*
D03*
X6400800Y2980500D02*
D03*
X8280400Y2692400D02*
D03*
X5930900Y444500D02*
D03*
X8930640Y1973580D02*
D03*
X8359140Y1607820D02*
D03*
X5696310Y4279900D02*
D03*
X5156200Y4368800D02*
D03*
X5778400Y4084300D02*
D03*
X5577840Y4006553D02*
D03*
X5689600Y1661160D02*
D03*
X7995920Y673100D02*
D03*
X8661400Y3644900D02*
D03*
X8201660Y3988800D02*
D03*
X5715000Y3669000D02*
D03*
X5974351Y3338526D02*
D03*
X5815832Y2907000D02*
D03*
X4053840Y3910802D02*
D03*
X3522980Y3909060D02*
D03*
X3804920Y3906520D02*
D03*
X4292600Y4838624D02*
D03*
X3931920Y3238500D02*
D03*
D55*
X4544060Y5473700D02*
D03*
D56*
X4394200D02*
D03*
%TF.MD5,b19b4fb000cbc85132501af4f973af9d*%
M02*
